<?xml version="1.0" encoding="UTF-8"?>
<!DOCTYPE svg PUBLIC "-//W3C//DTD SVG 1.1//EN" "http://www.w3.org/Graphics/SVG/1.1/DTD/svg11.dtd">
<svg xmlns="http://www.w3.org/2000/svg" version="1.1" width="512px" height="512px" style="shape-rendering:geometricPrecision; text-rendering:geometricPrecision; image-rendering:optimizeQuality; fill-rule:evenodd; clip-rule:evenodd" xmlns:xlink="http://www.w3.org/1999/xlink">
<g><path style="opacity:0.984" fill="#090807" d="M 470.5,37.5 C 468.461,39.8533 465.794,41.1866 462.5,41.5C 455.962,39.1535 449.296,37.3202 442.5,36C 380.5,35.3333 318.5,35.3333 256.5,36C 225.704,44.6184 209.038,64.7851 206.5,96.5C 206.555,116.939 214.389,133.606 230,146.5C 231.92,149.339 233.587,152.339 235,155.5C 235.5,192.832 235.667,230.165 235.5,267.5C 239.167,267.5 242.833,267.5 246.5,267.5C 246.667,229.165 246.5,190.832 246,152.5C 244.527,148.221 242.527,144.221 240,140.5C 214.798,118.518 211.132,93.5183 229,65.5C 237.908,55.295 249.074,49.1283 262.5,47C 321.5,46.3333 380.5,46.3333 439.5,47C 467.063,51.8932 482.063,68.2265 484.5,96C 484.932,108.447 481.432,119.614 474,129.5C 470,133.5 466,137.5 462,141.5C 459.196,145.443 457.196,149.777 456,154.5C 455.667,219.5 455.333,284.5 455,349.5C 453.278,357.556 448.444,362.723 440.5,365C 429.833,365.333 419.167,365.667 408.5,366C 409.962,369.094 411.296,372.261 412.5,375.5C 423.151,376.666 433.818,376.832 444.5,376C 457.047,371.453 464.547,362.619 467,349.5C 467.333,284.5 467.667,219.5 468,154.5C 470.561,148.605 474.561,143.939 480,140.5C 500.181,114.577 501.681,87.5766 484.5,59.5C 485.071,56.6873 486.404,54.354 488.5,52.5C 492.506,50.7137 496.006,51.3804 499,54.5C 505.447,64.0395 509.613,74.3728 511.5,85.5C 511.5,93.8333 511.5,102.167 511.5,110.5C 507.276,129.893 497.776,146.226 483,159.5C 482.983,225.87 482.316,292.203 481,358.5C 474.689,377.143 461.856,388.31 442.5,392C 434.507,392.5 426.507,392.666 418.5,392.5C 422.101,409.709 422.934,427.042 421,444.5C 415.303,470.863 399.136,486.363 372.5,491C 289.833,491.667 207.167,491.667 124.5,491C 120.482,490.137 118.482,487.637 118.5,483.5C 119.322,481.611 120.155,479.611 121,477.5C 121.75,476.874 122.584,476.374 123.5,476C 199.833,475.5 276.166,475.333 352.5,475.5C 375.105,479.11 391.938,471.11 403,451.5C 410.106,419.923 405.773,389.923 390,361.5C 372.978,330.476 348.311,307.81 316,293.5C 315.501,298.823 315.334,304.156 315.5,309.5C 315.667,325.17 315.5,340.837 315,356.5C 311.715,370.433 302.882,376.6 288.5,375C 279.114,373.281 273.281,367.781 271,358.5C 270.5,333.169 270.333,307.836 270.5,282.5C 258.167,282.5 245.833,282.5 233.5,282.5C 233.667,307.169 233.5,331.836 233,356.5C 228.484,371.686 218.317,377.52 202.5,374C 194.08,370.655 189.414,364.489 188.5,355.5C 188.5,331.167 188.5,306.833 188.5,282.5C 186.167,282.5 183.833,282.5 181.5,282.5C 171.167,282.5 160.833,282.5 150.5,282.5C 150.667,307.836 150.5,333.169 150,358.5C 148.774,365.394 144.94,370.227 138.5,373C 127.499,376.768 117.999,374.602 110,366.5C 108.132,363.395 106.965,360.062 106.5,356.5C 106.5,335.5 106.5,314.5 106.5,293.5C 105.209,293.263 104.209,293.596 103.5,294.5C 53.4365,318.248 23.9365,357.581 15,412.5C 13.8685,424.298 14.5352,435.965 17,447.5C 22.4346,461.936 32.6013,471.102 47.5,475C 61.1667,475.333 74.8333,475.667 88.5,476C 91.8923,477.542 93.8923,480.042 94.5,483.5C 93.914,485.84 92.914,488.007 91.5,490C 75.8699,491.888 60.2032,491.888 44.5,490C 20.1194,483.455 5.1194,467.955 -0.5,443.5C -0.5,432.167 -0.5,420.833 -0.5,409.5C 2.96433,386.446 10.631,364.779 22.5,344.5C 9.89234,325.292 5.559,304.458 9.5,282C 11.087,281.138 12.7536,280.471 14.5,280C 20.8368,279.934 27.1701,279.934 33.5,280C 19.5104,268.533 11.3437,253.699 9,235.5C 7.53571,226.88 7.20238,218.213 8,209.5C 9.16667,208.333 10.3333,207.167 11.5,206C 18.8333,205.667 26.1667,205.333 33.5,205C 24.4497,198.076 17.9497,189.242 14,178.5C 8.73134,164.619 6.73134,150.286 8,135.5C 8.83333,133.333 10.3333,131.833 12.5,131C 22.909,130.371 33.2424,130.705 43.5,132C 30.7249,118.697 24.3916,102.697 24.5,84C 24.4875,75.6806 28.6542,71.8472 37,72.5C 45.6642,72.895 54.1642,74.2283 62.5,76.5C 61.5019,54.6643 69.1686,36.4977 85.5,22C 88.999,19.2959 92.6656,18.9625 96.5,21C 113.318,36.1025 121.651,54.6025 121.5,76.5C 132.355,73.0512 143.355,72.2179 154.5,74C 155.333,74.8333 156.167,75.6667 157,76.5C 158.963,92.017 156.296,106.684 149,120.5C 146.588,124.916 143.422,128.749 139.5,132C 149.762,130.759 160.096,130.426 170.5,131C 172.815,132.109 174.315,133.943 175,136.5C 176.248,157.51 171.248,176.843 160,194.5C 156.833,199 153,202.833 148.5,206C 155.755,205.408 163.089,205.408 170.5,206C 172.815,207.109 174.315,208.943 175,211.5C 176.222,231.446 171.722,249.946 161.5,267C 180.83,267.5 200.164,267.667 219.5,267.5C 219.667,231.165 219.5,194.832 219,158.5C 191.571,132.7 184.238,102.033 197,66.5C 210.064,39.4538 231.564,23.9538 261.5,20C 320.833,19.3333 380.167,19.3333 439.5,20C 449.738,20.6426 459.405,23.3092 468.5,28C 470.227,30.9036 470.893,34.0703 470.5,37.5 Z M 73.5,146.5 C 82.0799,143.403 85.2466,146.403 83,155.5C 79.9641,152.296 76.7974,149.296 73.5,146.5 Z M 109.5,145.5 C 105.863,148.306 102.696,151.639 100,155.5C 97.5128,146.824 100.679,143.49 109.5,145.5 Z M 73.5,221.5 C 76.6248,220.521 79.9581,220.187 83.5,220.5C 83.665,223.85 83.4983,227.183 83,230.5C 79.9641,227.296 76.7974,224.296 73.5,221.5 Z M 109.5,220.5 C 105.863,223.306 102.696,226.639 100,230.5C 99.5017,227.183 99.335,223.85 99.5,220.5C 102.833,220.5 106.167,220.5 109.5,220.5 Z"/></g>
<g><path style="opacity:0.999" fill="#e3ae64" d="M 470.5,37.5 C 477.134,41.8061 483.134,46.8061 488.5,52.5C 486.404,54.354 485.071,56.6873 484.5,59.5C 501.681,87.5766 500.181,114.577 480,140.5C 474.561,143.939 470.561,148.605 468,154.5C 467.667,219.5 467.333,284.5 467,349.5C 464.547,362.619 457.047,371.453 444.5,376C 433.818,376.832 423.151,376.666 412.5,375.5C 411.296,372.261 409.962,369.094 408.5,366C 419.167,365.667 429.833,365.333 440.5,365C 448.444,362.723 453.278,357.556 455,349.5C 455.333,284.5 455.667,219.5 456,154.5C 457.196,149.777 459.196,145.443 462,141.5C 466,137.5 470,133.5 474,129.5C 481.432,119.614 484.932,108.447 484.5,96C 482.063,68.2265 467.063,51.8932 439.5,47C 380.5,46.3333 321.5,46.3333 262.5,47C 249.074,49.1283 237.908,55.295 229,65.5C 211.132,93.5183 214.798,118.518 240,140.5C 242.527,144.221 244.527,148.221 246,152.5C 246.5,190.832 246.667,229.165 246.5,267.5C 242.833,267.5 239.167,267.5 235.5,267.5C 235.667,230.165 235.5,192.832 235,155.5C 233.587,152.339 231.92,149.339 230,146.5C 214.389,133.606 206.555,116.939 206.5,96.5C 209.038,64.7851 225.704,44.6184 256.5,36C 318.5,35.3333 380.5,35.3333 442.5,36C 449.296,37.3202 455.962,39.1535 462.5,41.5C 465.794,41.1866 468.461,39.8533 470.5,37.5 Z"/></g>
<g><path style="opacity:1" fill="#f8cd38" d="M 90.5,38.5 C 101.969,48.4843 106.469,61.1509 104,76.5C 101.205,84.7576 96.8722,92.091 91,98.5C 79.4875,86.4462 75.8208,72.4462 80,56.5C 83.2709,50.2809 86.7709,44.2809 90.5,38.5 Z"/></g>
<g><path style="opacity:1" fill="#fef0eb" d="M 438.5,62.5 C 432.491,62.3338 426.491,62.5005 420.5,63C 438.426,79.5374 441.926,98.7041 431,120.5C 426.352,127.146 421.018,133.146 415,138.5C 412.227,142.815 410.227,147.482 409,152.5C 408.833,194.002 408.333,235.335 407.5,276.5C 397.461,275.387 394.461,279.554 398.5,289C 401.753,290.82 405.087,290.987 408.5,289.5C 408.81,309.879 408.477,330.213 407.5,350.5C 405.143,350.663 402.81,350.497 400.5,350C 370.706,302.919 328.04,275.753 272.5,268.5C 269.375,267.521 266.042,267.187 262.5,267.5C 262.832,229.996 262.498,192.663 261.5,155.5C 260.602,149.246 258.768,143.246 256,137.5C 250.374,130.206 244.374,123.206 238,116.5C 228.217,96.8003 232.05,80.3003 249.5,67C 253.271,64.7813 257.271,63.1146 261.5,62C 320.668,61.1681 379.668,61.3347 438.5,62.5 Z"/></g>
<g><path style="opacity:1" fill="#fbe1c4" d="M 438.5,62.5 C 462.097,67.6299 472.264,82.2966 469,106.5C 467.613,111.675 465.28,116.342 462,120.5C 450.907,128.92 443.907,139.92 441,153.5C 440.667,218.5 440.333,283.5 440,348.5C 439.5,349 439,349.5 438.5,350C 428.172,350.5 417.839,350.666 407.5,350.5C 408.477,330.213 408.81,309.879 408.5,289.5C 411.449,284.836 411.116,280.503 407.5,276.5C 408.333,235.335 408.833,194.002 409,152.5C 410.227,147.482 412.227,142.815 415,138.5C 421.018,133.146 426.352,127.146 431,120.5C 441.926,98.7041 438.426,79.5374 420.5,63C 426.491,62.5005 432.491,62.3338 438.5,62.5 Z"/></g>
<g><path style="opacity:1" fill="#f8cd38" d="M 40.5,88.5 C 67.3677,89.7013 81.701,103.701 83.5,130.5C 56.6486,129.315 42.3152,115.315 40.5,88.5 Z"/></g>
<g><path style="opacity:1" fill="#101010" d="M 415.5,87.5 C 422.657,87.155 425.824,90.4884 425,97.5C 421.468,103.29 417.135,103.957 412,99.5C 410.593,94.5994 411.76,90.5994 415.5,87.5 Z"/></g>
<g><path style="opacity:1" fill="#f1bc00" d="M 134.5,88.5 C 136.833,88.5 139.167,88.5 141.5,88.5C 140.548,115.452 126.548,129.452 99.5,130.5C 100.366,107.315 112.033,93.3146 134.5,88.5 Z"/></g>
<g><path style="opacity:1" fill="#101010" d="M 279.5,100.5 C 285.766,99.1171 289.433,101.45 290.5,107.5C 289.871,113.631 286.538,116.131 280.5,115C 275.577,110.456 275.244,105.623 279.5,100.5 Z"/></g>
<g><path style="opacity:1" fill="#675104" d="M 28.5,146.5 C 26.8333,146.5 25.1667,146.5 23.5,146.5C 23.5,147.833 23.5,149.167 23.5,150.5C 22.5489,149.081 22.2155,147.415 22.5,145.5C 24.7354,145.205 26.7354,145.539 28.5,146.5 Z"/></g>
<g><path style="opacity:1" fill="#f3bd00" d="M 28.5,146.5 C 64.3825,149.718 82.7158,169.385 83.5,205.5C 46.812,205.139 26.812,186.805 23.5,150.5C 23.5,149.167 23.5,147.833 23.5,146.5C 25.1667,146.5 26.8333,146.5 28.5,146.5 Z"/></g>
<g><path style="opacity:1" fill="#facf39" d="M 104.5,204.5 C 102.833,204.5 101.167,204.5 99.5,204.5C 99.5,202.833 99.5,201.167 99.5,199.5C 103.434,163.84 123.434,146.173 159.5,146.5C 158.199,182.131 139.866,201.464 104.5,204.5 Z"/></g>
<g><path style="opacity:1" fill="#111010" d="M 386.5,182.5 C 394.161,181.663 397.661,184.996 397,192.5C 394.051,197.69 390.051,198.69 385,195.5C 382.639,190.729 383.139,186.396 386.5,182.5 Z"/></g>
<g><path style="opacity:1" fill="#a79e9b" d="M 261.5,155.5 C 262.498,192.663 262.832,229.996 262.5,267.5C 266.042,267.187 269.375,267.521 272.5,268.5C 268.833,268.5 265.167,268.5 261.5,268.5C 261.5,230.833 261.5,193.167 261.5,155.5 Z"/></g>
<g><path style="opacity:1" fill="#8d7522" d="M 99.5,199.5 C 99.5,201.167 99.5,202.833 99.5,204.5C 101.167,204.5 102.833,204.5 104.5,204.5C 102.735,205.461 100.735,205.795 98.5,205.5C 98.2053,203.265 98.5386,201.265 99.5,199.5 Z"/></g>
<g><path style="opacity:1" fill="#131313" d="M 300.5,214.5 C 306.629,213.555 310.296,216.055 311.5,222C 309.127,229.875 304.627,231.375 298,226.5C 295.696,221.855 296.529,217.855 300.5,214.5 Z"/></g>
<g><path style="opacity:1" fill="#78641e" d="M 28.5,221.5 C 26.8333,221.5 25.1667,221.5 23.5,221.5C 23.5,223.167 23.5,224.833 23.5,226.5C 22.5386,224.735 22.2053,222.735 22.5,220.5C 24.7354,220.205 26.7354,220.539 28.5,221.5 Z"/></g>
<g><path style="opacity:1" fill="#fbcf39" d="M 28.5,221.5 C 60.343,223.347 78.343,240.013 82.5,271.5C 82.5,274.167 82.5,276.833 82.5,279.5C 80.5,279.5 78.5,279.5 76.5,279.5C 43.8404,276.84 26.1737,259.174 23.5,226.5C 23.5,224.833 23.5,223.167 23.5,221.5C 25.1667,221.5 26.8333,221.5 28.5,221.5 Z"/></g>
<g><path style="opacity:1" fill="#f3bd00" d="M 145.5,221.5 C 150.167,221.5 154.833,221.5 159.5,221.5C 159.153,240.407 152.153,256.24 138.5,269C 124.81,271.171 111.477,274.671 98.5,279.5C 99.55,247.961 115.217,228.628 145.5,221.5 Z"/></g>
<g><path style="opacity:1" fill="#0f0f0f" d="M 407.5,276.5 C 411.116,280.503 411.449,284.836 408.5,289.5C 405.087,290.987 401.753,290.82 398.5,289C 394.461,279.554 397.461,275.387 407.5,276.5 Z"/></g>
<g><path style="opacity:1" fill="#a98c28" d="M 82.5,271.5 C 83.4767,274.287 83.81,277.287 83.5,280.5C 80.9407,280.802 78.6074,280.468 76.5,279.5C 78.5,279.5 80.5,279.5 82.5,279.5C 82.5,276.833 82.5,274.167 82.5,271.5 Z"/></g>
<g><path style="opacity:1" fill="#e7b165" d="M 181.5,282.5 C 183.265,283.461 185.265,283.795 187.5,283.5C 187.169,307.672 187.502,331.672 188.5,355.5C 189.414,364.489 194.08,370.655 202.5,374C 218.317,377.52 228.484,371.686 233,356.5C 233.5,331.836 233.667,307.169 233.5,282.5C 245.833,282.5 258.167,282.5 270.5,282.5C 270.333,307.836 270.5,333.169 271,358.5C 273.281,367.781 279.114,373.281 288.5,375C 302.882,376.6 311.715,370.433 315,356.5C 315.5,340.837 315.667,325.17 315.5,309.5C 359.74,345.336 378.573,391.67 372,448.5C 368.416,459.693 361.916,468.693 352.5,475.5C 276.166,475.333 199.833,475.5 123.5,476C 122.584,476.374 121.75,476.874 121,477.5C 120.155,479.611 119.322,481.611 118.5,483.5C 110.5,483.5 102.5,483.5 94.5,483.5C 93.8923,480.042 91.8923,477.542 88.5,476C 74.8333,475.667 61.1667,475.333 47.5,475C 32.6013,471.102 22.4346,461.936 17,447.5C 14.5352,435.965 13.8685,424.298 15,412.5C 23.9365,357.581 53.4365,318.248 103.5,294.5C 105.163,314.98 106.163,335.646 106.5,356.5C 106.965,360.062 108.132,363.395 110,366.5C 117.999,374.602 127.499,376.768 138.5,373C 144.94,370.227 148.774,365.394 150,358.5C 150.5,333.169 150.667,307.836 150.5,282.5C 160.833,282.5 171.167,282.5 181.5,282.5 Z"/></g>
<g><path style="opacity:1" fill="#8e5945" d="M 203.5,283.5 C 208.167,283.5 212.833,283.5 217.5,283.5C 217.5,307.5 217.5,331.5 217.5,355.5C 216.488,358.853 214.154,360.52 210.5,360.5C 207.426,360.55 205.259,359.217 204,356.5C 203.5,332.169 203.333,307.836 203.5,283.5 Z"/></g>
<g><path style="opacity:1" fill="#5c3b2e" d="M 203.5,283.5 C 208.305,282.513 213.305,282.179 218.5,282.5C 218.831,307.006 218.498,331.339 217.5,355.5C 217.5,331.5 217.5,307.5 217.5,283.5C 212.833,283.5 208.167,283.5 203.5,283.5 Z"/></g>
<g><path style="opacity:1" fill="#8a5743" d="M 131.5,285.5 C 132.833,285.5 134.167,285.5 135.5,285.5C 135.5,308.5 135.5,331.5 135.5,354.5C 133.387,360.487 129.387,361.987 123.5,359C 122.299,358.097 121.465,356.931 121,355.5C 120.5,332.836 120.333,310.169 120.5,287.5C 124.136,286.674 127.803,286.008 131.5,285.5 Z"/></g>
<g><path style="opacity:1" fill="#8d5945" d="M 285.5,284.5 C 290.38,285.969 295.38,286.969 300.5,287.5C 300.667,310.169 300.5,332.836 300,355.5C 297.774,359.861 294.274,361.361 289.5,360C 287.667,359.5 286.5,358.333 286,356.5C 285.5,332.502 285.333,308.502 285.5,284.5 Z"/></g>
<g><path style="opacity:1" fill="#d7a158" d="M 352.5,475.5 C 361.916,468.693 368.416,459.693 372,448.5C 378.573,391.67 359.74,345.336 315.5,309.5C 315.334,304.156 315.501,298.823 316,293.5C 348.311,307.81 372.978,330.476 390,361.5C 405.773,389.923 410.106,419.923 403,451.5C 391.938,471.11 375.105,479.11 352.5,475.5 Z"/></g>
<g><path style="opacity:1" fill="#f8cd38" d="M 23.5,295.5 C 36.0772,295.446 47.7439,298.613 58.5,305C 48.9629,312.87 40.4629,321.703 33,331.5C 26.5803,320.337 23.4136,308.337 23.5,295.5 Z"/></g>
<g><path style="opacity:1" fill="#755a35" d="M 103.5,294.5 C 104.209,293.596 105.209,293.263 106.5,293.5C 106.5,314.5 106.5,335.5 106.5,356.5C 106.163,335.646 105.163,314.98 103.5,294.5 Z"/></g>
<g><path style="opacity:1" fill="#38251d" d="M 131.5,285.5 C 132.919,284.549 134.585,284.216 136.5,284.5C 136.831,308.006 136.498,331.339 135.5,354.5C 135.5,331.5 135.5,308.5 135.5,285.5C 134.167,285.5 132.833,285.5 131.5,285.5 Z"/></g>
<g><path style="opacity:1" fill="#ac844c" d="M 181.5,282.5 C 183.833,282.5 186.167,282.5 188.5,282.5C 188.5,306.833 188.5,331.167 188.5,355.5C 187.502,331.672 187.169,307.672 187.5,283.5C 185.265,283.795 183.265,283.461 181.5,282.5 Z"/></g>
</svg>
