<?xml version="1.0" encoding="UTF-8"?>
<!DOCTYPE svg PUBLIC "-//W3C//DTD SVG 1.1//EN" "http://www.w3.org/Graphics/SVG/1.1/DTD/svg11.dtd">
<svg xmlns="http://www.w3.org/2000/svg" version="1.1" width="512px" height="512px" style="shape-rendering:geometricPrecision; text-rendering:geometricPrecision; image-rendering:optimizeQuality; fill-rule:evenodd; clip-rule:evenodd" xmlns:xlink="http://www.w3.org/1999/xlink">
<g><path style="opacity:0.982" fill="#020201" d="M 147.5,-0.5 C 150.167,-0.5 152.833,-0.5 155.5,-0.5C 160.459,3.95805 165.293,8.62472 170,13.5C 190.488,6.66628 211.321,1.99961 232.5,-0.5C 247.5,-0.5 262.5,-0.5 277.5,-0.5C 335.135,5.32222 385.468,27.4889 428.5,66C 432.097,65.2231 435.763,64.3898 439.5,63.5C 442.971,63.1506 445.471,64.484 447,67.5C 447.333,73.5 447.667,79.5 448,85.5C 484.394,127.826 505.561,176.826 511.5,232.5C 511.5,247.833 511.5,263.167 511.5,278.5C 500.58,367.223 456.914,434.39 380.5,480C 348.465,497.292 314.465,507.792 278.5,511.5C 263.167,511.5 247.833,511.5 232.5,511.5C 136.582,499.379 66.7489,450.379 23,364.5C 10.4603,336.997 2.62694,308.331 -0.5,278.5C -0.5,263.167 -0.5,247.833 -0.5,232.5C 2.98111,201.589 11.3144,171.922 24.5,143.5C 16.2795,136.574 7.94619,129.907 -0.5,123.5C -0.5,120.833 -0.5,118.167 -0.5,115.5C 37.2778,87.8886 69.9444,55.0552 97.5,17C 101.5,15 105.5,15 109.5,17C 114.034,21.1994 118.201,25.6994 122,30.5C 130.394,19.9526 138.894,9.61927 147.5,-0.5 Z"/></g>
<g><path style="opacity:1" fill="#b6cacf" d="M 362.5,69.5 C 362.063,67.9256 361.063,66.7589 359.5,66C 354.036,62.9323 348.369,60.4323 342.5,58.5C 344.824,53.0199 343.157,49.1866 337.5,47C 299.172,32.4339 259.838,28.4339 219.5,35C 216.679,37.1413 215.346,39.9746 215.5,43.5C 206.045,44.4563 197.045,46.7896 188.5,50.5C 186.173,50.3354 184.007,49.6687 182,48.5C 180.736,42.2756 179.236,36.109 177.5,30C 177.645,29.228 177.978,28.5613 178.5,28C 256.571,4.26199 329.238,15.262 396.5,61C 402.351,65.4278 408.017,70.0945 413.5,75C 409.167,75.6667 404.833,75.6667 400.5,75C 388.593,67.4633 375.927,65.63 362.5,69.5 Z"/></g>
<g><path style="opacity:1" fill="#f6c25f" d="M 221.5,77.5 C 227.526,83.1945 233.526,88.8612 239.5,94.5C 239.5,98.8333 239.5,103.167 239.5,107.5C 237.463,108.846 235.463,110.18 233.5,111.5C 228.313,108.741 222.98,106.241 217.5,104C 213.114,102.943 209.947,104.443 208,108.5C 207.5,115.492 207.334,122.492 207.5,129.5C 204.216,131.117 201.549,133.45 199.5,136.5C 196.105,139.902 192.438,142.902 188.5,145.5C 185.592,144.431 182.592,144.264 179.5,145C 168.127,157.037 158.293,170.203 150,184.5C 139.751,170.913 128.751,157.913 117,145.5C 102.221,130.547 86.721,116.547 70.5,103.5C 86.721,90.4532 102.221,76.4532 117,61.5C 129.423,48.251 141.256,34.5844 152.5,20.5C 156.242,23.074 159.075,26.4073 161,30.5C 163.489,39.4571 165.823,48.4571 168,57.5C 168.583,59.0016 169.416,60.3349 170.5,61.5C 180.905,65.2715 191.572,68.4382 202.5,71C 205.833,73.6667 209.167,76.3333 212.5,79C 215.681,79.5971 218.681,79.0971 221.5,77.5 Z"/></g>
<g><path style="opacity:1" fill="#030404" d="M 342.5,58.5 C 339.751,62.1705 336.084,63.3372 331.5,62C 296.772,48.5723 260.939,44.4057 224,49.5C 219.649,49.58 216.816,47.58 215.5,43.5C 215.346,39.9746 216.679,37.1413 219.5,35C 259.838,28.4339 299.172,32.4339 337.5,47C 343.157,49.1866 344.824,53.0199 342.5,58.5 Z"/></g>
<g><path style="opacity:1" fill="#d2e0e4" d="M 215.5,43.5 C 216.816,47.58 219.649,49.58 224,49.5C 260.939,44.4057 296.772,48.5723 331.5,62C 336.084,63.3372 339.751,62.1705 342.5,58.5C 348.369,60.4323 354.036,62.9323 359.5,66C 361.063,66.7589 362.063,67.9256 362.5,69.5C 356.625,72.9366 350.292,74.9366 343.5,75.5C 341.5,75.3333 339.5,75.1667 337.5,75C 331.463,71.8765 325.13,69.5432 318.5,68C 313.833,67.3333 309.167,67.3333 304.5,68C 297.886,69.5384 291.553,71.8717 285.5,75C 280.411,75.8257 275.411,75.4924 270.5,74C 263.621,70.3938 256.621,67.0605 249.5,64C 245.114,62.9432 241.947,64.4432 240,68.5C 239.5,77.1603 239.334,85.8269 239.5,94.5C 233.526,88.8612 227.526,83.1945 221.5,77.5C 224.933,71.1763 223.599,66.0096 217.5,62C 208.672,56.1117 199.006,52.2784 188.5,50.5C 197.045,46.7896 206.045,44.4563 215.5,43.5 Z"/></g>
<g><path style="opacity:1" fill="#040201" d="M 116.5,79.5 C 121.152,78.984 124.652,80.6507 127,84.5C 127.667,96.8333 127.667,109.167 127,121.5C 126.018,125.624 123.352,127.624 119,127.5C 115.112,127.277 112.779,125.277 112,121.5C 111.333,109.167 111.333,96.8333 112,84.5C 113.025,82.313 114.525,80.6464 116.5,79.5 Z"/></g>
<g><path style="opacity:1" fill="#040201" d="M 148.5,79.5 C 153.152,78.984 156.652,80.6507 159,84.5C 159.667,96.8333 159.667,109.167 159,121.5C 158.018,125.624 155.352,127.624 151,127.5C 147.112,127.277 144.779,125.277 144,121.5C 143.333,109.167 143.333,96.8333 144,84.5C 145.025,82.313 146.525,80.6464 148.5,79.5 Z"/></g>
<g><path style="opacity:1" fill="#040201" d="M 180.5,79.5 C 185.152,78.984 188.652,80.6507 191,84.5C 191.667,96.8333 191.667,109.167 191,121.5C 190.018,125.624 187.352,127.624 183,127.5C 179.112,127.277 176.779,125.277 176,121.5C 175.333,109.167 175.333,96.8333 176,84.5C 177.025,82.313 178.525,80.6464 180.5,79.5 Z"/></g>
<g><path style="opacity:1" fill="#f28256" d="M 367.5,100.5 C 361.195,103.163 354.862,105.497 348.5,107.5C 344.5,107.5 340.5,107.5 336.5,107.5C 333.382,106.441 330.382,105.108 327.5,103.5C 328.412,96.5808 325.412,92.7475 318.5,92C 313.167,91.3333 307.833,91.3333 302.5,92C 296.719,94.0571 291.053,96.3904 285.5,99C 281.167,99.6667 276.833,99.6667 272.5,99C 267.167,96.3333 261.833,93.6667 256.5,91C 255.409,88.9361 255.242,86.7695 256,84.5C 272.185,93.809 288.352,93.6423 304.5,84C 308.833,83.3333 313.167,83.3333 317.5,84C 334.493,93.9455 351.493,93.9455 368.5,84C 372.833,83.3333 377.167,83.3333 381.5,84C 397.94,93.8028 414.44,93.9695 431,84.5C 431.758,86.7695 431.591,88.9361 430.5,91C 424.954,93.9398 419.287,96.6065 413.5,99C 409.167,99.6667 404.833,99.6667 400.5,99C 393.38,94.7932 385.713,92.2932 377.5,91.5C 370.977,91.0256 367.643,94.0256 367.5,100.5 Z"/></g>
<g><path style="opacity:1" fill="#f6ac40" d="M 103.5,36.5 C 107.891,38.0367 110.058,41.0367 110,45.5C 91.938,64.9082 72.1047,82.0749 50.5,97C 46.6211,101.298 46.6211,105.631 50.5,110C 77.2672,127.773 100.434,149.273 120,174.5C 113.507,182.818 107.507,191.485 102,200.5C 92.085,187.247 81.4184,174.581 70,162.5C 54.888,147.214 39.0547,132.881 22.5,119.5C 45.7786,100.056 67.612,79.0557 88,56.5C 93.3818,49.9575 98.5485,43.2909 103.5,36.5 Z"/></g>
<g><path style="opacity:1" fill="#dfdedd" d="M 367.5,100.5 C 369.968,106.764 374.635,109.264 381.5,108C 384.112,108.639 386.446,109.806 388.5,111.5C 382.708,115.239 376.375,116.405 369.5,115C 362.807,111.603 355.807,109.103 348.5,107.5C 354.862,105.497 361.195,103.163 367.5,100.5 Z"/></g>
<g><path style="opacity:1" fill="#dddddd" d="M 327.5,103.5 C 330.382,105.108 333.382,106.441 336.5,107.5C 330.095,109.475 323.762,111.975 317.5,115C 310.625,116.405 304.292,115.239 298.5,111.5C 300.336,110.081 302.336,108.914 304.5,108C 310.521,107.67 316.521,107.67 322.5,108C 324.659,106.941 326.326,105.441 327.5,103.5 Z"/></g>
<g><path style="opacity:1" fill="#b5c4c5" d="M 239.5,107.5 C 239.663,109.857 239.497,112.19 239,114.5C 237.22,113.361 235.386,112.361 233.5,111.5C 235.463,110.18 237.463,108.846 239.5,107.5 Z"/></g>
<g><path style="opacity:1" fill="#d9d9d9" d="M 255.5,108.5 C 261.998,110.611 261.998,112.278 255.5,113.5C 255.5,111.833 255.5,110.167 255.5,108.5 Z"/></g>
<g><path style="opacity:1" fill="#dddddd" d="M 430.5,108.5 C 431.811,110.56 431.811,112.726 430.5,115C 425.588,117.372 420.755,119.872 416,122.5C 415.503,119.854 415.336,117.187 415.5,114.5C 421.043,113.657 426.043,111.657 430.5,108.5 Z"/></g>
<g><path style="opacity:1" fill="#b7cacf" d="M 90.5,212.5 C 86.8588,218.436 83.1921,224.436 79.5,230.5C 71.5179,220.519 63.1846,210.852 54.5,201.5C 56.1509,196.959 56.6509,192.293 56,187.5C 49.65,181.57 44.65,182.57 41,190.5C 28.471,233.504 28.471,276.504 41,319.5C 42.6385,326.402 46.8052,328.735 53.5,326.5C 53.4145,332.076 54.9145,337.409 58,342.5C 60.4779,334.575 64.6445,327.908 70.5,322.5C 59.3293,347.81 62.1627,371.477 79,393.5C 86.371,400.54 94.0377,407.206 102,413.5C 116.812,438.497 138.312,454.663 166.5,462C 176.482,463.737 186.482,463.904 196.5,462.5C 204.908,466.5 213.908,468.5 223.5,468.5C 223.345,473.023 225.345,476.189 229.5,478C 314.588,484.856 383.421,455.022 436,388.5C 477.456,328.978 489.122,263.978 471,193.5C 467.981,182.774 463.981,172.44 459,162.5C 455.865,159.706 452.365,159.039 448.5,160.5C 448.186,156.161 446.186,153.161 442.5,151.5C 444.901,150.254 446.401,148.254 447,145.5C 447.333,134.5 447.667,123.5 448,112.5C 493.085,175.268 506.085,244.268 487,319.5C 460.5,404.667 404.667,460.5 319.5,487C 227.449,508.86 147.949,486.693 81,420.5C 27.6482,361.187 6.98151,291.854 19,212.5C 22.6102,192.169 29.1102,172.836 38.5,154.5C 57.7019,172.357 75.0352,191.69 90.5,212.5 Z"/></g>
<g><path style="opacity:1" fill="#ef8154" d="M 272.5,123.5 C 276.846,123.334 281.179,123.501 285.5,124C 302.493,133.946 319.493,133.946 336.5,124C 340.833,123.333 345.167,123.333 349.5,124C 365.94,133.803 382.44,133.97 399,124.5C 399.758,126.769 399.591,128.936 398.5,131C 391.161,135.842 383.161,138.676 374.5,139.5C 372.5,139.333 370.5,139.167 368.5,139C 351.493,129.054 334.493,129.054 317.5,139C 313.167,139.667 308.833,139.667 304.5,139C 287.493,129.054 270.493,129.054 253.5,139C 249.167,139.667 244.833,139.667 240.5,139C 235.167,136.333 229.833,133.667 224.5,131C 223.409,128.936 223.242,126.769 224,124.5C 240.413,133.949 256.579,133.616 272.5,123.5 Z"/></g>
<g><path style="opacity:1" fill="#b9ccd1" d="M 207.5,129.5 C 207.037,149.234 207.537,168.901 209,188.5C 219.024,194.764 229.524,199.764 240.5,203.5C 234.824,203.666 229.157,203.499 223.5,203C 215.467,199.567 207.634,195.733 200,191.5C 199.5,173.17 199.333,154.836 199.5,136.5C 201.549,133.45 204.216,131.117 207.5,129.5 Z"/></g>
<g><path style="opacity:1" fill="#ed7f54" d="M 430.5,132.5 C 431.811,134.56 431.811,136.726 430.5,139C 425.588,141.372 420.755,143.872 416,146.5C 415.182,143.773 415.348,141.106 416.5,138.5C 421.503,137.062 426.169,135.062 430.5,132.5 Z"/></g>
<g><path style="opacity:1" fill="#d3e1e5" d="M 199.5,136.5 C 199.333,154.836 199.5,173.17 200,191.5C 207.634,195.733 215.467,199.567 223.5,203C 229.157,203.499 234.824,203.666 240.5,203.5C 252.238,204.211 263.238,201.711 273.5,196C 277.5,195.333 281.5,195.333 285.5,196C 293.334,200.256 301.668,202.756 310.5,203.5C 320.09,203.137 329.09,200.637 337.5,196C 341.5,195.333 345.5,195.333 349.5,196C 355.553,199.128 361.886,201.462 368.5,203C 374.548,203.663 380.548,203.33 386.5,202C 396.143,198.428 405.31,193.928 414,188.5C 415.079,179.888 415.912,171.221 416.5,162.5C 425.409,159.378 434.076,155.711 442.5,151.5C 446.186,153.161 448.186,156.161 448.5,160.5C 446.404,162.354 445.071,164.687 444.5,167.5C 471.657,231.174 469.49,293.841 438,355.5C 434.06,362.436 429.727,369.103 425,375.5C 426.566,363.534 428.233,351.534 430,339.5C 433.699,301.86 430.366,264.86 420,228.5C 410.424,209.394 395.59,203.561 375.5,211C 366.417,216.255 361.084,224.088 359.5,234.5C 351.483,240.533 347.816,248.533 348.5,258.5C 332.156,252.12 318.656,255.786 308,269.5C 305.398,273.474 303.898,277.807 303.5,282.5C 300.861,284.309 298.694,286.642 297,289.5C 296.79,287.942 296.29,286.609 295.5,285.5C 296.601,258.855 285.268,239.688 261.5,228C 249.485,225.44 238.152,221.106 227.5,215C 195.662,202.211 165.662,205.544 137.5,225C 120.45,237.548 106.784,253.048 96.5,271.5C 95.5041,271.414 94.6708,271.748 94,272.5C 85.6328,285.23 79.4661,298.897 75.5,313.5C 73.5797,316.339 71.9131,319.339 70.5,322.5C 64.6445,327.908 60.4779,334.575 58,342.5C 54.9145,337.409 53.4145,332.076 53.5,326.5C 55.9225,324.448 56.9225,321.782 56.5,318.5C 49.2106,291.638 46.3773,264.305 48,236.5C 49.0952,224.591 51.2619,212.924 54.5,201.5C 63.1846,210.852 71.5179,220.519 79.5,230.5C 83.1921,224.436 86.8588,218.436 90.5,212.5C 93.3021,215.476 95.9688,218.642 98.5,222C 102.083,223.952 105.583,223.786 109,221.5C 112.179,215.806 115.345,210.139 118.5,204.5C 121.478,207.813 124.478,211.147 127.5,214.5C 130.69,208.102 134.357,202.102 138.5,196.5C 141.657,200.157 144.99,203.657 148.5,207C 151.588,207.847 154.421,207.347 157,205.5C 165.771,187.613 176.771,171.28 190,156.5C 192.311,152.374 191.811,148.707 188.5,145.5C 192.438,142.902 196.105,139.902 199.5,136.5 Z"/></g>
<g><path style="opacity:1" fill="#dfdede" d="M 287.5,164.5 C 282.023,163.298 276.689,163.298 271.5,164.5C 269.712,161.272 266.879,159.605 263,159.5C 255.166,163.611 247,164.444 238.5,162C 233.833,159.667 229.167,157.333 224.5,155C 223.409,152.936 223.242,150.769 224,148.5C 240.185,157.809 256.352,157.642 272.5,148C 276.833,147.333 281.167,147.333 285.5,148C 302.493,157.946 319.493,157.946 336.5,148C 340.833,147.333 345.167,147.333 349.5,148C 365.94,157.803 382.44,157.97 399,148.5C 399.758,150.769 399.591,152.936 398.5,155C 392.954,157.94 387.287,160.606 381.5,163C 377.5,163.667 373.5,163.667 369.5,163C 361.376,158.569 352.709,156.069 343.5,155.5C 334.265,155.946 325.599,158.446 317.5,163C 315.5,163.167 313.5,163.333 311.5,163.5C 305.778,163.093 300.278,161.76 295,159.5C 291.52,159.831 289.02,161.498 287.5,164.5 Z"/></g>
<g><path style="opacity:1" fill="#040302" d="M 223.5,468.5 C 224.228,466.265 225.561,464.432 227.5,463C 250.305,464.346 272.972,463.179 295.5,459.5C 301.4,458.697 307.067,457.197 312.5,455C 306.016,448.527 303.016,440.693 303.5,431.5C 305.77,417.543 307.937,403.543 310,389.5C 313.396,357.142 311.396,325.142 304,293.5C 303.501,289.848 303.335,286.182 303.5,282.5C 303.898,277.807 305.398,273.474 308,269.5C 318.656,255.786 332.156,252.12 348.5,258.5C 357.127,263.392 362.627,270.725 365,280.5C 363.497,265.143 361.663,249.81 359.5,234.5C 361.084,224.088 366.417,216.255 375.5,211C 395.59,203.561 410.424,209.394 420,228.5C 430.366,264.86 433.699,301.86 430,339.5C 428.233,351.534 426.566,363.534 425,375.5C 429.727,369.103 434.06,362.436 438,355.5C 469.49,293.841 471.657,231.174 444.5,167.5C 445.071,164.687 446.404,162.354 448.5,160.5C 452.365,159.039 455.865,159.706 459,162.5C 463.981,172.44 467.981,182.774 471,193.5C 489.122,263.978 477.456,328.978 436,388.5C 383.421,455.022 314.588,484.856 229.5,478C 225.345,476.189 223.345,473.023 223.5,468.5 Z"/></g>
<g><path style="opacity:1" fill="#f18155" d="M 287.5,164.5 C 287.206,168.115 288.206,171.282 290.5,174C 299.187,179.129 308.52,180.796 318.5,179C 325.13,177.457 331.463,175.123 337.5,172C 341.5,171.333 345.5,171.333 349.5,172C 365.931,181.809 382.431,181.976 399,172.5C 399.758,174.769 399.591,176.936 398.5,179C 391.28,183.701 383.447,186.534 375,187.5C 372.833,187.333 370.667,187.167 368.5,187C 351.493,177.054 334.493,177.054 317.5,187C 313.167,187.667 308.833,187.667 304.5,187C 287.493,177.054 270.493,177.054 253.5,187C 249.167,187.667 244.833,187.667 240.5,187C 235.167,184.333 229.833,181.667 224.5,179C 223.409,176.936 223.242,174.769 224,172.5C 239.364,181.773 254.697,181.773 270,172.5C 271.252,169.986 271.752,167.32 271.5,164.5C 276.689,163.298 282.023,163.298 287.5,164.5 Z"/></g>
<g><path style="opacity:1" fill="#030404" d="M 54.5,201.5 C 51.2619,212.924 49.0952,224.591 48,236.5C 46.3773,264.305 49.2106,291.638 56.5,318.5C 56.9225,321.782 55.9225,324.448 53.5,326.5C 46.8052,328.735 42.6385,326.402 41,319.5C 28.471,276.504 28.471,233.504 41,190.5C 44.65,182.57 49.65,181.57 56,187.5C 56.6509,192.293 56.1509,196.959 54.5,201.5 Z"/></g>
<g><path style="opacity:1" fill="#b7cacf" d="M 138.5,196.5 C 134.357,202.102 130.69,208.102 127.5,214.5C 124.478,211.147 121.478,207.813 118.5,204.5C 122.41,198.355 126.577,192.355 131,186.5C 133.717,189.71 136.217,193.044 138.5,196.5 Z"/></g>
<g><path style="opacity:1" fill="#030404" d="M 295.5,285.5 C 297.932,297.492 300.432,309.492 303,321.5C 303.925,336.01 302.758,350.343 299.5,364.5C 286.151,406.68 259.485,437.18 219.5,456C 211.994,458.893 204.328,461.06 196.5,462.5C 186.482,463.904 176.482,463.737 166.5,462C 138.312,454.663 116.812,438.497 102,413.5C 94.0377,407.206 86.371,400.54 79,393.5C 62.1627,371.477 59.3293,347.81 70.5,322.5C 71.9131,319.339 73.5797,316.339 75.5,313.5C 78.5211,310.634 81.0211,307.3 83,303.5C 86.6878,292.462 91.1878,281.795 96.5,271.5C 106.784,253.048 120.45,237.548 137.5,225C 165.662,205.544 195.662,202.211 227.5,215C 238.152,221.106 249.485,225.44 261.5,228C 285.268,239.688 296.601,258.855 295.5,285.5 Z"/></g>
<g><path style="opacity:1" fill="#e5e5e5" d="M 218.5,438.5 C 187.328,441.5 161.828,430.833 142,406.5C 133.712,393.212 123.045,382.212 110,373.5C 90.0945,346.688 90.7612,320.354 112,294.5C 115.968,285.965 119.634,277.298 123,268.5C 125.937,262.288 129.104,256.288 132.5,250.5C 154.738,226.591 181.738,218.757 213.5,227C 221.951,230.392 230.284,234.059 238.5,238C 259.638,240.153 273.138,251.319 279,271.5C 279.446,279.851 280.112,288.185 281,296.5C 295.614,347.877 282.448,390.71 241.5,425C 234.392,430.55 226.725,435.05 218.5,438.5 Z"/></g>
<g><path style="opacity:1" fill="#f58356" d="M 389.5,223.5 C 397.027,223.863 402.194,227.53 405,234.5C 418.695,285.1 418.861,335.766 405.5,386.5C 390.868,382.251 385.201,372.584 388.5,357.5C 393.893,353.945 397.56,349.111 399.5,343C 395.345,334.172 389.845,333.338 383,340.5C 382.333,334.833 382.333,329.167 383,323.5C 388,318.5 393,313.5 398,308.5C 400.537,303.68 399.704,299.68 395.5,296.5C 395.5,288.167 395.5,279.833 395.5,271.5C 401.674,264.703 400.674,259.37 392.5,255.5C 392.139,246.047 390.806,236.714 388.5,227.5C 388.623,226.075 388.957,224.742 389.5,223.5 Z"/></g>
<g><path style="opacity:1" fill="#e97249" d="M 389.5,223.5 C 388.957,224.742 388.623,226.075 388.5,227.5C 390.806,236.714 392.139,246.047 392.5,255.5C 387.225,256.247 383.058,258.914 380,263.5C 376.715,253.409 375.381,243.076 376,232.5C 378.783,226.877 383.283,223.877 389.5,223.5 Z"/></g>
<g><path style="opacity:1" fill="#b1c4c8" d="M 359.5,234.5 C 361.663,249.81 363.497,265.143 365,280.5C 362.627,270.725 357.127,263.392 348.5,258.5C 347.816,248.533 351.483,240.533 359.5,234.5 Z"/></g>
<g><path style="opacity:1" fill="#cbcbcb" d="M 132.5,250.5 C 129.104,256.288 125.937,262.288 123,268.5C 119.634,277.298 115.968,285.965 112,294.5C 90.7612,320.354 90.0945,346.688 110,373.5C 123.045,382.212 133.712,393.212 142,406.5C 161.828,430.833 187.328,441.5 218.5,438.5C 183.124,454.924 152.291,448.591 126,419.5C 122.333,414.5 118.667,409.5 115,404.5C 106.333,396.5 97.6667,388.5 89,380.5C 74.6946,357.031 76.6946,335.031 95,314.5C 100.118,301.597 105.784,288.93 112,276.5C 117.648,266.855 124.481,258.189 132.5,250.5 Z"/></g>
<g><path style="opacity:1" fill="#f58355" d="M 333.5,271.5 C 341.027,271.863 346.194,275.53 349,282.5C 362.695,333.1 362.861,383.766 349.5,434.5C 335.817,430.837 329.817,421.837 331.5,407.5C 334.796,403.702 338.296,400.036 342,396.5C 344.906,389.395 342.572,385.062 335,383.5C 331.892,384.391 329.225,386.058 327,388.5C 326.333,382.833 326.333,377.167 327,371.5C 333.102,366.071 338.436,360.071 343,353.5C 343.957,349.639 342.79,346.639 339.5,344.5C 339.5,336.167 339.5,327.833 339.5,319.5C 345.674,312.703 344.674,307.37 336.5,303.5C 335.986,294.056 334.653,284.723 332.5,275.5C 332.623,274.075 332.957,272.742 333.5,271.5 Z"/></g>
<g><path style="opacity:1" fill="#e97248" d="M 333.5,271.5 C 332.957,272.742 332.623,274.075 332.5,275.5C 334.653,284.723 335.986,294.056 336.5,303.5C 331.225,304.247 327.058,306.914 324,311.5C 320.712,301.4 319.379,291.067 320,280.5C 322.783,274.877 327.283,271.877 333.5,271.5 Z"/></g>
<g><path style="opacity:1" fill="#ea7349" d="M 395.5,271.5 C 395.5,279.833 395.5,288.167 395.5,296.5C 390.935,294.647 387.102,295.647 384,299.5C 382.641,294.225 382.308,288.891 383,283.5C 387.036,279.296 391.202,275.296 395.5,271.5 Z"/></g>
<g><path style="opacity:1" fill="#b4c7cc" d="M 96.5,271.5 C 91.1878,281.795 86.6878,292.462 83,303.5C 81.0211,307.3 78.5211,310.634 75.5,313.5C 79.4661,298.897 85.6328,285.23 94,272.5C 94.6708,271.748 95.5041,271.414 96.5,271.5 Z"/></g>
<g><path style="opacity:1" fill="#b4c7cc" d="M 303.5,282.5 C 303.335,286.182 303.501,289.848 304,293.5C 311.396,325.142 313.396,357.142 310,389.5C 307.937,403.543 305.77,417.543 303.5,431.5C 303.016,440.693 306.016,448.527 312.5,455C 307.067,457.197 301.4,458.697 295.5,459.5C 293.484,455.957 292.484,452.123 292.5,448C 298.744,420.88 301.577,393.38 301,365.5C 300.617,364.944 300.117,364.611 299.5,364.5C 302.758,350.343 303.925,336.01 303,321.5C 300.432,309.492 297.932,297.492 295.5,285.5C 296.29,286.609 296.79,287.942 297,289.5C 298.694,286.642 300.861,284.309 303.5,282.5 Z"/></g>
<g><path style="opacity:1" fill="#030302" d="M 182.5,287.5 C 212.736,285.683 231.569,299.35 239,328.5C 240.634,355.849 228.468,373.682 202.5,382C 173.298,386.32 154.131,374.486 145,346.5C 141.011,316.327 153.511,296.66 182.5,287.5 Z"/></g>
<g><path style="opacity:1" fill="#f5c25f" d="M 218.5,351.5 C 191.192,350.192 176.859,335.859 175.5,308.5C 180.089,304.861 185.422,303.195 191.5,303.5C 214.319,306.444 224.819,319.444 223,342.5C 221.953,345.859 220.453,348.859 218.5,351.5 Z"/></g>
<g><path style="opacity:1" fill="#f6ad41" d="M 175.5,308.5 C 176.859,335.859 191.192,350.192 218.5,351.5C 217.381,354.888 215.381,357.721 212.5,360C 192.902,372.594 176.402,369.427 163,350.5C 157.32,337.653 158.653,325.653 167,314.5C 169.279,311.619 172.112,309.619 175.5,308.5 Z"/></g>
<g><path style="opacity:1" fill="#ea7349" d="M 339.5,319.5 C 339.5,327.833 339.5,336.167 339.5,344.5C 334.967,342.602 331.301,343.602 328.5,347.5C 327.833,344.833 327.167,342.167 326.5,339.5C 326.336,336.813 326.503,334.146 327,331.5C 331.036,327.296 335.202,323.296 339.5,319.5 Z"/></g>
<g><path style="opacity:1" fill="#6f3622" d="M 326.5,339.5 C 327.167,342.167 327.833,344.833 328.5,347.5C 328.44,348.043 328.107,348.376 327.5,348.5C 326.516,345.572 326.183,342.572 326.5,339.5 Z"/></g>
<g><path style="opacity:1" fill="#e87148" d="M 388.5,357.5 C 385.201,372.584 390.868,382.251 405.5,386.5C 402.535,396.487 395.869,400.653 385.5,399C 378.361,396.057 375.028,390.724 375.5,383C 375.687,377.731 376.52,372.564 378,367.5C 381.369,363.963 384.869,360.629 388.5,357.5 Z"/></g>
<g><path style="opacity:1" fill="#d3e1e5" d="M 299.5,364.5 C 300.117,364.611 300.617,364.944 301,365.5C 301.577,393.38 298.744,420.88 292.5,448C 292.484,452.123 293.484,455.957 295.5,459.5C 272.972,463.179 250.305,464.346 227.5,463C 225.561,464.432 224.228,466.265 223.5,468.5C 213.908,468.5 204.908,466.5 196.5,462.5C 204.328,461.06 211.994,458.893 219.5,456C 259.485,437.18 286.151,406.68 299.5,364.5 Z"/></g>
<g><path style="opacity:1" fill="#e87248" d="M 331.5,407.5 C 329.817,421.837 335.817,430.837 349.5,434.5C 346.239,443.97 339.572,448.137 329.5,447C 322.361,444.057 319.028,438.724 319.5,431C 318.269,420.266 322.269,412.432 331.5,407.5 Z"/></g>
<g><path style="opacity:1" fill="#b4c6cb" d="M 370.5,409.5 C 375.904,412.196 381.571,414.363 387.5,416C 380.936,421.531 374.102,426.698 367,431.5C 368.263,424.253 369.43,416.919 370.5,409.5 Z"/></g>
</svg>
