<?xml version="1.0" encoding="UTF-8"?>
<!DOCTYPE svg PUBLIC "-//W3C//DTD SVG 1.1//EN" "http://www.w3.org/Graphics/SVG/1.1/DTD/svg11.dtd">
<svg xmlns="http://www.w3.org/2000/svg" version="1.1" width="512px" height="512px" style="shape-rendering:geometricPrecision; text-rendering:geometricPrecision; image-rendering:optimizeQuality; fill-rule:evenodd; clip-rule:evenodd" xmlns:xlink="http://www.w3.org/1999/xlink">
<g><path style="opacity:0.99" fill="#010101" d="M 76.5,-0.5 C 152.5,-0.5 228.5,-0.5 304.5,-0.5C 311.816,1.98409 316.649,6.98409 319,14.5C 320.242,28.4539 320.909,42.4539 321,56.5C 334.248,75.9952 347.248,95.6618 360,115.5C 360.5,159.499 360.667,203.499 360.5,247.5C 409.501,247.333 458.501,247.5 507.5,248C 508.705,249.376 510.038,250.542 511.5,251.5C 511.5,287.5 511.5,323.5 511.5,359.5C 509.61,361.578 507.276,362.911 504.5,363.5C 501.042,362.892 498.542,360.892 497,357.5C 496.5,326.168 496.333,294.835 496.5,263.5C 407.335,262.501 318.002,262.167 228.5,262.5C 228.333,289.502 228.5,316.502 229,343.5C 229.717,342.956 230.217,342.289 230.5,341.5C 262.16,292.914 294.66,292.247 328,339.5C 338.853,356.892 346.687,375.558 351.5,395.5C 382.181,389.346 394.014,401.346 387,431.5C 382.269,439.03 375.435,442.03 366.5,440.5C 364.288,456.819 362.121,473.152 360,489.5C 359.358,491.762 358.525,493.929 357.5,496C 364.826,496.5 372.159,496.666 379.5,496.5C 418.5,496.5 457.5,496.5 496.5,496.5C 496.333,460.165 496.5,423.832 497,387.5C 498.41,384.211 500.91,382.544 504.5,382.5C 507.652,382.571 509.986,383.905 511.5,386.5C 511.5,427.167 511.5,467.833 511.5,508.5C 510.167,509.167 509.167,510.167 508.5,511.5C 411.833,511.5 315.167,511.5 218.5,511.5C 209.608,508.443 203.441,502.443 200,493.5C 197.629,480.906 195.629,468.24 194,455.5C 192.13,468.929 189.796,482.262 187,495.5C 182.786,503.223 176.619,508.556 168.5,511.5C 128.167,511.5 87.8333,511.5 47.5,511.5C 39.4073,508.586 33.2407,503.253 29,495.5C 25.3761,477.633 22.5427,459.633 20.5,441.5C 11.199,442.681 4.19905,439.347 -0.5,431.5C -0.5,422.833 -0.5,414.167 -0.5,405.5C 4.20967,396.817 11.543,393.484 21.5,395.5C 21.3333,301.833 21.5,208.166 22,114.5C 35,94.8333 48,75.1667 61,55.5C 61.3333,42.5 61.6667,29.5 62,16.5C 64.1694,8.50176 69.0028,2.83509 76.5,-0.5 Z"/></g>
<g><path style="opacity:1" fill="#def5fc" d="M 278.5,14.5 C 279.458,26.1162 279.791,37.7828 279.5,49.5C 212.167,49.5 144.833,49.5 77.5,49.5C 77.5,39.5 77.5,29.5 77.5,19.5C 77.8588,17.629 78.8588,16.129 80.5,15C 146.499,14.5 212.499,14.3333 278.5,14.5 Z"/></g>
<g><path style="opacity:1" fill="#c7eefd" d="M 278.5,14.5 C 285.841,14.3337 293.174,14.5003 300.5,15C 301.416,15.3742 302.25,15.8742 303,16.5C 304.454,27.3971 304.954,38.3971 304.5,49.5C 296.167,49.5 287.833,49.5 279.5,49.5C 279.791,37.7828 279.458,26.1162 278.5,14.5 Z"/></g>
<g><path style="opacity:1" fill="#717e82" d="M 77.5,19.5 C 77.5,29.5 77.5,39.5 77.5,49.5C 144.833,49.5 212.167,49.5 279.5,49.5C 287.833,49.5 296.167,49.5 304.5,49.5C 228.668,50.4993 152.668,50.8326 76.5,50.5C 76.1724,39.9865 76.5058,29.6532 77.5,19.5 Z"/></g>
<g><path style="opacity:1" fill="#518ed7" d="M 274.5,65.5 C 264.5,80.5 254.5,95.5 244.5,110.5C 177.499,110.667 110.499,110.5 43.5,110C 53.2907,95.586 62.9574,81.086 72.5,66.5C 139.83,65.5 207.163,65.1667 274.5,65.5 Z"/></g>
<g><path style="opacity:1" fill="#0572cc" d="M 274.5,65.5 C 282.174,65.3336 289.841,65.5003 297.5,66C 287.709,80.414 278.043,94.914 268.5,109.5C 260.528,110.498 252.528,110.831 244.5,110.5C 254.5,95.5 264.5,80.5 274.5,65.5 Z"/></g>
<g><path style="opacity:1" fill="#98e5fb" d="M 344.5,120.5 C 344.5,162.833 344.5,205.167 344.5,247.5C 322.833,247.5 301.167,247.5 279.5,247.5C 279.5,205.167 279.5,162.833 279.5,120.5C 290.111,104.049 300.944,87.7153 312,71.5C 323.35,87.547 334.184,103.88 344.5,120.5 Z"/></g>
<g><path style="opacity:1" fill="#446670" d="M 279.5,120.5 C 279.5,162.833 279.5,205.167 279.5,247.5C 301.167,247.5 322.833,247.5 344.5,247.5C 344.5,205.167 344.5,162.833 344.5,120.5C 345.499,162.997 345.832,205.663 345.5,248.5C 323.167,248.5 300.833,248.5 278.5,248.5C 278.168,205.663 278.501,162.997 279.5,120.5 Z"/></g>
<g><path style="opacity:1" fill="#b0c4ca" d="M 263.5,125.5 C 263.5,125.833 263.5,126.167 263.5,126.5C 255.5,126.5 247.5,126.5 239.5,126.5C 172.167,126.5 104.833,126.5 37.5,126.5C 37.5,196.167 37.5,265.833 37.5,335.5C 37.1701,352.675 37.5034,369.675 38.5,386.5C 38.2914,387.922 37.7914,389.255 37,390.5C 36.5,302.167 36.3333,213.834 36.5,125.5C 112.167,125.5 187.833,125.5 263.5,125.5 Z"/></g>
<g><path style="opacity:1" fill="#ddf4fb" d="M 239.5,126.5 C 239.5,131.833 239.5,137.167 239.5,142.5C 237.692,142.509 236.025,142.009 234.5,141C 197.5,140.333 160.5,140.333 123.5,141C 119.993,142.33 118.327,144.83 118.5,148.5C 111.5,148.5 104.5,148.5 97.5,148.5C 97.6734,144.83 96.0067,142.33 92.5,141C 83.5,140.333 74.5,140.333 65.5,141C 59.7284,143.106 55.5617,146.939 53,152.5C 52.3333,175.167 52.3333,197.833 53,220.5C 55.2517,227.582 60.085,231.582 67.5,232.5C 112.331,233.333 157.331,233.833 202.5,234C 197.659,238.513 194.492,244.013 193,250.5C 192.667,288.5 192.333,326.5 192,364.5C 182.648,338.515 167.815,316.348 147.5,298C 128.057,283.426 107.057,279.926 84.5,287.5C 88.8358,282.662 88.1692,278.496 82.5,275C 73.0654,274.055 63.7321,274.389 54.5,276C 51.5515,280.341 51.8849,284.341 55.5,288C 64.0578,289.441 72.7244,289.941 81.5,289.5C 63.0713,301.261 48.4047,316.595 37.5,335.5C 37.5,265.833 37.5,196.167 37.5,126.5C 104.833,126.5 172.167,126.5 239.5,126.5 Z"/></g>
<g><path style="opacity:1" fill="#c6edfb" d="M 239.5,126.5 C 247.5,126.5 255.5,126.5 263.5,126.5C 263.5,166.833 263.5,207.167 263.5,247.5C 248.657,247.171 233.99,247.504 219.5,248.5C 217.284,249.203 215.451,250.536 214,252.5C 213.667,294.167 213.333,335.833 213,377.5C 211.064,383.141 209.231,388.808 207.5,394.5C 198.5,395.833 189.5,395.833 180.5,394.5C 173.301,369.769 162.134,347.102 147,326.5C 121.573,297.819 95.9061,297.485 70,325.5C 55.8253,343.847 45.3253,364.18 38.5,386.5C 37.5034,369.675 37.1701,352.675 37.5,335.5C 48.4047,316.595 63.0713,301.261 81.5,289.5C 82.2905,288.599 83.2905,287.932 84.5,287.5C 107.057,279.926 128.057,283.426 147.5,298C 167.815,316.348 182.648,338.515 192,364.5C 192.333,326.5 192.667,288.5 193,250.5C 194.492,244.013 197.659,238.513 202.5,234C 157.331,233.833 112.331,233.333 67.5,232.5C 123.501,232.667 179.501,232.5 235.5,232C 242.333,230.5 246.5,226.333 248,219.5C 248.667,197.167 248.667,174.833 248,152.5C 246.022,148.362 243.189,145.029 239.5,142.5C 239.5,137.167 239.5,131.833 239.5,126.5 Z"/></g>
<g><path style="opacity:1" fill="#7e969f" d="M 263.5,125.5 C 264.499,166.33 264.832,207.33 264.5,248.5C 249.5,248.5 234.5,248.5 219.5,248.5C 233.99,247.504 248.657,247.171 263.5,247.5C 263.5,207.167 263.5,166.833 263.5,126.5C 263.5,126.167 263.5,125.833 263.5,125.5 Z"/></g>
<g><path style="opacity:1" fill="#050604" d="M 97.5,148.5 C 97.5557,151.561 96.2224,153.728 93.5,155C 85.1667,155.333 76.8333,155.667 68.5,156C 68,156.5 67.5,157 67,157.5C 66.3333,177.167 66.3333,196.833 67,216.5C 122.096,217.664 177.263,217.831 232.5,217C 233.659,196.906 233.826,176.74 233,156.5C 196.238,155.67 159.405,155.17 122.5,155C 119.778,153.728 118.444,151.561 118.5,148.5C 118.327,144.83 119.993,142.33 123.5,141C 160.5,140.333 197.5,140.333 234.5,141C 236.025,142.009 237.692,142.509 239.5,142.5C 243.189,145.029 246.022,148.362 248,152.5C 248.667,174.833 248.667,197.167 248,219.5C 246.5,226.333 242.333,230.5 235.5,232C 179.501,232.5 123.501,232.667 67.5,232.5C 60.085,231.582 55.2517,227.582 53,220.5C 52.3333,197.833 52.3333,175.167 53,152.5C 55.5617,146.939 59.7284,143.106 65.5,141C 74.5,140.333 83.5,140.333 92.5,141C 96.0067,142.33 97.6734,144.83 97.5,148.5 Z"/></g>
<g><path style="opacity:1" fill="#a0e32d" d="M 97.5,148.5 C 104.5,148.5 111.5,148.5 118.5,148.5C 118.444,151.561 119.778,153.728 122.5,155C 159.405,155.17 196.238,155.67 233,156.5C 233.826,176.74 233.659,196.906 232.5,217C 177.263,217.831 122.096,217.664 67,216.5C 66.3333,196.833 66.3333,177.167 67,157.5C 67.5,157 68,156.5 68.5,156C 76.8333,155.667 85.1667,155.333 93.5,155C 96.2224,153.728 97.5557,151.561 97.5,148.5 Z"/></g>
<g><path style="opacity:1" fill="#010101" d="M 55.5,248.5 C 71.5035,248.333 87.5035,248.5 103.5,249C 108.726,253.251 108.726,257.585 103.5,262C 87.5,262.667 71.5,262.667 55.5,262C 51.5413,257.501 51.5413,253.001 55.5,248.5 Z"/></g>
<g><path style="opacity:1" fill="#fde076" d="M 496.5,263.5 C 496.333,294.835 496.5,326.168 497,357.5C 498.542,360.892 501.042,362.892 504.5,363.5C 504.5,369.833 504.5,376.167 504.5,382.5C 500.91,382.544 498.41,384.211 497,387.5C 496.5,423.832 496.333,460.165 496.5,496.5C 457.5,496.5 418.5,496.5 379.5,496.5C 380.593,490.849 381.593,485.182 382.5,479.5C 391.523,483.314 395.69,480.314 395,470.5C 392.203,466.778 388.703,465.778 384.5,467.5C 384.274,464.751 384.607,462.084 385.5,459.5C 394.425,455.904 401.091,449.904 405.5,441.5C 407.772,464.272 420.272,476.938 443,479.5C 468.69,476.136 481.357,461.47 481,435.5C 473.92,411.037 457.754,400.87 432.5,405C 422.569,408.438 414.903,414.605 409.5,423.5C 412.041,406.111 406.708,391.778 393.5,380.5C 405.563,369.691 406.563,357.858 396.5,345C 387.256,338.571 377.59,337.905 367.5,343C 363.85,345.809 361.183,349.309 359.5,353.5C 353.008,341.18 346.008,329.18 338.5,317.5C 354.579,327.978 367.079,324.644 376,307.5C 377.865,286.698 368.365,277.198 347.5,279C 332.431,286.043 328.098,297.21 334.5,312.5C 328.01,305.849 321.01,299.682 313.5,294C 305.531,288.955 296.865,285.788 287.5,284.5C 286.608,278.048 282.941,275.548 276.5,277C 273.156,278.894 271.822,281.727 272.5,285.5C 270.598,284.489 268.598,284.322 266.5,285C 252.235,289.454 239.901,296.954 229.5,307.5C 229.5,292.833 229.5,278.167 229.5,263.5C 318.5,263.5 407.5,263.5 496.5,263.5 Z"/></g>
<g><path style="opacity:1" fill="#070809" d="M 84.5,287.5 C 83.2905,287.932 82.2905,288.599 81.5,289.5C 72.7244,289.941 64.0578,289.441 55.5,288C 51.8849,284.341 51.5515,280.341 54.5,276C 63.7321,274.389 73.0654,274.055 82.5,275C 88.1692,278.496 88.8358,282.662 84.5,287.5 Z"/></g>
<g><path style="opacity:1" fill="#0d0b05" d="M 287.5,284.5 C 285.457,290.725 281.457,292.559 275.5,290C 274.117,288.729 273.117,287.229 272.5,285.5C 271.822,281.727 273.156,278.894 276.5,277C 282.941,275.548 286.608,278.048 287.5,284.5 Z"/></g>
<g><path style="opacity:1" fill="#050401" d="M 338.5,317.5 C 337.136,315.809 335.803,314.142 334.5,312.5C 328.098,297.21 332.431,286.043 347.5,279C 368.365,277.198 377.865,286.698 376,307.5C 367.079,324.644 354.579,327.978 338.5,317.5 Z"/></g>
<g><path style="opacity:1" fill="#060402" d="M 446.5,278.5 C 468.675,277.182 480.175,287.515 481,309.5C 476.401,327.388 464.901,335.221 446.5,333C 431.454,327.418 424.62,316.584 426,300.5C 429.285,289.719 436.119,282.386 446.5,278.5 Z"/></g>
<g><path style="opacity:1" fill="#fccf5a" d="M 272.5,285.5 C 273.117,287.229 274.117,288.729 275.5,290C 281.457,292.559 285.457,290.725 287.5,284.5C 296.865,285.788 305.531,288.955 313.5,294C 321.01,299.682 328.01,305.849 334.5,312.5C 335.803,314.142 337.136,315.809 338.5,317.5C 346.008,329.18 353.008,341.18 359.5,353.5C 355.829,371.331 362.996,381.665 381,384.5C 385.401,383.882 389.568,382.549 393.5,380.5C 406.708,391.778 412.041,406.111 409.5,423.5C 407.022,429.223 405.688,435.223 405.5,441.5C 401.091,449.904 394.425,455.904 385.5,459.5C 384.607,462.084 384.274,464.751 384.5,467.5C 381.338,470.941 380.672,474.941 382.5,479.5C 381.593,485.182 380.593,490.849 379.5,496.5C 372.159,496.666 364.826,496.5 357.5,496C 358.525,493.929 359.358,491.762 360,489.5C 362.121,473.152 364.288,456.819 366.5,440.5C 375.435,442.03 382.269,439.03 387,431.5C 394.014,401.346 382.181,389.346 351.5,395.5C 346.687,375.558 338.853,356.892 328,339.5C 294.66,292.247 262.16,292.914 230.5,341.5C 229.505,330.346 229.172,319.012 229.5,307.5C 239.901,296.954 252.235,289.454 266.5,285C 268.598,284.322 270.598,284.489 272.5,285.5 Z"/></g>
<g><path style="opacity:1" fill="#f7ad35" d="M 350.5,293.5 C 358.656,292.821 362.156,296.488 361,304.5C 355.833,310.092 351.167,309.759 347,303.5C 346.333,301.5 346.333,299.5 347,297.5C 348.376,296.295 349.542,294.962 350.5,293.5 Z"/></g>
<g><path style="opacity:1" fill="#f6ac35" d="M 448.5,293.5 C 463.466,292.939 468.633,299.606 464,313.5C 456.928,320.106 449.928,320.106 443,313.5C 438.682,305.137 440.516,298.47 448.5,293.5 Z"/></g>
<g><path style="opacity:1" fill="#ac9348" d="M 496.5,263.5 C 407.5,263.5 318.5,263.5 229.5,263.5C 229.5,278.167 229.5,292.833 229.5,307.5C 229.172,319.012 229.505,330.346 230.5,341.5C 230.217,342.289 229.717,342.956 229,343.5C 228.5,316.502 228.333,289.502 228.5,262.5C 318.002,262.167 407.335,262.501 496.5,263.5 Z"/></g>
<g><path style="opacity:1" fill="#fcefd8" d="M 157.5,375.5 C 124.5,376.833 91.5,376.833 58.5,375.5C 64.2733,360.616 72.1066,346.949 82,334.5C 99.3007,314.561 116.634,314.561 134,334.5C 143.893,346.949 151.727,360.616 157.5,375.5 Z"/></g>
<g><path style="opacity:1" fill="#fcefd8" d="M 329.5,376.5 C 296.329,376.832 263.329,376.498 230.5,375.5C 235.592,361.312 242.759,348.312 252,336.5C 256.575,331.254 261.742,326.754 267.5,323C 276.339,318.149 285.006,318.483 293.5,324C 304.125,331.961 312.625,341.795 319,353.5C 323.06,360.95 326.56,368.617 329.5,376.5 Z"/></g>
<g><path style="opacity:1" fill="#060402" d="M 393.5,380.5 C 389.568,382.549 385.401,383.882 381,384.5C 362.996,381.665 355.829,371.331 359.5,353.5C 361.183,349.309 363.85,345.809 367.5,343C 377.59,337.905 387.256,338.571 396.5,345C 406.563,357.858 405.563,369.691 393.5,380.5 Z"/></g>
<g><path style="opacity:1" fill="#f0a834" d="M 378.5,353.5 C 385.857,353.684 389.024,357.351 388,364.5C 383.781,370.742 379.115,371.075 374,365.5C 372.309,360.131 373.809,356.131 378.5,353.5 Z"/></g>
<g><path style="opacity:1" fill="#0e0c06" d="M 461.5,361.5 C 467.766,360.117 471.433,362.45 472.5,368.5C 470.171,377.207 465.671,378.54 459,372.5C 456.826,368.193 457.659,364.526 461.5,361.5 Z"/></g>
<g><path style="opacity:1" fill="#f8e1bf" d="M 58.5,375.5 C 91.5,376.833 124.5,376.833 157.5,375.5C 160.602,381.802 162.936,388.469 164.5,395.5C 126.833,395.5 89.1667,395.5 51.5,395.5C 53.0644,388.469 55.3978,381.802 58.5,375.5 Z"/></g>
<g><path style="opacity:1" fill="#f8e1bf" d="M 230.5,375.5 C 263.329,376.498 296.329,376.832 329.5,376.5C 332.198,382.243 334.531,388.243 336.5,394.5C 326.851,395.332 317.184,395.832 307.5,396C 305.536,397.451 304.203,399.284 303.5,401.5C 296.922,402.46 290.255,402.793 283.5,402.5C 282.747,399.148 280.747,396.981 277.5,396C 259.503,395.5 241.503,395.333 223.5,395.5C 224.745,388.366 227.078,381.699 230.5,375.5 Z"/></g>
<g><path style="opacity:1" fill="#f5a86c" d="M 303.5,401.5 C 302.822,405.273 304.156,408.106 307.5,410C 329.497,410.5 351.497,410.667 373.5,410.5C 373.5,415.5 373.5,420.5 373.5,425.5C 253.833,425.5 134.167,425.5 14.5,425.5C 14.5,420.5 14.5,415.5 14.5,410.5C 102.167,410.667 189.834,410.5 277.5,410C 281.037,408.772 283.037,406.272 283.5,402.5C 290.255,402.793 296.922,402.46 303.5,401.5 Z"/></g>
<g><path style="opacity:1" fill="#050402" d="M 405.5,441.5 C 405.688,435.223 407.022,429.223 409.5,423.5C 414.903,414.605 422.569,408.438 432.5,405C 457.754,400.87 473.92,411.037 481,435.5C 481.357,461.47 468.69,476.136 443,479.5C 420.272,476.938 407.772,464.272 405.5,441.5 Z"/></g>
<g><path style="opacity:1" fill="#f9ae36" d="M 437.5,418.5 C 456.186,417.36 465.686,426.027 466,444.5C 462.373,458.736 453.206,465.236 438.5,464C 422.653,457.806 417.487,446.639 423,430.5C 426.541,424.78 431.374,420.78 437.5,418.5 Z"/></g>
<g><path style="opacity:1" fill="#a9703f" d="M 179.5,443.5 C 156.009,442.167 132.176,441.5 108,441.5C 83.8239,441.5 59.9905,442.167 36.5,443.5C 35.596,442.791 35.2627,441.791 35.5,440.5C 83.8333,440.5 132.167,440.5 180.5,440.5C 180.737,441.791 180.404,442.791 179.5,443.5 Z"/></g>
<g><path style="opacity:1" fill="#ab7140" d="M 351.5,441.5 C 303.488,440.838 255.822,441.505 208.5,443.5C 207.596,442.791 207.263,441.791 207.5,440.5C 255.67,440.168 303.67,440.501 351.5,441.5 Z"/></g>
<g><path style="opacity:1" fill="#e99a57" d="M 179.5,443.5 C 179,450.706 178,457.706 176.5,464.5C 130.833,463.167 85.1667,463.167 39.5,464.5C 37.8652,457.724 36.8652,450.724 36.5,443.5C 59.9905,442.167 83.8239,441.5 108,441.5C 132.176,441.5 156.009,442.167 179.5,443.5 Z"/></g>
<g><path style="opacity:1" fill="#e99a57" d="M 351.5,441.5 C 350.686,448.863 349.686,456.197 348.5,463.5C 302.833,463.5 257.167,463.5 211.5,463.5C 211.5,464.5 211.5,465.5 211.5,466.5C 210.428,458.983 209.428,451.316 208.5,443.5C 255.822,441.505 303.488,440.838 351.5,441.5 Z"/></g>
<g><path style="opacity:1" fill="#f5a86b" d="M 176.5,464.5 C 175.662,472.536 174.495,480.536 173,488.5C 171.542,490.96 169.709,493.127 167.5,495C 147.382,496.143 127.216,496.643 107,496.5C 88.1667,496.333 69.3333,496.167 50.5,496C 47.3333,494.167 44.8333,491.667 43,488.5C 41.1342,480.606 39.9675,472.606 39.5,464.5C 85.1667,463.167 130.833,463.167 176.5,464.5 Z"/></g>
<g><path style="opacity:1" fill="#f5a86b" d="M 348.5,463.5 C 347.382,471.83 346.215,480.163 345,488.5C 343.01,492.49 339.843,494.99 335.5,496C 297.833,496.667 260.167,496.667 222.5,496C 217.948,494.412 215.115,491.245 214,486.5C 213.492,479.779 212.659,473.112 211.5,466.5C 211.5,465.5 211.5,464.5 211.5,463.5C 257.167,463.5 302.833,463.5 348.5,463.5 Z"/></g>
<g><path style="opacity:1" fill="#080703" d="M 382.5,479.5 C 380.672,474.941 381.338,470.941 384.5,467.5C 388.703,465.778 392.203,466.778 395,470.5C 395.69,480.314 391.523,483.314 382.5,479.5 Z"/></g>
</svg>
