<?xml version="1.0" encoding="UTF-8"?>
<!DOCTYPE svg PUBLIC "-//W3C//DTD SVG 1.1//EN" "http://www.w3.org/Graphics/SVG/1.1/DTD/svg11.dtd">
<svg xmlns="http://www.w3.org/2000/svg" version="1.1" width="512px" height="512px" style="shape-rendering:geometricPrecision; text-rendering:geometricPrecision; image-rendering:optimizeQuality; fill-rule:evenodd; clip-rule:evenodd" xmlns:xlink="http://www.w3.org/1999/xlink">
<g><path style="opacity:0.988" fill="#010000" d="M 267.5,79.5 C 301.466,76.224 325.632,89.8907 340,120.5C 341,123.833 342,127.167 343,130.5C 359.746,142.087 363.913,157.254 355.5,176C 357.333,176.5 358.5,177.667 359,179.5C 359.667,182.5 359.667,185.5 359,188.5C 352.029,210.723 345.529,233.057 339.5,255.5C 357.845,255.833 376.179,255.5 394.5,254.5C 388.65,239.789 390.984,226.622 401.5,215C 405.387,211.889 409.72,209.556 414.5,208C 413.126,202.583 410.459,197.917 406.5,194C 401.858,192.874 397.358,191.374 393,189.5C 390.891,185.219 391.058,181.052 393.5,177C 408.854,173.118 420.021,178.285 427,192.5C 429.124,197.663 430.624,202.996 431.5,208.5C 441.374,210.693 448.541,216.36 453,225.5C 456.454,235.237 456.287,244.903 452.5,254.5C 465.487,255.333 478.487,255.833 491.5,256C 493.333,256.5 494.5,257.667 495,259.5C 495.667,315.5 495.667,371.5 495,427.5C 494.5,429.333 493.333,430.5 491.5,431C 347.833,431.667 204.167,431.667 60.5,431C 53.0908,428.592 47.9241,423.758 45,416.5C 41.3389,402.189 37.8389,387.856 34.5,373.5C 26.829,371.665 20.9957,367.332 17,360.5C 11.7916,339.001 16.4583,320.001 31,303.5C 31.9241,285.483 39.7574,271.316 54.5,261C 77.9822,246.06 103.649,237.06 131.5,234C 158.919,230.357 186.252,230.857 213.5,235.5C 209.472,219.724 204.972,204.057 200,188.5C 199.333,185.5 199.333,182.5 200,179.5C 200.5,177.667 201.667,176.5 203.5,176C 195.087,157.254 199.254,142.087 216,130.5C 223.124,103.208 240.291,86.2082 267.5,79.5 Z"/></g>
<g><path style="opacity:1" fill="#eb8787" d="M 270.5,95.5 C 302.727,93.9001 321.893,108.9 328,140.5C 330.12,143.43 332.953,145.263 336.5,146C 345.743,154.98 345.743,163.98 336.5,173C 334.913,173.862 333.246,174.529 331.5,175C 296.5,175.667 261.5,175.667 226.5,175C 217.576,170.985 214.076,164.152 216,154.5C 218.256,149.243 222.09,145.743 227.5,144C 228.667,142.833 229.833,141.667 231,140.5C 234.824,117.183 247.99,102.183 270.5,95.5 Z"/></g>
<g><path style="opacity:1" fill="#060303" d="M 276.5,111.5 C 298.89,112.058 310.39,123.391 311,145.5C 310.018,149.624 307.352,151.624 303,151.5C 301.373,151.375 299.873,150.875 298.5,150C 296.392,144.986 294.559,139.82 293,134.5C 288.809,129.155 283.309,126.655 276.5,127C 269.889,121.798 269.889,116.631 276.5,111.5 Z"/></g>
<g><path style="opacity:1" fill="#a26e57" d="M 218.5,191.5 C 259.172,191.167 299.839,191.5 340.5,192.5C 338.695,197.389 337.361,202.389 336.5,207.5C 315.741,207.023 295.075,207.523 274.5,209C 268.671,220.832 263.504,232.999 259,245.5C 258.653,247.18 257.653,248.18 256,248.5C 248.637,245.601 241.137,243.101 233.5,241C 231.33,235.322 229.663,229.488 228.5,223.5C 233.93,223.839 239.264,223.339 244.5,222C 248.379,217.631 248.379,213.298 244.5,209C 237.254,207.609 229.921,207.109 222.5,207.5C 221.481,202.089 220.147,196.756 218.5,191.5 Z"/></g>
<g><path style="opacity:1" fill="#a16d56" d="M 284.5,223.5 C 289.844,223.334 295.177,223.501 300.5,224C 298.439,228.849 296.772,233.849 295.5,239C 297.574,247.888 302.407,249.721 310,244.5C 312.472,237.583 314.639,230.583 316.5,223.5C 321.167,223.5 325.833,223.5 330.5,223.5C 327.969,233.955 324.969,244.289 321.5,254.5C 305.167,255.833 288.833,255.833 272.5,254.5C 276.791,244.257 280.791,233.923 284.5,223.5 Z"/></g>
<g><path style="opacity:1" fill="#c3302d" d="M 418.5,223.5 C 434.667,223.157 441.167,230.824 438,246.5C 432.039,255.283 424.206,257.449 414.5,253C 407.203,246.662 405.703,239.162 410,230.5C 412.441,227.546 415.275,225.213 418.5,223.5 Z"/></g>
<g><path style="opacity:1" fill="#fdb431" d="M 149.5,247.5 C 185.776,245.848 220.776,251.682 254.5,265C 269.631,271.132 280.464,281.632 287,296.5C 287.173,301.584 287.839,306.584 289,311.5C 300.858,323.073 305.524,337.073 303,353.5C 296.484,359.004 288.984,360.837 280.5,359C 277.241,357.789 274.408,355.956 272,353.5C 272.122,347.291 269.122,343.957 263,343.5C 257.503,344.467 254.836,347.8 255,353.5C 248.484,359.004 240.984,360.837 232.5,359C 229.241,357.789 226.408,355.956 224,353.5C 224.122,347.291 221.122,343.957 215,343.5C 209.503,344.467 206.836,347.8 207,353.5C 200.484,359.004 192.984,360.837 184.5,359C 178.063,357.235 174.563,353.068 174,346.5C 165.525,341.236 160.525,343.57 159,353.5C 152.484,359.004 144.984,360.837 136.5,359C 130.063,357.235 126.563,353.068 126,346.5C 117.525,341.236 112.525,343.57 111,353.5C 104.484,359.004 96.9843,360.837 88.5,359C 82.0635,357.235 78.5635,353.068 78,346.5C 69.5253,341.236 64.5253,343.57 63,353.5C 56.4843,359.004 48.9843,360.837 40.5,359C 32.7532,357.091 29.7532,352.257 31.5,344.5C 31.9585,331.583 36.7918,320.583 46,311.5C 45.7843,296.432 51.6176,284.265 63.5,275C 75.1053,266.865 87.7719,260.865 101.5,257C 117.424,252.715 133.424,249.548 149.5,247.5 Z"/></g>
<g><path style="opacity:1" fill="#070401" d="M 140.5,263.5 C 151.167,264.003 153.833,268.836 148.5,278C 138.726,281.369 128.893,284.536 119,287.5C 114.047,286.878 111.547,284.045 111.5,279C 111.703,276.594 112.703,274.594 114.5,273C 123.303,269.902 131.97,266.735 140.5,263.5 Z"/></g>
<g><path style="opacity:1" fill="#070401" d="M 188.5,263.5 C 199.342,265.946 210.009,269.113 220.5,273C 223.848,276.419 224.348,280.252 222,284.5C 220.033,286.27 217.7,287.27 215,287.5C 205.366,284.733 195.866,281.566 186.5,278C 182.062,272.373 182.729,267.54 188.5,263.5 Z"/></g>
<g><path style="opacity:1" fill="#fec8c8" d="M 291.5,272.5 C 353.998,271.501 416.664,271.168 479.5,271.5C 479.5,319.5 479.5,367.5 479.5,415.5C 474.167,415.5 468.833,415.5 463.5,415.5C 463.667,374.499 463.5,333.499 463,292.5C 462.535,291.069 461.701,289.903 460.5,289C 407.225,287.679 353.891,287.013 300.5,287C 298.114,281.716 295.114,276.882 291.5,272.5 Z"/></g>
<g><path style="opacity:1" fill="#060401" d="M 164.5,279.5 C 169.152,278.984 172.652,280.651 175,284.5C 175.667,291.5 175.667,298.5 175,305.5C 174.018,309.624 171.352,311.624 167,311.5C 163.112,311.277 160.779,309.277 160,305.5C 159.333,298.5 159.333,291.5 160,284.5C 161.025,282.313 162.525,280.646 164.5,279.5 Z"/></g>
<g><path style="opacity:1" fill="#ec6e6c" d="M 303.5,304.5 C 351.33,303.501 399.33,303.168 447.5,303.5C 447.5,311.5 447.5,319.5 447.5,327.5C 403.833,327.5 360.167,327.5 316.5,327.5C 314.237,318.593 309.903,310.926 303.5,304.5 Z"/></g>
<g><path style="opacity:1" fill="#ea413e" d="M 319.5,343.5 C 362.167,343.5 404.833,343.5 447.5,343.5C 447.5,354.167 447.5,364.833 447.5,375.5C 398.162,375.833 348.829,375.5 299.5,374.5C 306.016,371.832 311.516,367.832 316,362.5C 319.082,356.554 320.249,350.221 319.5,343.5 Z"/></g>
<g><path style="opacity:1" fill="#a26e57" d="M 70.5,367.5 C 86.8064,378.163 103.14,378.163 119.5,367.5C 135.472,378.126 151.472,378.126 167.5,367.5C 183.472,378.126 199.472,378.126 215.5,367.5C 231.472,378.126 247.472,378.126 263.5,367.5C 268.897,372.365 275.23,374.698 282.5,374.5C 280.145,386.921 277.312,399.255 274,411.5C 272.786,413.049 271.286,414.215 269.5,415C 201.167,415.667 132.833,415.667 64.5,415C 63.3333,413.833 62.1667,412.667 61,411.5C 57.6883,399.255 54.855,386.921 52.5,374.5C 58.2184,374.48 63.5517,372.98 68.5,370C 69.3805,369.292 70.0472,368.458 70.5,367.5 Z"/></g>
<g><path style="opacity:1" fill="#ec6e6c" d="M 295.5,391.5 C 346.167,391.5 396.833,391.5 447.5,391.5C 447.5,399.5 447.5,407.5 447.5,415.5C 394.829,415.833 342.162,415.5 289.5,414.5C 291.659,406.864 293.659,399.197 295.5,391.5 Z"/></g>
</svg>
