<?xml version="1.0" encoding="UTF-8"?>
<!DOCTYPE svg PUBLIC "-//W3C//DTD SVG 1.1//EN" "http://www.w3.org/Graphics/SVG/1.1/DTD/svg11.dtd">
<svg xmlns="http://www.w3.org/2000/svg" version="1.1" width="512px" height="512px" style="shape-rendering:geometricPrecision; text-rendering:geometricPrecision; image-rendering:optimizeQuality; fill-rule:evenodd; clip-rule:evenodd" xmlns:xlink="http://www.w3.org/1999/xlink">
<g><path style="opacity:0.989" fill="#010100" d="M 146.5,-0.5 C 216.5,-0.5 286.5,-0.5 356.5,-0.5C 371.166,5.90391 377.499,17.2372 375.5,33.5C 390.765,34.9317 399.265,43.2651 401,58.5C 401.899,68.8934 401.566,79.2267 400,89.5C 398.833,90.6667 397.667,91.8333 396.5,93C 392.167,93.3333 387.833,93.6667 383.5,94C 379.593,123.92 375.927,153.92 372.5,184C 372.833,185.167 373.167,186.333 373.5,187.5C 380.555,190.546 383.888,195.88 383.5,203.5C 396.561,203.078 409.561,203.578 422.5,205C 424.049,206.214 425.215,207.714 426,209.5C 426.5,216.158 426.666,222.825 426.5,229.5C 436.839,229.334 447.172,229.5 457.5,230C 463.333,231.833 467.167,235.667 469,241.5C 469.5,251.828 469.666,262.161 469.5,272.5C 474.511,272.334 479.511,272.501 484.5,273C 491.639,275.943 494.972,281.276 494.5,289C 484.585,357.238 474.252,425.405 463.5,493.5C 476.837,493.333 490.171,493.5 503.5,494C 506.778,494.451 509.444,495.951 511.5,498.5C 511.5,501.5 511.5,504.5 511.5,507.5C 509.833,508.5 508.5,509.833 507.5,511.5C 339.5,511.5 171.5,511.5 3.5,511.5C 2.5,509.833 1.16667,508.5 -0.5,507.5C -0.5,504.5 -0.5,501.5 -0.5,498.5C 1.55577,495.951 4.22244,494.451 7.5,494C 15.8333,493.667 24.1667,493.333 32.5,493C 24.5635,484.294 19.3968,474.128 17,462.5C 16.3333,448.5 16.3333,434.5 17,420.5C 21.9304,410.335 30.0971,406.335 41.5,408.5C 41.6664,399.827 41.4998,391.16 41,382.5C 20.8872,373.942 13.2205,358.942 18,337.5C 22.5106,326.679 30.3439,319.679 41.5,316.5C 41.5,307.833 41.5,299.167 41.5,290.5C 30.3928,292.196 22.2261,288.196 17,278.5C 12.597,231.453 31.4303,197.619 73.5,177C 91.301,170.982 109.634,168.149 128.5,168.5C 125.136,143.557 122.136,118.557 119.5,93.5C 115.154,93.6657 110.821,93.499 106.5,93C 104.448,92.0701 102.948,90.5701 102,88.5C 101.333,76.8333 101.333,65.1667 102,53.5C 105.524,40.488 114.024,33.8213 127.5,33.5C 124.668,16.7411 131.001,5.40781 146.5,-0.5 Z"/></g>
<g><path style="opacity:1" fill="#f2f3f3" d="M 338.5,16.5 C 340.345,21.9452 341.012,27.6118 340.5,33.5C 275.167,33.5 209.833,33.5 144.5,33.5C 144.334,29.4862 144.501,25.4862 145,21.5C 146.5,20 148,18.5 149.5,17C 212.499,16.5 275.499,16.3333 338.5,16.5 Z"/></g>
<g><path style="opacity:1" fill="#cdd6da" d="M 338.5,16.5 C 343.179,16.3342 347.845,16.5008 352.5,17C 354.57,17.9476 356.07,19.4476 357,21.5C 357.499,25.4862 357.666,29.4862 357.5,33.5C 351.833,33.5 346.167,33.5 340.5,33.5C 341.012,27.6118 340.345,21.9452 338.5,16.5 Z"/></g>
<g><path style="opacity:1" fill="#f3f3f3" d="M 124.5,51.5 C 204.501,51.3333 284.501,51.5 364.5,52C 365.126,52.7504 365.626,53.5838 366,54.5C 366.5,61.4921 366.666,68.4921 366.5,75.5C 284.167,75.5 201.833,75.5 119.5,75.5C 119.5,69.5 119.5,63.5 119.5,57.5C 119.762,54.3013 121.428,52.3013 124.5,51.5 Z"/></g>
<g><path style="opacity:1" fill="#cbd1d4" d="M 124.5,51.5 C 208.332,50.3343 292.332,50.1677 376.5,51C 379.196,51.6898 381.363,53.1898 383,55.5C 383.5,62.1583 383.666,68.825 383.5,75.5C 377.833,75.5 372.167,75.5 366.5,75.5C 366.666,68.4921 366.5,61.4921 366,54.5C 365.626,53.5838 365.126,52.7504 364.5,52C 284.501,51.5 204.501,51.3333 124.5,51.5 Z"/></g>
<g><path style="opacity:1" fill="#bfbfc0" d="M 119.5,57.5 C 119.5,63.5 119.5,69.5 119.5,75.5C 201.833,75.5 284.167,75.5 366.5,75.5C 372.167,75.5 377.833,75.5 383.5,75.5C 295.335,76.4994 207.002,76.8327 118.5,76.5C 118.177,69.9779 118.51,63.6446 119.5,57.5 Z"/></g>
<g><path style="opacity:1" fill="#2195f2" d="M 347.5,93.5 C 343.866,124.802 340.533,156.135 337.5,187.5C 335.436,187.687 333.436,188.187 331.5,189C 329.983,190.685 328.316,192.185 326.5,193.5C 309.722,179.57 290.389,171.904 268.5,170.5C 228.003,169.501 187.337,169.168 146.5,169.5C 146.737,168.209 146.404,167.209 145.5,166.5C 142.714,142.183 140.047,117.849 137.5,93.5C 207.5,93.5 277.5,93.5 347.5,93.5 Z"/></g>
<g><path style="opacity:1" fill="#1465be" d="M 347.5,93.5 C 353.5,93.5 359.5,93.5 365.5,93.5C 361.834,124.83 358.167,156.163 354.5,187.5C 348.833,187.5 343.167,187.5 337.5,187.5C 340.533,156.135 343.866,124.802 347.5,93.5 Z"/></g>
<g><path style="opacity:1" fill="#16629f" d="M 145.5,166.5 C 146.404,167.209 146.737,168.209 146.5,169.5C 187.337,169.168 228.003,169.501 268.5,170.5C 227.5,170.5 186.5,170.5 145.5,170.5C 145.5,169.167 145.5,167.833 145.5,166.5 Z"/></g>
<g><path style="opacity:1" fill="#fd9701" d="M 242.5,187.5 C 258.998,190.116 273.998,196.449 287.5,206.5C 285.107,208.736 283.273,211.403 282,214.5C 281.5,222.493 281.334,230.493 281.5,238.5C 270.828,238.333 260.161,238.5 249.5,239C 244.333,240.833 240.833,244.333 239,249.5C 238.5,257.159 238.334,264.826 238.5,272.5C 170.167,272.5 101.833,272.5 33.5,272.5C 32.0358,235.234 48.0358,208.734 81.5,193C 87.6297,190.551 93.963,188.884 100.5,188C 147.832,187.5 195.165,187.333 242.5,187.5 Z"/></g>
<g><path style="opacity:1" fill="#f07900" d="M 242.5,187.5 C 255.202,187.208 267.869,187.708 280.5,189C 291.999,191.715 302.332,196.715 311.5,204C 303.338,203.971 295.338,204.804 287.5,206.5C 273.998,196.449 258.998,190.116 242.5,187.5 Z"/></g>
<g><path style="opacity:1" fill="#a77501" d="M 341.5,204.5 C 341.5,251.167 341.5,297.833 341.5,344.5C 342.791,344.263 343.791,344.596 344.5,345.5C 343.167,345.5 341.833,345.5 340.5,345.5C 340.168,298.33 340.501,251.33 341.5,204.5 Z"/></g>
<g><path style="opacity:1" fill="#feb201" d="M 341.5,204.5 C 349.833,204.5 358.167,204.5 366.5,204.5C 366.5,251.833 366.5,299.167 366.5,346.5C 359.11,346.764 351.777,346.43 344.5,345.5C 343.791,344.596 342.791,344.263 341.5,344.5C 341.5,297.833 341.5,251.167 341.5,204.5 Z"/></g>
<g><path style="opacity:1" fill="#080400" d="M 108.5,212.5 C 114.072,211.99 119.405,212.823 124.5,215C 128.532,220.236 127.865,224.902 122.5,229C 117.167,229.667 111.833,229.667 106.5,229C 100.725,222.701 101.392,217.201 108.5,212.5 Z"/></g>
<g><path style="opacity:1" fill="#0a0500" d="M 210.5,212.5 C 215.599,212.175 220.599,212.675 225.5,214C 229.753,217.42 230.587,221.587 228,226.5C 227.097,227.701 225.931,228.535 224.5,229C 218.719,229.903 213.053,229.57 207.5,228C 202.753,221.637 203.753,216.47 210.5,212.5 Z"/></g>
<g><path style="opacity:1" fill="#fcd733" d="M 323.5,221.5 C 323.832,261.004 323.499,300.337 322.5,339.5C 313.598,335.794 305.765,330.461 299,323.5C 298.5,289.502 298.333,255.502 298.5,221.5C 306.833,221.5 315.167,221.5 323.5,221.5 Z"/></g>
<g><path style="opacity:1" fill="#453b0e" d="M 323.5,221.5 C 324.831,261.002 324.831,300.669 323.5,340.5C 322.893,340.376 322.56,340.043 322.5,339.5C 323.499,300.337 323.832,261.004 323.5,221.5 Z"/></g>
<g><path style="opacity:1" fill="#f8d433" d="M 383.5,221.5 C 392.167,221.5 400.833,221.5 409.5,221.5C 409.667,257.835 409.5,294.168 409,330.5C 401.555,336.706 393.055,340.706 383.5,342.5C 383.5,302.167 383.5,261.833 383.5,221.5 Z"/></g>
<g><path style="opacity:1" fill="#050200" d="M 157.5,230.5 C 163.176,230.334 168.843,230.501 174.5,231C 178.816,234.385 179.65,238.552 177,243.5C 176.097,244.701 174.931,245.535 173.5,246C 168.167,246.667 162.833,246.667 157.5,246C 152.197,240.76 152.197,235.594 157.5,230.5 Z"/></g>
<g><path style="opacity:1" fill="#604300" d="M 451.5,247.5 C 443.167,247.5 434.833,247.5 426.5,247.5C 426.169,268.34 426.503,289.007 427.5,309.5C 427.44,310.043 427.107,310.376 426.5,310.5C 425.5,289.177 425.167,267.844 425.5,246.5C 434.349,246.174 443.016,246.507 451.5,247.5 Z"/></g>
<g><path style="opacity:1" fill="#fdb100" d="M 451.5,247.5 C 451.832,257.855 451.499,268.188 450.5,278.5C 445.072,281.463 440.572,285.463 437,290.5C 433.355,296.609 430.188,302.943 427.5,309.5C 426.503,289.007 426.169,268.34 426.5,247.5C 434.833,247.5 443.167,247.5 451.5,247.5 Z"/></g>
<g><path style="opacity:1" fill="#fdb101" d="M 280.5,255.5 C 280.829,268.011 280.495,280.345 279.5,292.5C 274.197,283.536 266.53,277.536 256.5,274.5C 255.504,268.202 255.17,261.868 255.5,255.5C 263.833,255.5 272.167,255.5 280.5,255.5 Z"/></g>
<g><path style="opacity:1" fill="#956800" d="M 280.5,255.5 C 281.825,268.006 281.825,280.673 280.5,293.5C 279.893,293.376 279.56,293.043 279.5,292.5C 280.495,280.345 280.829,268.011 280.5,255.5 Z"/></g>
<g><path style="opacity:1" fill="#fce839" d="M 224.5,310.5 C 224.5,311.833 224.5,313.167 224.5,314.5C 215.318,314.173 206.318,314.507 197.5,315.5C 194.072,315.547 191.072,316.713 188.5,319C 185.297,322.371 181.964,325.538 178.5,328.5C 175.482,328.335 172.482,328.502 169.5,329C 159.913,339.091 149.913,348.591 139.5,357.5C 126.035,344.535 112.701,331.369 99.5,318C 97.6079,317.027 95.6079,316.36 93.5,316C 82.1716,315.5 70.8382,315.333 59.5,315.5C 59.5,306.833 59.5,298.167 59.5,289.5C 113.501,289.333 167.501,289.5 221.5,290C 223.09,296.712 224.09,303.546 224.5,310.5 Z"/></g>
<g><path style="opacity:1" fill="#f24234" d="M 458.5,293.5 C 448.902,360.344 438.902,427.344 428.5,494.5C 375.5,494.5 322.5,494.5 269.5,494.5C 259.984,426.375 249.651,358.375 238.5,290.5C 249.356,288.34 258.189,291.674 265,300.5C 286.213,348.652 323.046,369.152 375.5,362C 411.698,355.8 436.532,335.633 450,301.5C 452.047,297.952 454.88,295.285 458.5,293.5 Z"/></g>
<g><path style="opacity:1" fill="#c42827" d="M 428.5,494.5 C 438.902,427.344 448.902,360.344 458.5,293.5C 463.915,290.078 469.915,288.745 476.5,289.5C 466.294,357.859 455.961,426.193 445.5,494.5C 439.833,494.5 434.167,494.5 428.5,494.5 Z"/></g>
<g><path style="opacity:1" fill="#b2a428" d="M 224.5,310.5 C 225.451,311.919 225.784,313.585 225.5,315.5C 216.167,315.5 206.833,315.5 197.5,315.5C 206.318,314.507 215.318,314.173 224.5,314.5C 224.5,313.167 224.5,311.833 224.5,310.5 Z"/></g>
<g><path style="opacity:1" fill="#f7d332" d="M 178.5,328.5 C 167.702,339.798 156.702,350.965 145.5,362C 142.879,361.573 140.879,360.073 139.5,357.5C 149.913,348.591 159.913,339.091 169.5,329C 172.482,328.502 175.482,328.335 178.5,328.5 Z"/></g>
<g><path style="opacity:1" fill="#785447" d="M 45.5,332.5 C 60.5037,332.333 75.5037,332.5 90.5,333C 101.5,344 112.5,355 123.5,366C 97.1044,366.973 70.771,366.64 44.5,365C 34.3855,359.38 31.5521,351.214 36,340.5C 38.772,337.217 41.9386,334.55 45.5,332.5 Z"/></g>
<g><path style="opacity:1" fill="#775447" d="M 198.5,332.5 C 208.5,332.5 218.5,332.5 228.5,332.5C 229.84,343.884 231.506,355.217 233.5,366.5C 210.831,366.667 188.164,366.5 165.5,366C 176.702,354.965 187.702,343.798 198.5,332.5 Z"/></g>
<g><path style="opacity:1" fill="#4aac4e" d="M 59.5,383.5 C 118.5,383.5 177.5,383.5 236.5,383.5C 239.056,401.84 241.723,420.173 244.5,438.5C 244.169,442.517 242.169,445.517 238.5,447.5C 227.014,436.514 215.681,425.348 204.5,414C 202.112,412.139 199.446,410.806 196.5,410C 150.835,409.5 105.168,409.333 59.5,409.5C 59.5,400.833 59.5,392.167 59.5,383.5 Z"/></g>
<g><path style="opacity:1" fill="#050201" d="M 345.5,383.5 C 372.112,382.04 389.945,393.706 399,418.5C 403.426,450.498 389.926,469.998 358.5,477C 330.037,477.205 312.87,463.372 307,435.5C 306.675,408.337 319.508,391.003 345.5,383.5 Z"/></g>
<g><path style="opacity:1" fill="#f2f2f2" d="M 347.5,401.5 C 350.518,401.335 353.518,401.502 356.5,402C 365.969,414.006 368.802,427.506 365,442.5C 363.346,448.643 360.512,454.143 356.5,459C 353.518,459.498 350.518,459.665 347.5,459.5C 332.115,455.092 324.115,444.759 323.5,428.5C 325.761,414.261 333.761,405.261 347.5,401.5 Z"/></g>
<g><path style="opacity:1" fill="#cad2d6" d="M 347.5,401.5 C 363.663,399.004 375.163,405.337 382,420.5C 386.278,440.449 378.778,453.615 359.5,460C 355.311,460.812 351.311,460.645 347.5,459.5C 350.518,459.665 353.518,459.498 356.5,459C 360.512,454.143 363.346,448.643 365,442.5C 368.802,427.506 365.969,414.006 356.5,402C 353.518,401.502 350.518,401.335 347.5,401.5 Z"/></g>
<g><path style="opacity:1" fill="#fd9701" d="M 33.5,426.5 C 86.8344,426.333 140.168,426.5 193.5,427C 207.167,440.667 220.833,454.333 234.5,468C 237.167,468.667 239.833,468.667 242.5,468C 244.017,466.315 245.684,464.815 247.5,463.5C 250.188,473.649 251.855,483.983 252.5,494.5C 191.166,494.667 129.832,494.5 68.5,494C 48.0747,488.578 36.5747,475.411 34,454.5C 33.5002,445.173 33.3335,435.839 33.5,426.5 Z"/></g>
</svg>
