<?xml version="1.0" standalone="no"?>
<!DOCTYPE svg PUBLIC "-//W3C//DTD SVG 20010904//EN"
 "http://www.w3.org/TR/2001/REC-SVG-20010904/DTD/svg10.dtd">
<svg version="1.0" xmlns="http://www.w3.org/2000/svg"
 width="512.000000pt" height="511.000000pt" viewBox="0 0 512.000000 511.000000"
 preserveAspectRatio="xMidYMid meet">

<g transform="translate(0.000000,511.000000) scale(0.100000,-0.100000)"
fill="#000000" stroke="none">
<path d="M765 5067 c-75 -43 -108 -152 -69 -230 9 -18 202 -219 430 -447 228
-229 414 -421 414 -428 0 -6 -13 -26 -30 -44 l-29 -33 -453 453 c-401 400
-457 452 -484 452 -39 0 -74 -36 -74 -76 0 -25 62 -91 452 -481 l452 -452 -29
-31 -29 -31 -451 450 c-247 247 -460 452 -471 455 -44 13 -94 -31 -94 -82 0
-9 205 -222 455 -472 l455 -456 -28 -27 c-15 -15 -37 -27 -48 -27 -12 0 -171
152 -434 415 -446 446 -455 454 -541 442 -57 -8 -113 -48 -138 -99 -25 -53
-26 -100 -3 -150 15 -32 768 -937 892 -1072 63 -69 172 -137 271 -171 80 -27
96 -29 334 -36 336 -10 371 -22 518 -177 45 -47 130 -136 190 -196 59 -60 107
-113 107 -117 0 -4 -350 -367 -777 -806 -943 -969 -927 -952 -952 -1001 -31
-60 -44 -156 -32 -230 45 -281 341 -437 593 -313 78 39 145 98 173 151 20 39
1308 1645 1369 1708 l22 22 106 -102 c58 -57 431 -461 828 -898 397 -437 738
-810 759 -828 111 -102 287 -123 436 -53 230 107 308 419 153 608 -24 29 -448
421 -943 871 -495 451 -913 833 -929 850 -21 23 -26 35 -19 44 149 192 394
486 436 525 100 90 151 106 417 123 212 14 282 29 398 86 135 65 211 145 384
399 216 318 269 422 324 635 51 195 55 499 9 630 -32 91 -120 175 -211 200
-59 17 -324 8 -424 -14 -208 -46 -399 -132 -557 -251 -111 -83 -457 -391 -496
-441 -48 -60 -120 -210 -139 -284 -9 -40 -12 -102 -8 -225 9 -316 6 -374 -18
-437 -31 -76 -48 -97 -313 -370 l-230 -238 -42 49 c-23 27 -101 102 -173 167
-146 133 -181 171 -212 229 -41 79 -45 107 -52 360 -6 218 -10 259 -30 320
-30 95 -84 197 -136 254 -50 56 -1061 908 -1107 934 -45 24 -122 22 -172 -6z"/>
</g>
</svg>
