<?xml version="1.0" standalone="no"?>
<!DOCTYPE svg PUBLIC "-//W3C//DTD SVG 20010904//EN"
 "http://www.w3.org/TR/2001/REC-SVG-20010904/DTD/svg10.dtd">
<svg version="1.0" xmlns="http://www.w3.org/2000/svg"
 width="512.000000pt" height="511.000000pt" viewBox="0 0 512.000000 511.000000"
 preserveAspectRatio="xMidYMid meet">

<g transform="translate(0.000000,511.000000) scale(0.100000,-0.100000)"
fill="#000000" stroke="none">
<path d="M765 5067 c-75 -43 -108 -152 -69 -230 9 -18 202 -219 430 -447 228
-229 414 -421 414 -428 0 -6 -13 -26 -30 -44 l-29 -33 -453 453 c-401 400
-457 452 -484 452 -39 0 -74 -36 -74 -76 0 -25 62 -91 452 -481 l452 -452 -29
-31 -29 -31 -451 450 c-247 247 -460 452 -471 455 -44 13 -94 -31 -94 -82 0
-9 205 -222 455 -472 l455 -456 -28 -27 c-15 -15 -37 -27 -48 -27 -12 0 -171
152 -434 415 -446 446 -455 454 -541 442 -57 -8 -113 -48 -138 -99 -25 -53
-26 -100 -3 -150 15 -32 768 -937 892 -1072 63 -69 172 -137 271 -171 80 -27
96 -29 334 -36 336 -10 371 -22 518 -177 45 -47 130 -136 190 -196 59 -60 107
-113 107 -117 0 -4 -350 -367 -777 -806 -943 -969 -927 -952 -952 -1001 -11
-21 -25 -68 -31 -103 -39 -227 123 -446 354 -478 113 -16 226 14 301 80 21 19
363 437 761 931 398 493 728 899 732 902 19 12 254 -237 942 -994 397 -437
738 -810 759 -828 111 -102 287 -123 436 -53 230 107 308 419 153 608 -24 29
-448 421 -943 871 -495 451 -913 833 -929 850 -21 23 -26 35 -19 44 149 192
394 486 436 525 100 90 151 106 417 123 212 14 282 29 398 86 135 65 211 145
384 399 216 318 269 422 324 635 51 195 55 499 9 630 -32 91 -120 175 -211
200 -59 17 -324 8 -424 -14 -208 -46 -399 -132 -557 -251 -111 -83 -457 -391
-496 -441 -48 -60 -120 -210 -139 -284 -9 -40 -12 -102 -8 -225 9 -316 6 -374
-18 -437 -31 -76 -48 -97 -313 -370 l-230 -238 -42 49 c-23 27 -101 102 -173
167 -146 133 -181 171 -212 229 -41 79 -45 107 -52 360 -6 218 -10 259 -30
320 -30 95 -84 197 -136 254 -50 56 -1061 908 -1107 934 -45 24 -122 22 -172
-6z m624 -566 c287 -242 530 -450 540 -463 40 -51 85 -136 103 -198 16 -53 21
-112 27 -315 8 -276 15 -310 83 -423 33 -53 164 -187 288 -292 68 -58 103 -95
132 -139 l17 -27 -68 -68 -69 -69 -114 119 c-266 279 -290 302 -349 334 -127
68 -150 72 -429 80 -217 6 -263 11 -310 28 -75 26 -127 54 -172 90 -56 44
-908 1061 -908 1083 0 11 7 19 18 19 9 0 194 -177 417 -401 220 -220 419 -412
442 -425 55 -33 132 -35 188 -6 56 29 430 407 450 454 18 44 19 88 4 143 -9
34 -75 105 -431 462 -409 409 -447 453 -395 453 8 0 249 -198 536 -439z m3471
357 c66 -34 88 -84 99 -230 22 -267 -43 -535 -183 -758 -96 -154 -282 -419
-325 -464 -85 -90 -208 -154 -326 -170 -22 -3 -119 -11 -215 -17 -257 -16
-371 -59 -492 -185 -25 -27 -548 -672 -1162 -1434 -1009 -1252 -1121 -1388
-1167 -1412 -123 -67 -283 -12 -343 117 -30 62 -35 154 -12 208 8 20 473 506
1151 1203 626 643 1202 1234 1279 1314 108 111 150 162 178 216 66 125 71 164
63 449 -6 218 -5 258 10 315 19 74 62 159 107 214 29 35 274 255 406 364 225
186 503 288 792 291 81 1 103 -3 140 -21z m-1728 -2683 c62 -61 485 -449 939
-862 664 -605 829 -760 845 -794 26 -58 24 -140 -5 -204 -43 -95 -112 -144
-218 -153 -125 -10 -68 -63 -900 851 -411 452 -773 844 -803 872 -88 80 -129
124 -145 155 -14 28 -14 30 32 87 80 100 135 164 138 161 2 -2 55 -53 117
-113z"/>
</g>
</svg>
