<?xml version="1.0" encoding="UTF-8"?>
<!DOCTYPE svg PUBLIC "-//W3C//DTD SVG 1.1//EN" "http://www.w3.org/Graphics/SVG/1.1/DTD/svg11.dtd">
<svg xmlns="http://www.w3.org/2000/svg" version="1.1" width="512px" height="512px" style="shape-rendering:geometricPrecision; text-rendering:geometricPrecision; image-rendering:optimizeQuality; fill-rule:evenodd; clip-rule:evenodd" xmlns:xlink="http://www.w3.org/1999/xlink">
<g><path style="opacity:0.964" fill="#021837" d="M 97.5,45.5 C 103.391,44.4296 106.724,46.7629 107.5,52.5C 107.024,58.2826 104.358,62.7826 99.5,66C 95.326,68.5877 90.9926,70.921 86.5,73C 84.0243,74.3088 82.0243,76.1421 80.5,78.5C 82.0243,80.8579 84.0243,82.6912 86.5,84C 93.76,86.601 99.9267,90.7677 105,96.5C 108.755,103.883 107.922,110.717 102.5,117C 96.6576,121.424 90.3243,125.091 83.5,128C 79.6322,130.998 79.9655,133.664 84.5,136C 92.1043,139.382 98.9376,143.882 105,149.5C 109.129,158.148 107.629,165.648 100.5,172C 94.5,175.333 88.5,178.667 82.5,182C 80.9633,184.28 79.7967,186.78 79,189.5C 70.1002,193.199 66.4335,190.199 68,180.5C 69,178.5 70,176.5 71,174.5C 77.4165,169.706 84.2499,165.539 91.5,162C 92.6872,160.981 93.6872,159.814 94.5,158.5C 92.9757,156.142 90.9757,154.309 88.5,153C 81.24,150.399 75.0733,146.232 70,140.5C 65.6888,131.81 67.1888,124.31 74.5,118C 79.3413,115.079 84.3413,112.412 89.5,110C 95.1194,107.214 95.4527,104.214 90.5,101C 82.8957,97.6183 76.0624,93.1183 70,87.5C 65.4774,78.1843 67.3107,70.3509 75.5,64C 81.4897,61.3403 87.1564,58.1736 92.5,54.5C 93.7282,51.2211 95.3949,48.2211 97.5,45.5 Z"/></g>
<g><path style="opacity:0.964" fill="#021837" d="M 158.5,45.5 C 164.391,44.4296 167.724,46.7629 168.5,52.5C 167.759,58.7397 164.759,63.573 159.5,67C 152.615,69.5996 146.615,73.4329 141.5,78.5C 143.024,80.8579 145.024,82.6912 147.5,84C 154.76,86.601 160.927,90.7677 166,96.5C 169.954,104.486 168.787,111.653 162.5,118C 156.822,121.841 150.822,125.174 144.5,128C 140.632,130.998 140.965,133.664 145.5,136C 153.104,139.382 159.938,143.882 166,149.5C 170.311,158.19 168.811,165.69 161.5,172C 155.5,175.333 149.5,178.667 143.5,182C 142.418,185.358 140.751,188.358 138.5,191C 132.613,192.565 129.28,190.398 128.5,184.5C 128.928,180.38 130.428,176.713 133,173.5C 139.253,169.289 145.753,165.455 152.5,162C 156.4,159.049 156.067,156.382 151.5,154C 143.553,151.115 136.719,146.615 131,140.5C 126.689,131.81 128.189,124.31 135.5,118C 140.341,115.079 145.341,112.412 150.5,110C 156.119,107.214 156.453,104.214 151.5,101C 143.896,97.6183 137.062,93.1183 131,87.5C 126.689,78.8104 128.189,71.3104 135.5,65C 141.5,61.6667 147.5,58.3333 153.5,55C 154.653,51.505 156.32,48.3383 158.5,45.5 Z"/></g>
<g><path style="opacity:0.964" fill="#021837" d="M 372.5,45.5 C 378.391,44.4296 381.724,46.7629 382.5,52.5C 381.724,58.7637 378.724,63.5971 373.5,67C 366.615,69.5996 360.615,73.4329 355.5,78.5C 356.313,79.8139 357.313,80.9805 358.5,82C 365.166,85.3308 371.499,89.1641 377.5,93.5C 384.425,101.943 384.092,110.109 376.5,118C 370.822,121.841 364.822,125.174 358.5,128C 354.6,130.951 354.933,133.618 359.5,136C 367.146,139.321 373.979,143.821 380,149.5C 384.311,158.19 382.811,165.69 375.5,172C 369.5,175.333 363.5,178.667 357.5,182C 356.418,185.358 354.751,188.358 352.5,191C 346.613,192.565 343.28,190.398 342.5,184.5C 343.241,178.26 346.241,173.427 351.5,170C 358.385,167.4 364.385,163.567 369.5,158.5C 365.06,153.771 359.726,150.271 353.5,148C 341.051,140.042 339.384,130.376 348.5,119C 353.51,115.493 358.843,112.493 364.5,110C 366.585,108.959 368.252,107.459 369.5,105.5C 368.96,104.252 368.293,103.085 367.5,102C 359.235,98.2884 351.735,93.455 345,87.5C 340.689,78.8104 342.189,71.3104 349.5,65C 355.5,61.6667 361.5,58.3333 367.5,55C 368.653,51.505 370.32,48.3383 372.5,45.5 Z"/></g>
<g><path style="opacity:0.96" fill="#021837" d="M 434.5,45.5 C 442.098,45.3341 444.931,49.0008 443,56.5C 442,58.5 441,60.5 440,62.5C 433.583,67.2943 426.75,71.461 419.5,75C 418.313,76.0195 417.313,77.1861 416.5,78.5C 418.024,80.8579 420.024,82.6912 422.5,84C 428.408,86.5349 433.908,89.7016 439,93.5C 445.338,102.118 444.838,110.284 437.5,118C 431.822,121.841 425.822,125.174 419.5,128C 415.6,130.951 415.933,133.618 420.5,136C 428.447,138.885 435.281,143.385 441,149.5C 445.311,158.19 443.811,165.69 436.5,172C 430.336,175.248 424.336,178.748 418.5,182.5C 417.342,185.642 415.675,188.475 413.5,191C 407.613,192.565 404.28,190.398 403.5,184.5C 404.205,178.284 407.205,173.451 412.5,170C 419.385,167.4 425.385,163.567 430.5,158.5C 426.06,153.771 420.726,150.271 414.5,148C 402.041,140.114 400.375,130.448 409.5,119C 414.51,115.493 419.843,112.493 425.5,110C 427.585,108.959 429.252,107.459 430.5,105.5C 429.96,104.252 429.293,103.085 428.5,102C 420.235,98.2884 412.735,93.455 406,87.5C 401.871,78.8523 403.371,71.3523 410.5,65C 416.5,61.6667 422.5,58.3333 428.5,55C 429.856,52.6024 431.023,50.1024 432,47.5C 432.995,46.9341 433.828,46.2674 434.5,45.5 Z"/></g>
<g><path style="opacity:0.988" fill="#041938" d="M 248.5,132.5 C 269.915,130.78 283.748,140.113 290,160.5C 292.058,172.109 289.225,182.275 281.5,191C 362.091,203.356 419.258,246.523 453,320.5C 462.275,342.934 467.442,366.267 468.5,390.5C 479.231,390.097 489.898,390.597 500.5,392C 508.018,395.868 511.185,402.035 510,410.5C 504.985,433.514 491.818,450.014 470.5,460C 464.37,462.449 458.037,464.116 451.5,465C 320.833,465.667 190.167,465.667 59.5,465C 34.9567,461.327 17.1234,448.493 6,426.5C 2.15142,418.923 0.484757,410.923 1,402.5C 2.43286,397.402 5.59953,393.902 10.5,392C 21.0191,390.921 31.5191,390.087 42,389.5C 48.733,315.159 83.5664,258.325 146.5,219C 172.133,204.622 199.466,195.122 228.5,190.5C 218.438,176.173 217.938,161.507 227,146.5C 232.795,139.505 239.961,134.838 248.5,132.5 Z"/></g>
<g><path style="opacity:1" fill="#43a4ca" d="M 251.5,144.5 C 268.562,145.063 277.395,153.73 278,170.5C 276.387,180.78 270.553,187.28 260.5,190C 241.333,190.833 232.167,181.667 233,162.5C 236.304,153.453 242.47,147.453 251.5,144.5 Z"/></g>
<g><path style="opacity:1" fill="#f49876" d="M 238.5,202.5 C 329.25,199.535 395.75,237.868 438,317.5C 448.674,341.035 454.841,365.702 456.5,391.5C 322.5,391.5 188.5,391.5 54.5,391.5C 60.5335,320.22 93.8668,266.053 154.5,229C 180.834,214.386 208.834,205.553 238.5,202.5 Z"/></g>
<g><path style="opacity:1" fill="#0a1b39" d="M 213.5,231.5 C 218.42,230.784 221.42,232.784 222.5,237.5C 222.152,239.697 221.152,241.53 219.5,243C 180.901,252.127 149.235,272.127 124.5,303C 118.818,303.648 115.984,301.148 116,295.5C 141.502,263.499 174.002,242.166 213.5,231.5 Z"/></g>
<g><path style="opacity:1" fill="#fbd27f" d="M 14.5,403.5 C 175.167,403.333 335.834,403.5 496.5,404C 496.231,417.224 491.231,428.557 481.5,438C 472.149,446.458 461.149,451.458 448.5,453C 319.5,453.667 190.5,453.667 61.5,453C 35.4579,448.622 19.4579,433.622 13.5,408C 13.6052,406.408 13.9386,404.908 14.5,403.5 Z"/></g>
</svg>
