<?xml version="1.0" encoding="UTF-8"?>
<!DOCTYPE svg PUBLIC "-//W3C//DTD SVG 1.1//EN" "http://www.w3.org/Graphics/SVG/1.1/DTD/svg11.dtd">
<svg xmlns="http://www.w3.org/2000/svg" version="1.1" width="512px" height="512px" style="shape-rendering:geometricPrecision; text-rendering:geometricPrecision; image-rendering:optimizeQuality; fill-rule:evenodd; clip-rule:evenodd" xmlns:xlink="http://www.w3.org/1999/xlink">
<g><path style="opacity:0.982" fill="#020101" d="M 511.5,26.5 C 511.5,37.5 511.5,48.5 511.5,59.5C 508.794,64.0313 504.794,66.8647 499.5,68C 454.163,68.1667 408.83,68.6667 363.5,69.5C 347.349,86.818 331.016,103.985 314.5,121C 312.283,122.275 309.949,123.275 307.5,124C 299.841,124.5 292.174,124.666 284.5,124.5C 287.032,137.084 283.365,147.251 273.5,155C 263.323,160.046 253.656,159.213 244.5,152.5C 237.334,157.957 229.334,159.623 220.5,157.5C 220.5,166.167 220.5,174.833 220.5,183.5C 254.124,179.492 286.958,182.825 319,193.5C 335.496,178.528 353.329,176.695 372.5,188C 387.16,201.637 390.993,217.804 384,236.5C 398.444,251.796 409.944,269.13 418.5,288.5C 456.126,311.393 479.793,344.393 489.5,387.5C 500.407,389.269 507.741,395.269 511.5,405.5C 511.5,410.5 511.5,415.5 511.5,420.5C 507.647,430.688 500.313,436.355 489.5,437.5C 488.663,447.531 487.496,457.531 486,467.5C 481.942,481.56 472.775,490.06 458.5,493C 445.5,493.667 432.5,493.667 419.5,493C 416.211,491.59 414.544,489.09 414.5,485.5C 415.018,481.976 417.018,479.643 420.5,478.5C 432.171,478.667 443.838,478.5 455.5,478C 463.565,476.268 468.732,471.435 471,463.5C 472.493,454.891 473.326,446.225 473.5,437.5C 466.833,437.5 460.167,437.5 453.5,437.5C 314.5,437.5 175.5,437.5 36.5,437.5C 36.2627,438.791 36.596,439.791 37.5,440.5C 37.219,450.944 39.0523,460.944 43,470.5C 45.9276,474.381 49.7609,476.881 54.5,478C 166.833,478.333 279.167,478.667 391.5,479C 393.628,480.792 394.961,482.958 395.5,485.5C 395.456,489.09 393.789,491.59 390.5,493C 277.5,493.667 164.5,493.667 51.5,493C 38.2036,489.705 29.3703,481.538 25,468.5C 23.5028,458.523 22.1695,448.523 21,438.5C 10.6172,436.28 3.45053,430.28 -0.5,420.5C -0.5,415.5 -0.5,410.5 -0.5,405.5C 3.68282,395.206 11.3495,388.872 22.5,386.5C 32.2894,353.887 52.1227,329.553 82,313.5C 81.5496,302.352 82.8829,291.352 86,280.5C 88.2203,276.308 91.7203,274.641 96.5,275.5C 98.9677,277.641 100.634,280.308 101.5,283.5C 97.8879,292.169 96.7212,301.169 98,310.5C 99.9372,315.276 103.437,317.276 108.5,316.5C 113.509,316.911 117.676,315.244 121,311.5C 123.685,302.371 126.685,293.371 130,284.5C 132.592,281.238 135.759,278.738 139.5,277C 152.781,275.87 166.114,275.37 179.5,275.5C 191.5,275.667 203.5,275.833 215.5,276C 221.87,277.436 226.037,281.269 228,287.5C 228.333,307.5 228.667,327.5 229,347.5C 233.066,357.447 239.899,359.947 249.5,355C 251.617,353.269 253.117,351.102 254,348.5C 254.333,332.833 254.667,317.167 255,301.5C 256.029,297.111 257.862,293.111 260.5,289.5C 238.655,273.985 234.488,254.652 248,231.5C 263.741,215.379 281.241,213.213 300.5,225C 319.383,243.219 320.383,262.386 303.5,282.5C 309.68,287.531 313.846,293.864 316,301.5C 316.09,312.891 316.757,324.224 318,335.5C 323.475,342.037 329.975,343.204 337.5,339C 339.041,337.421 340.208,335.587 341,333.5C 343.892,312.139 355.392,305.305 375.5,313C 383.727,320.682 386.894,330.182 385,341.5C 385.573,343.641 386.406,345.641 387.5,347.5C 391.837,355.495 398.503,358.329 407.5,356C 414.152,352.695 416.819,347.362 415.5,340C 407.172,277.674 374.172,234.007 316.5,209C 304.873,204.349 292.873,201.183 280.5,199.5C 257.121,197.886 233.787,198.219 210.5,200.5C 212.749,231.564 198.416,247.397 167.5,248C 157.257,245.97 149.09,240.803 143,232.5C 132.842,240.624 123.675,249.79 115.5,260C 112.112,260.659 108.779,260.492 105.5,259.5C 103.132,255.948 102.965,252.281 105,248.5C 113.667,237.167 123.667,227.167 135,218.5C 134.481,209.051 136.148,200.051 140,191.5C 140.333,150.167 140.667,108.833 141,67.5C 146.715,50.392 158.215,44.5587 175.5,50C 177.333,51.1667 179.167,52.3333 181,53.5C 191.636,45.5766 202.303,45.5766 213,53.5C 223.636,45.5766 234.303,45.5766 245,53.5C 256.837,45.145 268.171,45.8117 279,55.5C 283.72,62.0441 285.72,69.3775 285,77.5C 287.52,76.7934 290.02,75.96 292.5,75C 310.864,56.9677 329.531,39.3011 348.5,22C 351.674,20.2752 355.007,18.9419 358.5,18C 406.167,17.3333 453.833,17.3333 501.5,18C 506.255,19.2613 509.588,22.0947 511.5,26.5 Z"/></g>
<g><path style="opacity:1" fill="#c6edfc" d="M 361.5,33.5 C 398.5,33.5 435.5,33.5 472.5,33.5C 472.803,38.43 472.469,43.2633 471.5,48C 433.167,48.3333 394.833,48.6667 356.5,49C 338.827,66.0065 321.827,83.6732 305.5,102C 298.877,105.144 291.877,106.311 284.5,105.5C 284.5,101.167 284.5,96.8333 284.5,92.5C 291.091,92.5202 297.091,90.6869 302.5,87C 318.833,71.3333 335.167,55.6667 351.5,40C 354.464,37.1903 357.798,35.0236 361.5,33.5 Z"/></g>
<g><path style="opacity:1" fill="#95dbef" d="M 361.5,33.5 C 406.33,32.5013 451.33,32.1679 496.5,32.5C 496.5,39.1667 496.5,45.8333 496.5,52.5C 451.165,52.3333 405.832,52.5 360.5,53C 358.004,54.0804 355.67,55.4138 353.5,57C 337.866,74.3019 321.866,91.3019 305.5,108C 298.615,109.425 291.615,109.925 284.5,109.5C 284.5,108.167 284.5,106.833 284.5,105.5C 291.877,106.311 298.877,105.144 305.5,102C 321.827,83.6732 338.827,66.0065 356.5,49C 394.833,48.6667 433.167,48.3333 471.5,48C 472.469,43.2633 472.803,38.43 472.5,33.5C 435.5,33.5 398.5,33.5 361.5,33.5 Z"/></g>
<g><path style="opacity:1" fill="#fda514" d="M 162.5,63.5 C 167.284,62.5581 170.617,64.2247 172.5,68.5C 172.5,103.167 172.5,137.833 172.5,172.5C 170.585,172.216 168.919,172.549 167.5,173.5C 166.167,173.5 164.833,173.5 163.5,173.5C 163.814,136.803 163.481,100.136 162.5,63.5 Z"/></g>
<g><path style="opacity:1" fill="#fcb341" d="M 194.5,63.5 C 199.284,62.5581 202.617,64.2247 204.5,68.5C 205.161,108.181 204.494,147.514 202.5,186.5C 200.403,183.947 198.07,181.614 195.5,179.5C 195.815,140.803 195.482,102.136 194.5,63.5 Z"/></g>
<g><path style="opacity:1" fill="#f6a113" d="M 226.5,63.5 C 231.28,62.6409 234.78,64.3075 237,68.5C 237.667,91.1667 237.667,113.833 237,136.5C 235.084,141.245 231.584,143.245 226.5,142.5C 227.824,116.16 227.824,89.8268 226.5,63.5 Z"/></g>
<g><path style="opacity:1" fill="#f5af3f" d="M 258.5,63.5 C 263.28,62.6409 266.78,64.3075 269,68.5C 269.667,91.1667 269.667,113.833 269,136.5C 267.084,141.245 263.584,143.245 258.5,142.5C 259.824,116.16 259.824,89.8268 258.5,63.5 Z"/></g>
<g><path style="opacity:1" fill="#fcb340" d="M 162.5,63.5 C 163.481,100.136 163.814,136.803 163.5,173.5C 161.604,174.481 159.604,175.481 157.5,176.5C 156.333,140.171 156.167,103.838 157,67.5C 158.451,65.5359 160.284,64.2026 162.5,63.5 Z"/></g>
<g><path style="opacity:1" fill="#fdc064" d="M 194.5,63.5 C 195.482,102.136 195.815,140.803 195.5,179.5C 193.534,178.559 191.534,177.559 189.5,176.5C 188.333,140.171 188.167,103.838 189,67.5C 190.451,65.5359 192.284,64.2026 194.5,63.5 Z"/></g>
<g><path style="opacity:1" fill="#fbb240" d="M 226.5,63.5 C 227.824,89.8268 227.824,116.16 226.5,142.5C 223.909,141.746 222.076,140.079 221,137.5C 220.333,114.167 220.333,90.8333 221,67.5C 222.451,65.5359 224.284,64.2026 226.5,63.5 Z"/></g>
<g><path style="opacity:1" fill="#fcbf64" d="M 258.5,63.5 C 259.824,89.8268 259.824,116.16 258.5,142.5C 255.909,141.746 254.076,140.079 253,137.5C 252.333,114.167 252.333,90.8333 253,67.5C 254.451,65.5359 256.284,64.2026 258.5,63.5 Z"/></g>
<g><path style="opacity:1" fill="#b0730d" d="M 172.5,68.5 C 173.498,103.329 173.832,138.329 173.5,173.5C 171.5,173.5 169.5,173.5 167.5,173.5C 168.919,172.549 170.585,172.216 172.5,172.5C 172.5,137.833 172.5,103.167 172.5,68.5 Z"/></g>
<g><path style="opacity:1" fill="#b37f2e" d="M 204.5,68.5 C 205.499,107.996 205.832,147.663 205.5,187.5C 204.209,187.737 203.209,187.404 202.5,186.5C 204.494,147.514 205.161,108.181 204.5,68.5 Z"/></g>
<g><path style="opacity:1" fill="#d88456" d="M 168.5,187.5 C 182.734,186.576 191.901,192.909 196,206.5C 196.872,220.259 190.705,229.092 177.5,233C 158.848,233.347 150.015,224.181 151,205.5C 153.683,196.318 159.517,190.318 168.5,187.5 Z"/></g>
<g><path style="opacity:1" fill="#d27c49" d="M 341.5,196.5 C 362.517,194.521 372.184,203.854 370.5,224.5C 359.523,215.675 347.856,207.842 335.5,201C 337.389,199.236 339.389,197.736 341.5,196.5 Z"/></g>
<g><path style="opacity:1" fill="#e64343" d="M 280.5,199.5 C 344.34,226.029 380.674,273.696 389.5,342.5C 389.444,344.64 388.777,346.306 387.5,347.5C 386.406,345.641 385.573,343.641 385,341.5C 386.894,330.182 383.727,320.682 375.5,313C 355.392,305.305 343.892,312.139 341,333.5C 340.208,335.587 339.041,337.421 337.5,339C 329.975,343.204 323.475,342.037 318,335.5C 316.757,324.224 316.09,312.891 316,301.5C 313.846,293.864 309.68,287.531 303.5,282.5C 320.383,262.386 319.383,243.219 300.5,225C 281.241,213.213 263.741,215.379 248,231.5C 234.488,254.652 238.655,273.985 260.5,289.5C 257.862,293.111 256.029,297.111 255,301.5C 254.667,317.167 254.333,332.833 254,348.5C 253.117,351.102 251.617,353.269 249.5,355C 239.899,359.947 233.066,357.447 229,347.5C 228.667,327.5 228.333,307.5 228,287.5C 226.037,281.269 221.87,277.436 215.5,276C 203.5,275.833 191.5,275.667 179.5,275.5C 166.114,275.37 152.781,275.87 139.5,277C 135.759,278.738 132.592,281.238 130,284.5C 126.685,293.371 123.685,302.371 121,311.5C 117.676,315.244 113.509,316.911 108.5,316.5C 103.437,317.276 99.9372,315.276 98,310.5C 96.7212,301.169 97.8879,292.169 101.5,283.5C 100.634,280.308 98.9677,277.641 96.5,275.5C 98.9934,269.843 101.993,264.51 105.5,259.5C 108.779,260.492 112.112,260.659 115.5,260C 123.675,249.79 132.842,240.624 143,232.5C 149.09,240.803 157.257,245.97 167.5,248C 198.416,247.397 212.749,231.564 210.5,200.5C 233.787,198.219 257.121,197.886 280.5,199.5 Z"/></g>
<g><path style="opacity:1" fill="#d53030" d="M 280.5,199.5 C 292.873,201.183 304.873,204.349 316.5,209C 374.172,234.007 407.172,277.674 415.5,340C 416.819,347.362 414.152,352.695 407.5,356C 398.503,358.329 391.837,355.495 387.5,347.5C 388.777,346.306 389.444,344.64 389.5,342.5C 380.674,273.696 344.34,226.029 280.5,199.5 Z"/></g>
<g><path style="opacity:1" fill="#d88556" d="M 271.5,232.5 C 288.341,230.848 298.008,238.348 300.5,255C 296.775,274.531 285.441,281.198 266.5,275C 251.769,263.418 250.769,250.751 263.5,237C 266.099,235.205 268.766,233.705 271.5,232.5 Z"/></g>
<g><path style="opacity:1" fill="#412e10" d="M 147.5,290.5 C 160.339,289.175 173.339,289.175 186.5,290.5C 186.376,291.107 186.043,291.44 185.5,291.5C 173.011,290.505 160.344,290.171 147.5,290.5 Z"/></g>
<g><path style="opacity:1" fill="#f7af3f" d="M 147.5,290.5 C 160.344,290.171 173.011,290.505 185.5,291.5C 182.175,294.832 179.175,298.499 176.5,302.5C 171.807,303.137 167.14,302.637 162.5,301C 155.174,300.5 147.841,300.334 140.5,300.5C 139.916,294.972 142.249,291.638 147.5,290.5 Z"/></g>
<g><path style="opacity:1" fill="#f7af3e" d="M 208.5,290.5 C 210.144,290.286 211.644,290.62 213,291.5C 213.667,300.833 213.667,310.167 213,319.5C 205.847,315.343 198.68,311.343 191.5,307.5C 196.215,300.785 201.882,295.118 208.5,290.5 Z"/></g>
<g><path style="opacity:1" fill="#f9bd62" d="M 283.5,292.5 C 291.459,291.978 297.125,295.311 300.5,302.5C 290.275,306.278 280.275,310.611 270.5,315.5C 267.355,303.445 271.688,295.779 283.5,292.5 Z"/></g>
<g><path style="opacity:1" fill="#f7c880" d="M 135.5,315.5 C 164.719,313.189 190.886,320.855 214,338.5C 213.081,358.207 222.248,369.707 241.5,373C 244.384,377.489 246.384,382.322 247.5,387.5C 242.125,387.828 236.792,387.495 231.5,386.5C 214.018,349.001 184.518,330.334 143,330.5C 101.234,330.291 71.7338,349.124 54.5,387C 49.1357,387.829 43.8023,387.663 38.5,386.5C 48.4143,359.759 65.9143,339.759 91,326.5C 103.223,333.22 115.39,333.054 127.5,326C 131.175,323.172 133.842,319.672 135.5,315.5 Z"/></g>
<g><path style="opacity:1" fill="#f8bc62" d="M 426.5,313.5 C 450.743,332.638 466.41,357.304 473.5,387.5C 468.238,387.805 463.072,387.471 458,386.5C 452.779,368.302 443.779,352.302 431,338.5C 429.692,330.125 428.192,321.792 426.5,313.5 Z"/></g>
<g><path style="opacity:1" fill="#f7bb61" d="M 299.5,318.5 C 301.236,323.604 302.236,329.104 302.5,335C 289.559,341.558 278.392,350.392 269,361.5C 265.748,366.334 262.748,371.334 260,376.5C 258.697,374.06 257.53,371.56 256.5,369C 266.927,359.571 271.594,347.738 270.5,333.5C 279.537,327.149 289.204,322.149 299.5,318.5 Z"/></g>
<g><path style="opacity:1" fill="#edb35c" d="M 359.5,324.5 C 368.02,323.684 371.02,327.351 368.5,335.5C 364.649,333.871 360.649,332.871 356.5,332.5C 356.394,329.385 357.394,326.719 359.5,324.5 Z"/></g>
<g><path style="opacity:1" fill="#f9c981" d="M 125.5,345.5 C 153.883,340.732 178.883,347.565 200.5,366C 206.276,372.443 211.276,379.443 215.5,387C 206.814,387.832 198.147,387.665 189.5,386.5C 179.445,367.787 163.778,358.787 142.5,359.5C 121.45,359.188 106.117,368.355 96.5,387C 88.1733,387.5 79.84,387.666 71.5,387.5C 79.2848,370.883 91.6182,358.716 108.5,351C 114.137,348.682 119.803,346.849 125.5,345.5 Z"/></g>
<g><path style="opacity:1" fill="#f9bd62" d="M 350.5,346.5 C 358.684,347.251 366.351,349.751 373.5,354C 378.14,362.139 384.807,367.973 393.5,371.5C 397.238,376.309 399.904,381.642 401.5,387.5C 392.143,387.832 382.81,387.498 373.5,386.5C 365.541,371.182 352.874,363.516 335.5,363.5C 319.334,364.335 307.667,372.001 300.5,386.5C 290.851,387.665 281.184,387.832 271.5,387C 278.702,368.964 291.369,356.464 309.5,349.5C 321.484,358.221 333.817,358.721 346.5,351C 348.041,349.629 349.375,348.129 350.5,346.5 Z"/></g>
<g><path style="opacity:1" fill="#f7bc61" d="M 426.5,357.5 C 434.395,365.947 439.728,375.947 442.5,387.5C 434.167,387.5 425.833,387.5 417.5,387.5C 416.141,381.613 413.808,376.113 410.5,371C 417.561,368.43 422.895,363.93 426.5,357.5 Z"/></g>
<g><path style="opacity:1" fill="#facb82" d="M 172.5,387.5 C 152.993,387.83 133.659,387.497 114.5,386.5C 121.787,377.445 131.287,373.445 143,374.5C 155.235,373.537 165.069,377.871 172.5,387.5 Z"/></g>
<g><path style="opacity:1" fill="#f7bb60" d="M 329.5,378.5 C 339.937,377.036 348.937,379.869 356.5,387C 343.5,387.667 330.5,387.667 317.5,387C 321.075,383.396 325.075,380.562 329.5,378.5 Z"/></g>
<g><path style="opacity:1" fill="#221b12" d="M 114.5,386.5 C 133.659,387.497 152.993,387.83 172.5,387.5C 152.996,388.828 133.329,388.828 113.5,387.5C 113.624,386.893 113.957,386.56 114.5,386.5 Z"/></g>
<g><path style="opacity:1" fill="#97e4fa" d="M 488.5,403.5 C 483.456,403.173 478.456,403.506 473.5,404.5C 476.26,410.663 475.927,416.663 472.5,422.5C 321.833,422.667 171.166,422.5 20.5,422C 12.2327,415.256 12.566,408.922 21.5,403C 177.334,402.167 333.001,402.334 488.5,403.5 Z"/></g>
<g><path style="opacity:1" fill="#61d9f9" d="M 488.5,403.5 C 496.731,406.451 498.565,411.784 494,419.5C 492.829,420.893 491.329,421.727 489.5,422C 483.843,422.499 478.176,422.666 472.5,422.5C 475.927,416.663 476.26,410.663 473.5,404.5C 478.456,403.506 483.456,403.173 488.5,403.5 Z"/></g>
<g><path style="opacity:1" fill="#accedb" d="M 453.5,437.5 C 453.5,438.167 453.167,438.5 452.5,438.5C 313.829,437.835 175.496,438.502 37.5,440.5C 36.596,439.791 36.2627,438.791 36.5,437.5C 175.5,437.5 314.5,437.5 453.5,437.5 Z"/></g>
<g><path style="opacity:1" fill="#c5ecfb" d="M 452.5,438.5 C 451.75,447.501 450.917,456.501 450,465.5C 448.733,469.869 446.567,473.703 443.5,477C 435.656,477.171 427.989,477.671 420.5,478.5C 417.018,479.643 415.018,481.976 414.5,485.5C 408.167,485.5 401.833,485.5 395.5,485.5C 394.961,482.958 393.628,480.792 391.5,479C 279.167,478.667 166.833,478.333 54.5,478C 49.7609,476.881 45.9276,474.381 43,470.5C 39.0523,460.944 37.219,450.944 37.5,440.5C 175.496,438.502 313.829,437.835 452.5,438.5 Z"/></g>
<g><path style="opacity:1" fill="#95def3" d="M 453.5,437.5 C 460.167,437.5 466.833,437.5 473.5,437.5C 473.326,446.225 472.493,454.891 471,463.5C 468.732,471.435 463.565,476.268 455.5,478C 443.838,478.5 432.171,478.667 420.5,478.5C 427.989,477.671 435.656,477.171 443.5,477C 446.567,473.703 448.733,469.869 450,465.5C 450.917,456.501 451.75,447.501 452.5,438.5C 453.167,438.5 453.5,438.167 453.5,437.5 Z"/></g>
</svg>
