<?xml version="1.0" encoding="UTF-8"?>
<!DOCTYPE svg PUBLIC "-//W3C//DTD SVG 1.1//EN" "http://www.w3.org/Graphics/SVG/1.1/DTD/svg11.dtd">
<svg xmlns="http://www.w3.org/2000/svg" version="1.1" width="512px" height="512px" style="shape-rendering:geometricPrecision; text-rendering:geometricPrecision; image-rendering:optimizeQuality; fill-rule:evenodd; clip-rule:evenodd" xmlns:xlink="http://www.w3.org/1999/xlink">
<g><path style="opacity:0.987" fill="#000000" d="M 81.5,-0.5 C 202.833,-0.5 324.167,-0.5 445.5,-0.5C 455.149,2.98314 461.649,9.64981 465,19.5C 465.667,176.833 465.667,334.167 465,491.5C 461.649,501.35 455.149,508.017 445.5,511.5C 324.167,511.5 202.833,511.5 81.5,511.5C 69.1471,508.071 59.3138,501.071 52,490.5C 49.1635,485.828 47.1635,480.828 46,475.5C 45.3333,328.833 45.3333,182.167 46,35.5C 49.0262,22.9238 55.8595,13.0904 66.5,6C 71.3668,3.22592 76.3668,1.05926 81.5,-0.5 Z M 105.5,19.5 C 216.167,19.3333 326.834,19.5 437.5,20C 442,20.5 444.5,23 445,27.5C 445.667,155.5 445.667,283.5 445,411.5C 444.934,414.276 443.768,416.442 441.5,418C 329.581,419.496 217.581,419.996 105.5,419.5C 105.667,366.166 105.5,312.832 105,259.5C 101.562,254.919 97.0616,253.419 91.5,255C 89,256.167 87.1667,258 86,260.5C 85.8333,313.503 85.3333,366.503 84.5,419.5C 78.0443,420.73 72.0443,423.064 66.5,426.5C 66.1667,363 65.8333,299.5 65.5,236C 65.3455,170.14 65.8455,104.307 67,38.5C 70.3333,29.8333 76.3333,23.8333 85,20.5C 85.3333,73.5 85.6667,126.5 86,179.5C 89.6224,184.818 94.4557,186.318 100.5,184C 102.667,183.167 104.167,181.667 105,179.5C 105.5,126.168 105.667,72.8344 105.5,19.5 Z M 267.5,106.5 C 288.518,104.087 303.352,112.42 312,131.5C 314.912,134.544 318.412,135.711 322.5,135C 342.043,123.732 359.876,125.899 376,141.5C 385.7,155.354 387.034,170.02 380,185.5C 372.91,196.14 363.076,202.974 350.5,206C 348.683,207.8 347.516,209.966 347,212.5C 346.5,239.498 346.333,266.498 346.5,293.5C 299.167,293.5 251.833,293.5 204.5,293.5C 204.667,266.498 204.5,239.498 204,212.5C 203.484,209.966 202.317,207.8 200.5,206C 172.658,197.83 162.158,179.664 169,151.5C 178.347,133.243 193.181,125.743 213.5,129C 218.613,130.723 223.613,132.723 228.5,135C 232.588,135.711 236.088,134.544 239,131.5C 244.638,118.622 254.138,110.288 267.5,106.5 Z M 204.5,314.5 C 251.833,314.5 299.167,314.5 346.5,314.5C 346.5,320.833 346.5,327.167 346.5,333.5C 299.167,333.5 251.833,333.5 204.5,333.5C 204.5,327.167 204.5,320.833 204.5,314.5 Z M 442.5,439.5 C 443.5,439.5 444.5,439.5 445.5,439.5C 445.953,455.238 445.453,470.904 444,486.5C 442.661,489.094 440.494,490.594 437.5,491C 433.514,491.499 429.514,491.666 425.5,491.5C 425.5,474.5 425.5,457.5 425.5,440.5C 431.358,440.822 437.025,440.489 442.5,439.5 Z M 86.5,440.5 C 192.5,440.5 298.5,440.5 404.5,440.5C 404.5,457.5 404.5,474.5 404.5,491.5C 297.807,491.985 191.14,491.485 84.5,490C 66.269,481.642 61.769,468.476 71,450.5C 75.3155,445.654 80.4822,442.321 86.5,440.5 Z"/></g>
<g><path style="opacity:0.95" fill="#000000" d="M 264.5,85.5 C 283.103,83.1491 299.769,87.6491 314.5,99C 318.4,102.9 322.233,106.733 326,110.5C 351.554,102.555 373.554,108.222 392,127.5C 406.076,145.994 409.409,166.327 402,188.5C 395.333,204.5 384,215.833 368,222.5C 367.667,262.833 367.333,303.167 367,343.5C 365.427,347.827 362.593,350.993 358.5,353C 304.225,354.654 249.891,354.987 195.5,354C 189.764,352.598 185.931,349.098 184,343.5C 183.667,303.167 183.333,262.833 183,222.5C 151.671,206.835 140.004,181.835 148,147.5C 157.864,121.988 176.531,108.322 204,106.5C 211.189,106.891 218.189,108.224 225,110.5C 235.463,97.8651 248.63,89.5317 264.5,85.5 Z M 267.5,106.5 C 254.138,110.288 244.638,118.622 239,131.5C 236.088,134.544 232.588,135.711 228.5,135C 223.613,132.723 218.613,130.723 213.5,129C 193.181,125.743 178.347,133.243 169,151.5C 162.158,179.664 172.658,197.83 200.5,206C 202.317,207.8 203.484,209.966 204,212.5C 204.5,239.498 204.667,266.498 204.5,293.5C 251.833,293.5 299.167,293.5 346.5,293.5C 346.333,266.498 346.5,239.498 347,212.5C 347.516,209.966 348.683,207.8 350.5,206C 363.076,202.974 372.91,196.14 380,185.5C 387.034,170.02 385.7,155.354 376,141.5C 359.876,125.899 342.043,123.732 322.5,135C 318.412,135.711 314.912,134.544 312,131.5C 303.352,112.42 288.518,104.087 267.5,106.5 Z M 204.5,314.5 C 204.5,320.833 204.5,327.167 204.5,333.5C 251.833,333.5 299.167,333.5 346.5,333.5C 346.5,327.167 346.5,320.833 346.5,314.5C 299.167,314.5 251.833,314.5 204.5,314.5 Z"/></g>
<g><path style="opacity:0.9" fill="#000000" d="M 91.5,209.5 C 102.54,208.704 107.04,213.704 105,224.5C 99.749,231.475 93.749,232.142 87,226.5C 83.9307,219.46 85.4307,213.793 91.5,209.5 Z"/></g>
</svg>
