<?xml version="1.0" encoding="UTF-8"?>
<!DOCTYPE svg PUBLIC "-//W3C//DTD SVG 1.1//EN" "http://www.w3.org/Graphics/SVG/1.1/DTD/svg11.dtd">
<svg xmlns="http://www.w3.org/2000/svg" version="1.1" width="512px" height="512px" style="shape-rendering:geometricPrecision; text-rendering:geometricPrecision; image-rendering:optimizeQuality; fill-rule:evenodd; clip-rule:evenodd" xmlns:xlink="http://www.w3.org/1999/xlink">
<g><path style="opacity:0.991" fill="#000001" d="M 211.5,15.5 C 214.187,15.3359 216.854,15.5026 219.5,16C 223.386,18.1099 227.386,19.9433 231.5,21.5C 236.648,18.9228 241.981,16.9228 247.5,15.5C 253.019,16.9228 258.352,18.9228 263.5,21.5C 268.648,18.9228 273.981,16.9228 279.5,15.5C 285.019,16.9228 290.352,18.9228 295.5,21.5C 300.648,18.9228 305.981,16.9228 311.5,15.5C 317.019,16.9228 322.352,18.9228 327.5,21.5C 332.648,18.9228 337.981,16.9228 343.5,15.5C 349.019,16.9228 354.352,18.9228 359.5,21.5C 364.648,18.9228 369.981,16.9228 375.5,15.5C 381.019,16.9228 386.352,18.9228 391.5,21.5C 396.648,18.9228 401.981,16.9228 407.5,15.5C 413.019,16.9228 418.352,18.9228 423.5,21.5C 428.648,18.9228 433.981,16.9228 439.5,15.5C 445.019,16.9228 450.352,18.9228 455.5,21.5C 459.614,19.9433 463.614,18.1099 467.5,16C 471.244,15.0715 474.744,15.5715 478,17.5C 479.643,37.7439 479.976,58.0773 479,78.5C 476.235,93.256 474.068,108.089 472.5,123C 475.259,155.957 477.259,188.957 478.5,222C 477.43,253.724 475.43,285.39 472.5,317C 474.198,333.887 476.365,350.72 479,367.5C 479.667,387.5 479.667,407.5 479,427.5C 477.471,430.516 474.971,431.849 471.5,431.5C 465.981,430.077 460.648,428.077 455.5,425.5C 450.352,428.077 445.019,430.077 439.5,431.5C 433.981,430.077 428.648,428.077 423.5,425.5C 418.352,428.077 413.019,430.077 407.5,431.5C 401.981,430.077 396.648,428.077 391.5,425.5C 386.352,428.077 381.019,430.077 375.5,431.5C 370.201,430.354 365.201,428.354 360.5,425.5C 359.667,447.492 359.167,469.492 359,491.5C 357.471,494.516 354.971,495.849 351.5,495.5C 339.849,491.177 328.515,486.01 317.5,480C 268.167,479.333 218.833,479.333 169.5,480C 156.833,485 144.167,490 131.5,495C 128.833,495.667 126.167,495.667 123.5,495C 121.667,494.5 120.5,493.333 120,491.5C 119.5,476.837 119.333,462.17 119.5,447.5C 113.99,446.083 108.656,444.083 103.5,441.5C 98.3524,444.077 93.019,446.077 87.5,447.5C 81.981,446.077 76.6476,444.077 71.5,441.5C 66.3524,444.077 61.019,446.077 55.5,447.5C 49.981,446.077 44.6476,444.077 39.5,441.5C 34.3524,444.077 29.019,446.077 23.5,447.5C 20.0286,447.849 17.5286,446.516 16,443.5C 13.3872,417.322 15.7205,391.656 23,366.5C 23.6667,292.5 23.6667,218.5 23,144.5C 15.7205,119.344 13.3872,93.6775 16,67.5C 17.5286,64.484 20.0286,63.1506 23.5,63.5C 29.019,64.9228 34.3524,66.9228 39.5,69.5C 44.6476,66.9228 49.981,64.9228 55.5,63.5C 61.019,64.9228 66.3524,66.9228 71.5,69.5C 76.6476,66.9228 81.981,64.9228 87.5,63.5C 93.019,64.9228 98.3524,66.9228 103.5,69.5C 108.648,66.9228 113.981,64.9228 119.5,63.5C 125.019,64.9228 130.352,66.9228 135.5,69.5C 140.648,66.9228 145.981,64.9228 151.5,63.5C 157.019,64.9228 162.352,66.9228 167.5,69.5C 172.648,66.9228 177.981,64.9228 183.5,63.5C 188.463,64.478 193.13,66.3113 197.5,69C 200.768,69.3795 203.768,68.5462 206.5,66.5C 207.333,50.844 207.833,35.1773 208,19.5C 208.69,17.6498 209.856,16.3164 211.5,15.5 Z"/></g>
<g><path style="opacity:1" fill="#6bb9e3" d="M 246.5,32.5 C 251.933,34.9658 257.433,37.2992 263,39.5C 268.777,37.8629 274.277,35.5296 279.5,32.5C 284.501,35.2514 289.668,37.5848 295,39.5C 300.777,37.8629 306.277,35.5296 311.5,32.5C 316.501,35.2514 321.668,37.5848 327,39.5C 332.777,37.8629 338.277,35.5296 343.5,32.5C 348.501,35.2514 353.668,37.5848 359,39.5C 364.777,37.8629 370.277,35.5296 375.5,32.5C 380.501,35.2514 385.668,37.5848 391,39.5C 396.777,37.8629 402.277,35.5296 407.5,32.5C 412.501,35.2514 417.668,37.5848 423,39.5C 428.777,37.8629 434.277,35.5296 439.5,32.5C 444.501,35.2514 449.668,37.5848 455,39.5C 457.903,39.0886 460.569,38.0886 463,36.5C 463.5,45.4938 463.666,54.4938 463.5,63.5C 458.167,63.5 452.833,63.5 447.5,63.5C 447.5,58.1667 447.5,52.8333 447.5,47.5C 442.167,47.5 436.833,47.5 431.5,47.5C 431.5,52.8333 431.5,58.1667 431.5,63.5C 426.167,63.5 420.833,63.5 415.5,63.5C 415.5,58.1667 415.5,52.8333 415.5,47.5C 410.167,47.5 404.833,47.5 399.5,47.5C 399.5,52.8333 399.5,58.1667 399.5,63.5C 394.167,63.5 388.833,63.5 383.5,63.5C 383.5,58.1667 383.5,52.8333 383.5,47.5C 378.167,47.5 372.833,47.5 367.5,47.5C 367.5,52.8333 367.5,58.1667 367.5,63.5C 362.167,63.5 356.833,63.5 351.5,63.5C 351.5,58.1667 351.5,52.8333 351.5,47.5C 346.167,47.5 340.833,47.5 335.5,47.5C 335.5,52.8333 335.5,58.1667 335.5,63.5C 330.167,63.5 324.833,63.5 319.5,63.5C 319.5,58.1667 319.5,52.8333 319.5,47.5C 314.167,47.5 308.833,47.5 303.5,47.5C 303.5,52.8333 303.5,58.1667 303.5,63.5C 298.167,63.5 292.833,63.5 287.5,63.5C 287.5,58.1667 287.5,52.8333 287.5,47.5C 282.167,47.5 276.833,47.5 271.5,47.5C 271.5,52.8333 271.5,58.1667 271.5,63.5C 266.167,63.5 260.833,63.5 255.5,63.5C 255.5,58.1667 255.5,52.8333 255.5,47.5C 250.167,47.5 244.833,47.5 239.5,47.5C 239.5,52.8333 239.5,58.1667 239.5,63.5C 234.167,63.5 228.833,63.5 223.5,63.5C 223.334,54.4938 223.5,45.4938 224,36.5C 226.098,38.0492 228.432,39.0492 231,39.5C 236.66,38.0833 241.827,35.75 246.5,32.5 Z"/></g>
<g><path style="opacity:1" fill="#4698cd" d="M 287.5,79.5 C 345.5,79.5 403.5,79.5 461.5,79.5C 459.394,93.1388 457.394,106.805 455.5,120.5C 463.423,185.836 463.423,251.169 455.5,316.5C 457.741,333.522 460.075,350.522 462.5,367.5C 428.167,367.5 393.833,367.5 359.5,367.5C 359.666,358.494 359.5,349.494 359,340.5C 356.774,336.139 353.274,334.639 348.5,336C 338.5,341 328.5,346 318.5,351C 305.504,351.5 292.504,351.667 279.5,351.5C 279.333,332.83 279.5,314.164 280,295.5C 312.877,322.335 348.71,326.835 387.5,309C 420.888,290.252 438.221,261.585 439.5,223C 437.953,184.89 420.62,156.557 387.5,138C 348.736,120.349 312.903,124.849 280,151.5C 280.564,138.895 282.898,126.561 287,114.5C 287.5,102.838 287.667,91.1714 287.5,79.5 Z"/></g>
<g><path style="opacity:1" fill="#e89c2c" d="M 54.5,80.5 C 59.933,82.9658 65.433,85.2992 71,87.5C 76.7766,85.8629 82.2766,83.5296 87.5,80.5C 92.501,83.2514 97.6677,85.5848 103,87.5C 108.777,85.8629 114.277,83.5296 119.5,80.5C 124.501,83.2514 129.668,85.5848 135,87.5C 140.777,85.8629 146.277,83.5296 151.5,80.5C 156.501,83.2514 161.668,85.5848 167,87.5C 172.777,85.8629 178.277,83.5296 183.5,80.5C 188.501,83.2514 193.668,85.5848 199,87.5C 204.777,85.8629 210.277,83.5296 215.5,80.5C 220.501,83.2514 225.668,85.5848 231,87.5C 236.777,85.8629 242.277,83.5296 247.5,80.5C 252.501,83.2514 257.668,85.5848 263,87.5C 265.903,87.0886 268.569,86.0886 271,84.5C 271.5,90.8246 271.666,97.1579 271.5,103.5C 191.5,103.5 111.5,103.5 31.5,103.5C 31.3338,97.1579 31.5005,90.8246 32,84.5C 34.0983,86.0492 36.4316,87.0492 39,87.5C 44.6604,86.0833 49.8271,83.75 54.5,80.5 Z"/></g>
<g><path style="opacity:1" fill="#fab43f" d="M 33.5,119.5 C 112.169,119.167 190.836,119.5 269.5,120.5C 267.668,127.161 265.835,133.828 264,140.5C 263.5,210.833 263.333,281.166 263.5,351.5C 231.498,351.667 199.498,351.5 167.5,351C 155.913,346.138 144.246,341.471 132.5,337C 127.149,334.265 122.983,335.432 120,340.5C 119.5,357.497 119.333,374.497 119.5,391.5C 90.8256,391.833 62.1589,391.5 33.5,390.5C 35.3321,383.839 37.1654,377.172 39,370.5C 39.6667,293.833 39.6667,217.167 39,140.5C 37.0064,133.525 35.1731,126.525 33.5,119.5 Z"/></g>
<g><path style="opacity:1" fill="#418bc2" d="M 335.5,143.5 C 373.046,142.271 400.212,158.271 417,191.5C 428.106,220.297 424.773,247.297 407,272.5C 381.529,301.329 350.362,309.829 313.5,298C 300.189,292.267 289.022,283.767 280,272.5C 279.333,257.833 279.333,243.167 280,228.5C 281.9,247.806 291.733,261.306 309.5,269C 320.182,272.544 330.682,272.044 341,267.5C 369.241,276.55 390.241,267.883 404,241.5C 406.31,234.664 407.31,227.664 407,220.5C 406.065,217.898 404.232,216.398 401.5,216C 389.838,215.5 378.171,215.333 366.5,215.5C 362.056,191.343 347.556,178.01 323,175.5C 299.877,178.615 285.544,191.615 280,214.5C 279.333,201.167 279.333,187.833 280,174.5C 294.403,156.718 312.903,146.384 335.5,143.5 Z"/></g>
<g><path style="opacity:1" fill="#020100" d="M 140.5,175.5 C 164.586,173.249 185.253,180.416 202.5,197C 215.058,196.062 226.391,191.728 236.5,184C 241.026,183.181 244.526,184.681 247,188.5C 247.667,211.5 247.667,234.5 247,257.5C 242.717,276.94 230.55,287.273 210.5,288.5C 193.017,311.729 169.683,321.895 140.5,319C 122.102,315.425 106.769,306.591 94.5,292.5C 84.6249,296.599 75.9583,302.433 68.5,310C 62.5714,312.962 58.4048,311.462 56,305.5C 55.3333,279.167 55.3333,252.833 56,226.5C 63.0229,206.503 77.1896,197.336 98.5,199C 110.077,186.715 124.077,178.881 140.5,175.5 Z"/></g>
<g><path style="opacity:1" fill="#689374" d="M 142.5,191.5 C 155.582,190.354 167.916,192.854 179.5,199C 160.833,199.667 142.167,199.667 123.5,199C 129.604,195.583 135.937,193.083 142.5,191.5 Z"/></g>
<g><path style="opacity:1" fill="#a15c13" d="M 317.5,191.5 C 335.117,190.47 346.117,198.47 350.5,215.5C 338.399,215.041 326.399,215.541 314.5,217C 312.258,218.986 311.258,221.486 311.5,224.5C 311.88,236.15 315.88,246.316 323.5,255C 308.494,253.674 299.328,245.507 296,230.5C 293.659,212.061 300.826,199.061 317.5,191.5 Z"/></g>
<g><path style="opacity:1" fill="#e99c2c" d="M 230.5,205.5 C 231.662,222.995 231.829,240.662 231,258.5C 228.833,264.667 224.667,268.833 218.5,271C 182.5,271.333 146.5,271.667 110.5,272C 96.7794,274.183 84.1127,279.016 72.5,286.5C 71.3336,267.175 71.167,247.842 72,228.5C 74.1667,222.333 78.3333,218.167 84.5,216C 123.167,215.667 161.833,215.333 200.5,215C 211.079,213.361 221.079,210.194 230.5,205.5 Z"/></g>
<g><path style="opacity:1" fill="#e79b2c" d="M 328.5,232.5 C 348.996,231.337 369.663,231.171 390.5,232C 382.301,252.192 367.634,259.192 346.5,253C 337.402,248.744 331.402,241.911 328.5,232.5 Z"/></g>
<g><path style="opacity:1" fill="#699475" d="M 113.5,287.5 C 139.169,287.333 164.835,287.5 190.5,288C 167.665,306.522 143.665,308.189 118.5,293C 116.576,291.25 114.909,289.417 113.5,287.5 Z"/></g>
<g><path style="opacity:1" fill="#db4c40" d="M 135.5,355.5 C 145.183,359.229 154.849,363.062 164.5,367C 216.833,367.667 269.167,367.667 321.5,367C 328.866,363.9 336.033,360.4 343,356.5C 343.5,362.825 343.666,369.158 343.5,375.5C 338.167,375.5 332.833,375.5 327.5,375.5C 327.5,380.833 327.5,386.167 327.5,391.5C 332.833,391.5 338.167,391.5 343.5,391.5C 343.5,396.833 343.5,402.167 343.5,407.5C 338.167,407.5 332.833,407.5 327.5,407.5C 327.5,412.833 327.5,418.167 327.5,423.5C 332.833,423.5 338.167,423.5 343.5,423.5C 343.5,428.833 343.5,434.167 343.5,439.5C 338.167,439.5 332.833,439.5 327.5,439.5C 327.5,444.833 327.5,450.167 327.5,455.5C 332.833,455.5 338.167,455.5 343.5,455.5C 343.666,461.842 343.5,468.175 343,474.5C 336.033,470.6 328.866,467.1 321.5,464C 269.167,463.333 216.833,463.333 164.5,464C 155.126,467.736 145.793,471.569 136.5,475.5C 135.503,468.866 135.17,462.2 135.5,455.5C 140.833,455.5 146.167,455.5 151.5,455.5C 151.5,450.167 151.5,444.833 151.5,439.5C 146.167,439.5 140.833,439.5 135.5,439.5C 135.5,434.167 135.5,428.833 135.5,423.5C 140.833,423.5 146.167,423.5 151.5,423.5C 151.5,418.167 151.5,412.833 151.5,407.5C 146.167,407.5 140.833,407.5 135.5,407.5C 135.5,402.167 135.5,396.833 135.5,391.5C 140.833,391.5 146.167,391.5 151.5,391.5C 151.5,386.167 151.5,380.833 151.5,375.5C 146.167,375.5 140.833,375.5 135.5,375.5C 135.5,368.833 135.5,362.167 135.5,355.5 Z"/></g>
<g><path style="opacity:1" fill="#040100" d="M 231.5,375.5 C 255.879,373.742 271.712,384.409 279,407.5C 279.833,440 264,455.833 231.5,455C 208.244,447.726 197.744,431.893 200,407.5C 204.691,390.976 215.191,380.309 231.5,375.5 Z"/></g>
<g><path style="opacity:1" fill="#6bb9e3" d="M 359.5,383.5 C 362.167,383.5 364.833,383.5 367.5,383.5C 367.5,388.833 367.5,394.167 367.5,399.5C 372.833,399.5 378.167,399.5 383.5,399.5C 383.5,394.167 383.5,388.833 383.5,383.5C 388.833,383.5 394.167,383.5 399.5,383.5C 399.5,388.833 399.5,394.167 399.5,399.5C 404.833,399.5 410.167,399.5 415.5,399.5C 415.5,394.167 415.5,388.833 415.5,383.5C 420.833,383.5 426.167,383.5 431.5,383.5C 431.5,388.833 431.5,394.167 431.5,399.5C 436.833,399.5 442.167,399.5 447.5,399.5C 447.5,394.167 447.5,388.833 447.5,383.5C 452.833,383.5 458.167,383.5 463.5,383.5C 463.666,392.506 463.5,401.506 463,410.5C 460.569,408.911 457.903,407.911 455,407.5C 449.668,409.415 444.501,411.749 439.5,414.5C 434.277,411.47 428.777,409.137 423,407.5C 417.668,409.415 412.501,411.749 407.5,414.5C 402.277,411.47 396.777,409.137 391,407.5C 385.668,409.415 380.501,411.749 375.5,414.5C 370.62,411.893 365.62,409.56 360.5,407.5C 359.502,399.528 359.169,391.528 359.5,383.5 Z"/></g>
<g><path style="opacity:1" fill="#f99025" d="M 233.5,391.5 C 248.128,389.727 257.961,395.727 263,409.5C 264.828,424.345 258.661,434.178 244.5,439C 230.583,440.454 221.083,434.621 216,421.5C 214.364,407.101 220.197,397.101 233.5,391.5 Z"/></g>
<g><path style="opacity:1" fill="#e89c2c" d="M 31.5,407.5 C 60.8333,407.5 90.1667,407.5 119.5,407.5C 119.666,415.174 119.5,422.841 119,430.5C 114.021,427.343 108.687,425.01 103,423.5C 97.6677,425.415 92.501,427.749 87.5,430.5C 82.2766,427.47 76.7766,425.137 71,423.5C 65.6677,425.415 60.501,427.749 55.5,430.5C 50.2766,427.47 44.7766,425.137 39,423.5C 36.4316,423.951 34.0983,424.951 32,426.5C 31.5005,420.175 31.3338,413.842 31.5,407.5 Z"/></g>
</svg>
