<?xml version="1.0" encoding="UTF-8"?>
<!DOCTYPE svg PUBLIC "-//W3C//DTD SVG 1.1//EN" "http://www.w3.org/Graphics/SVG/1.1/DTD/svg11.dtd">
<svg xmlns="http://www.w3.org/2000/svg" version="1.1" width="512px" height="512px" style="shape-rendering:geometricPrecision; text-rendering:geometricPrecision; image-rendering:optimizeQuality; fill-rule:evenodd; clip-rule:evenodd" xmlns:xlink="http://www.w3.org/1999/xlink">
<g><path style="opacity:0.948" fill="#0f0f15" d="M 131.5,-0.5 C 134.167,-0.5 136.833,-0.5 139.5,-0.5C 142.355,2.59189 143.188,6.25856 142,10.5C 137.424,15.9867 133.091,21.6533 129,27.5C 126.561,35.4555 127.227,43.1221 131,50.5C 137.107,57.2732 142.44,64.6065 147,72.5C 153.793,95.8808 146.96,113.881 126.5,126.5C 119.956,124.961 117.789,120.961 120,114.5C 125.061,109.373 129.394,103.707 133,97.5C 135.201,90.3754 134.867,83.3754 132,76.5C 125.562,69.3964 119.895,61.7297 115,53.5C 110.328,40.5134 111.328,27.8467 118,15.5C 121.959,9.70755 126.459,4.37421 131.5,-0.5 Z"/></g>
<g><path style="opacity:0.985" fill="#111217" d="M 511.5,28.5 C 511.5,34.1667 511.5,39.8333 511.5,45.5C 510.106,50.9546 507.606,55.9546 504,60.5C 467.988,95.0124 432.155,129.679 396.5,164.5C 413.603,170.386 429.936,177.886 445.5,187C 469.634,203.712 477.801,226.545 470,255.5C 467.677,294.46 458.011,331.46 441,366.5C 420.304,405.362 389.804,433.696 349.5,451.5C 348.893,461.206 348.059,470.873 347,480.5C 343.409,489.759 336.909,495.925 327.5,499C 306.101,505.314 284.434,509.481 262.5,511.5C 244.5,511.5 226.5,511.5 208.5,511.5C 186.216,509.611 164.216,505.445 142.5,499C 133.091,495.925 126.591,489.759 123,480.5C 121.941,470.873 121.107,461.206 120.5,451.5C 69.1649,428.164 34.3315,389.831 16,336.5C 7.33463,310.004 1.83463,283.004 -0.5,255.5C -0.5,242.833 -0.5,230.167 -0.5,217.5C 2.90388,207.902 8.57055,199.735 16.5,193C 31.0516,182.056 47.0516,173.723 64.5,168C 111.04,153.41 158.707,145.41 207.5,144C 246.828,142.438 285.995,144.272 325,149.5C 326.167,149.167 327.333,148.833 328.5,148.5C 367.481,104.351 406.648,60.3512 446,16.5C 460.927,-0.0568393 478.094,-2.89017 497.5,8C 504.068,13.6675 508.735,20.5008 511.5,28.5 Z"/></g>
<g><path style="opacity:0.947" fill="#0f0f15" d="M 191.5,15.5 C 200.473,14.969 203.64,18.969 201,27.5C 194.87,32.4589 191.037,38.7922 189.5,46.5C 190.055,50.0537 191.221,53.387 193,56.5C 212.485,76.4923 212.318,96.3256 192.5,116C 186.031,118.766 182.031,116.766 180.5,110C 180.542,108.033 181.042,106.199 182,104.5C 185.385,100.783 188.385,96.7829 191,92.5C 192.981,87.3731 192.648,82.3731 190,77.5C 168.911,56.1419 169.411,35.4752 191.5,15.5 Z"/></g>
<g><path style="opacity:1" fill="#ededf9" d="M 469.5,16.5 C 485.292,14.3779 494.625,21.0446 497.5,36.5C 497.234,41.5641 495.734,46.2308 493,50.5C 440,101.5 387,152.5 334,203.5C 331.42,206.328 330.254,209.662 330.5,213.5C 331.283,219.35 332.783,225.017 335,230.5C 335.789,234.091 335.622,237.591 334.5,241C 299.262,241.829 264.095,241.662 229,240.5C 228.516,238.087 228.85,235.754 230,233.5C 237.123,217.377 247.623,203.877 261.5,193C 269.566,187.067 278.566,184.733 288.5,186C 293.496,187.333 298.496,188.5 303.5,189.5C 307.067,189.589 310.4,188.755 313.5,187C 363.87,131.632 413.87,75.9649 463.5,20C 465.727,19.059 467.727,17.8923 469.5,16.5 Z"/></g>
<g><path style="opacity:0.946" fill="#0f0f15" d="M 73.5,56.5 C 80.657,56.155 83.8237,59.4884 83,66.5C 81.7695,69.7323 79.7695,72.3989 77,74.5C 72.9658,81.6098 74.2991,87.6098 81,92.5C 90.8786,108.122 88.7119,121.956 74.5,134C 65.6667,135.833 62.1667,132.333 64,123.5C 66.3333,120.5 68.6667,117.5 71,114.5C 71.6667,111.5 71.6667,108.5 71,105.5C 66.8906,101.39 63.5573,96.7235 61,91.5C 56.7487,76.7498 60.9154,65.0832 73.5,56.5 Z"/></g>
<g><path style="opacity:1" fill="#a2d8eb" d="M 117.5,199.5 C 116.25,199.423 115.417,198.756 115,197.5C 114.129,187.317 115.963,177.65 120.5,168.5C 170.701,159.029 221.367,155.862 272.5,159C 286.915,159.879 301.248,161.379 315.5,163.5C 312.727,167.777 309.393,171.61 305.5,175C 282.392,167.377 262.059,172.044 244.5,189C 201.821,188.646 159.487,192.146 117.5,199.5 Z"/></g>
<g><path style="opacity:1" fill="#92c3d4" d="M 120.5,168.5 C 115.963,177.65 114.129,187.317 115,197.5C 115.417,198.756 116.25,199.423 117.5,199.5C 87.8487,204.662 59.5153,214.162 32.5,228C 27.6603,230.919 22.9936,234.086 18.5,237.5C 13.51,231.941 12.3434,225.608 15,218.5C 21.8985,207.128 31.3985,198.628 43.5,193C 67.9365,180.974 93.6032,172.807 120.5,168.5 Z"/></g>
<g><path style="opacity:1" fill="#a1d7ea" d="M 382.5,176.5 C 404.615,181.894 424.948,191.061 443.5,204C 449.028,208.899 453.194,214.733 456,221.5C 457.033,226.894 456.033,231.894 453,236.5C 452.282,237.451 451.449,237.617 450.5,237C 431.614,223.696 410.947,214.029 388.5,208C 378.397,205.808 368.397,203.308 358.5,200.5C 366.215,192.119 374.215,184.119 382.5,176.5 Z"/></g>
<g><path style="opacity:1" fill="#fdda6d" d="M 197.5,203.5 C 208.52,203.168 219.52,203.501 230.5,204.5C 223.777,213.276 218.61,222.943 215,233.5C 212.758,243.515 216.258,250.682 225.5,255C 263.547,255.975 301.547,255.642 339.5,254C 344.703,251.447 347.87,247.28 349,241.5C 349.667,237.5 349.667,233.5 349,229.5C 347.936,223.665 346.436,217.999 344.5,212.5C 373.778,217.319 401.778,226.152 428.5,239C 433.226,241.69 437.56,244.856 441.5,248.5C 433.696,254.91 425.03,260.077 415.5,264C 369.658,280.642 322.325,289.975 273.5,292C 213.793,296.042 154.793,291.375 96.5,278C 76.2812,273.038 56.9479,265.704 38.5,256C 34.9494,253.732 31.6161,251.232 28.5,248.5C 36.1263,242.345 44.4596,237.179 53.5,233C 80.8491,221.795 109.182,214.128 138.5,210C 158.279,207.496 177.946,205.33 197.5,203.5 Z"/></g>
<g><path style="opacity:1" fill="#b8ecec" d="M 386.5,289.5 C 369.737,343.539 338.403,387.039 292.5,420C 268.061,437.884 241.061,450.384 211.5,457.5C 169.831,456.22 131.497,444.386 96.5,422C 67.8779,401.701 47.0446,375.201 34,342.5C 23.0909,315.118 17.2575,286.785 16.5,257.5C 35.483,271.565 56.483,281.732 79.5,288C 146.111,305.523 213.777,311.523 282.5,306C 317.68,303.637 352.346,298.137 386.5,289.5 Z"/></g>
<g><path style="opacity:1" fill="#a6d5d5" d="M 211.5,457.5 C 241.061,450.384 268.061,437.884 292.5,420C 338.403,387.039 369.737,343.539 386.5,289.5C 405.233,283.973 423.233,276.473 440.5,267C 444.974,264.027 449.307,260.86 453.5,257.5C 452.428,304.883 438.261,347.883 411,386.5C 384.598,419.139 350.765,440.306 309.5,450C 277.05,457.367 244.383,459.867 211.5,457.5 Z"/></g>
<g><path style="opacity:1" fill="#d4f3f3" d="M 61.5,324.5 C 67.0916,324.087 72.0916,325.587 76.5,329C 87.9932,339.467 92.4932,352.3 90,367.5C 85.7554,374.017 80.2554,375.183 73.5,371C 60.1728,361.177 54.3395,348.01 56,331.5C 56.9668,328.379 58.8001,326.046 61.5,324.5 Z"/></g>
<g><path style="opacity:1" fill="#d4f3f3" d="M 98.5,381.5 C 109.966,382.13 115.133,388.13 114,399.5C 107.532,404.061 101.865,403.061 97,396.5C 93.1763,390.783 93.6763,385.783 98.5,381.5 Z"/></g>
<g><path style="opacity:1" fill="#a1d7ea" d="M 333.5,456.5 C 335.636,464.915 334.469,472.915 330,480.5C 328.421,482.041 326.587,483.208 324.5,484C 294.077,493.366 262.911,497.866 231,497.5C 201.444,497.541 172.61,493.041 144.5,484C 140.961,482.093 138.461,479.26 137,475.5C 135.639,469.593 135.139,463.593 135.5,457.5C 191.467,474.434 248.133,476.934 305.5,465C 315.157,462.833 324.49,460 333.5,456.5 Z"/></g>
</svg>
