<?xml version="1.0" encoding="UTF-8"?>
<!DOCTYPE svg PUBLIC "-//W3C//DTD SVG 1.1//EN" "http://www.w3.org/Graphics/SVG/1.1/DTD/svg11.dtd">
<svg xmlns="http://www.w3.org/2000/svg" version="1.1" width="512px" height="512px" style="shape-rendering:geometricPrecision; text-rendering:geometricPrecision; image-rendering:optimizeQuality; fill-rule:evenodd; clip-rule:evenodd" xmlns:xlink="http://www.w3.org/1999/xlink">
<g><path style="opacity:0.983" fill="#020301" d="M 483.5,169.5 C 481.552,168.869 479.719,167.869 478,166.5C 475.993,150.812 470.993,136.145 463,122.5C 458.246,116.779 452.246,112.779 445,110.5C 445.965,119.178 445.632,127.845 444,136.5C 441.736,139.52 438.903,140.187 435.5,138.5C 427.606,128.105 418.273,119.271 407.5,112C 395.937,108.322 384.103,107.489 372,109.5C 371.167,109.833 370.333,110.167 369.5,110.5C 375.916,137.508 368.249,159.675 346.5,177C 340.338,181.08 333.671,184.08 326.5,186C 324.67,202.157 316.336,213.491 301.5,220C 305,221.833 308.5,223.667 312,225.5C 316.822,221.347 321.655,217.18 326.5,213C 351.749,198.647 375.249,201.147 397,220.5C 400.026,224.852 403.026,229.185 406,233.5C 422.447,227.719 438.613,228.386 454.5,235.5C 462.616,226.949 468.45,216.949 472,205.5C 474.196,202.875 477.03,201.875 480.5,202.5C 481.458,202.953 482.292,203.619 483,204.5C 483.667,207.167 483.667,209.833 483,212.5C 478.908,223.19 473.408,233.024 466.5,242C 488.345,265.182 495.678,292.182 488.5,323C 495.31,326.83 499.477,332.663 501,340.5C 501.419,353.064 502.253,365.564 503.5,378C 502.54,425.266 482.54,461.932 443.5,488C 427.436,497.577 410.102,503.577 391.5,506C 373.822,506.236 356.155,506.736 338.5,507.5C 324.389,507.193 310.389,505.859 296.5,503.5C 279.784,506.18 262.951,507.514 246,507.5C 218.097,507.216 190.263,505.716 162.5,503C 148.075,502.867 135.908,497.7 126,487.5C 122.802,481.905 120.802,475.905 120,469.5C 119.831,462.476 119.331,455.476 118.5,448.5C 114.944,449.74 111.444,451.073 108,452.5C 105.949,468.722 96.7821,478.389 80.5,481.5C 75.4078,501.217 62.7411,509.717 42.5,507C 25.2988,502.792 16.6321,491.792 16.5,474C 17.9751,449.531 29.9751,432.531 52.5,423C 58.3922,420.693 64.3922,418.693 70.5,417C 58.2336,409.401 48.7336,399.234 42,386.5C 35.4564,368.723 37.1231,351.723 47,335.5C 51.4384,331.061 56.4384,327.394 62,324.5C 67.1902,306.642 77.6902,292.809 93.5,283C 92.8333,282.333 92.1667,281.667 91.5,281C 69.3788,280.868 55.3788,270.201 49.5,249C 30.668,245.17 20.8347,233.67 20,214.5C 7.28767,200.562 3.95433,184.562 10,166.5C 12.0798,161.334 14.9132,156.667 18.5,152.5C 12.7664,138.17 15.0998,125.337 25.5,114C 27.699,112.303 30.0324,110.803 32.5,109.5C 29.2109,88.198 35.5442,70.3647 51.5,56C 63.323,48.2935 76.323,44.7935 90.5,45.5C 109.179,9.83478 138.179,-2.99856 177.5,7C 186.121,9.97358 193.788,14.4736 200.5,20.5C 221.756,4.79684 241.589,6.4635 260,25.5C 262.231,28.7949 264.064,32.2949 265.5,36C 283.852,38.5199 295.519,48.6866 300.5,66.5C 313.623,64.6127 326.29,66.2794 338.5,71.5C 353.999,49.7501 374.332,43.9167 399.5,54C 404.703,56.77 409.37,60.27 413.5,64.5C 418.594,55.2387 425.594,47.7387 434.5,42C 443.59,40.4241 446.424,43.9241 443,52.5C 436.167,56.6667 430.667,62.1667 426.5,69C 451.55,68.0899 468.384,79.2565 477,102.5C 478.665,109.469 478.999,116.469 478,123.5C 483.955,135.867 487.789,148.867 489.5,162.5C 489.585,166.68 487.585,169.014 483.5,169.5 Z"/></g>
<g><path style="opacity:0.875" fill="#000000" d="M 430.5,3.5 C 432.857,3.33669 435.19,3.50335 437.5,4C 438.701,4.90252 439.535,6.06919 440,7.5C 440.667,12.5 440.667,17.5 440,22.5C 435.863,27.7634 431.863,27.7634 428,22.5C 427.333,17.1667 427.333,11.8333 428,6.5C 429.045,5.62656 429.878,4.62656 430.5,3.5 Z"/></g>
<g><path style="opacity:0.865" fill="#000000" d="M 459.5,14.5 C 467.012,14.8734 469.512,18.5401 467,25.5C 464.5,28 462,30.5 459.5,33C 450.924,36.4236 447.424,33.5902 449,24.5C 452.396,20.9349 455.896,17.6015 459.5,14.5 Z"/></g>
<g><path style="opacity:1" fill="#00b286" d="M 146.5,15.5 C 172.509,13.917 192.009,24.2504 205,46.5C 207.068,50.6361 208.568,54.9694 209.5,59.5C 206.21,63.2917 202.71,66.9584 199,70.5C 198.332,76.8286 201.166,79.3286 207.5,78C 212.386,72.4679 218.386,68.4679 225.5,66C 242.97,63.1503 255.47,69.6503 263,85.5C 264.785,92.1135 264.951,98.7802 263.5,105.5C 265.292,111.483 268.792,112.816 274,109.5C 275.851,104.008 276.851,98.3418 277,92.5C 292.538,77.8891 310.371,74.3891 330.5,82C 353.944,93.7218 363.444,112.555 359,138.5C 351.522,162.163 335.355,174.663 310.5,176C 306.116,181.051 301.116,185.384 295.5,189C 272.966,196.069 258.3,188.402 251.5,166C 253.646,161.734 255.313,157.234 256.5,152.5C 255.017,146.926 251.684,145.426 246.5,148C 241.171,163.499 230.837,168.499 215.5,163C 207.078,156.402 204.245,147.902 207,137.5C 201.363,131.743 197.363,132.743 195,140.5C 194.336,144.696 194.503,148.862 195.5,153C 188.433,166.032 177.433,173.699 162.5,176C 152.005,177.63 142.005,176.13 132.5,171.5C 131.679,168.553 131.179,165.553 131,162.5C 127.667,158.5 124.333,158.5 121,162.5C 115.964,176.111 106.131,181.611 91.5,179C 88.6572,182.619 88.9905,185.952 92.5,189C 97.5889,190.798 102.756,190.965 108,189.5C 116.168,205.685 113.335,219.851 99.5,232C 87.4292,238.739 75.0958,239.239 62.5,233.5C 42.3581,238.546 32.1914,230.546 32,209.5C 14.8978,191.165 15.3978,173.332 33.5,156C 39.5358,151.652 46.2025,149.985 53.5,151C 56.7306,156.899 60.7306,162.232 65.5,167C 72.4381,169.06 75.2714,166.56 74,159.5C 56.9112,140.493 57.4112,121.993 75.5,104C 84.5768,97.8179 94.5768,95.8179 105.5,98C 111.297,100.321 116.964,102.821 122.5,105.5C 127.301,104.866 129.135,102.2 128,97.5C 120.06,89.9056 110.56,85.9056 99.5,85.5C 94.8533,59.5848 103.187,39.0848 124.5,24C 131.618,20.2449 138.951,17.4115 146.5,15.5 Z"/></g>
<g><path style="opacity:1" fill="#00b084" d="M 221.5,22.5 C 232.968,21.1547 242.468,24.8214 250,33.5C 252.503,38.3511 255.003,43.1844 257.5,48C 271.875,47.4296 282.042,53.5963 288,66.5C 288.667,67.8333 288.667,69.1667 288,70.5C 283.154,72.9207 278.488,75.5874 274,78.5C 261.893,58.1993 244.06,49.8659 220.5,53.5C 217.754,45.5085 214.087,38.0085 209.5,31C 210.101,29.395 211.101,28.0616 212.5,27C 215.592,25.4541 218.592,23.9541 221.5,22.5 Z"/></g>
<g><path style="opacity:0.875" fill="#000000" d="M 463.5,42.5 C 468.267,42.1908 472.934,42.6908 477.5,44C 481.5,47.6667 481.5,51.3333 477.5,55C 471.5,55.6667 465.5,55.6667 459.5,55C 457.607,52.0828 457.107,48.9162 458,45.5C 459.719,44.1312 461.552,43.1312 463.5,42.5 Z"/></g>
<g><path style="opacity:1" fill="#00ae83" d="M 75.5,58.5 C 79.5,58.5 83.5,58.5 87.5,58.5C 86.2322,67.8219 86.2322,77.1553 87.5,86.5C 69.9434,90.2201 58.11,100.553 52,117.5C 50.7122,124.437 50.2122,131.437 50.5,138.5C 43.1352,139.092 36.1352,141.092 29.5,144.5C 26.3592,130.487 31.6926,121.653 45.5,118C 46.7014,117.097 47.5348,115.931 48,114.5C 47.0083,108.187 45.8417,101.853 44.5,95.5C 46.5341,76.1383 56.8674,63.805 75.5,58.5 Z"/></g>
<g><path style="opacity:1" fill="#8ec800" d="M 370.5,61.5 C 385.376,60.0248 397.543,65.0248 407,76.5C 408.211,79.7591 410.044,82.5925 412.5,85C 418.642,83.388 424.976,82.2213 431.5,81.5C 448.955,82.4371 460.122,91.1038 465,107.5C 454.945,100.37 443.778,96.87 431.5,97C 429.406,98.255 428.406,100.088 428.5,102.5C 430.532,107.422 432.032,112.422 433,117.5C 418.031,100.506 399.198,93.3392 376.5,96C 380.674,93.4123 385.007,91.079 389.5,89C 392.569,84.675 391.902,81.0083 387.5,78C 378.491,72.8856 368.825,69.5523 358.5,68C 362.147,65.0127 366.147,62.8461 370.5,61.5 Z"/></g>
<g><path style="opacity:1" fill="#ed5152" d="M 353.5,79.5 C 360.16,79.665 366.493,81.165 372.5,84C 368.701,86.7969 365.201,89.9636 362,93.5C 359.095,88.8705 355.595,84.7038 351.5,81C 352.416,80.7216 353.082,80.2216 353.5,79.5 Z"/></g>
<g><path style="opacity:1" fill="#f95556" d="M 483.5,169.5 C 483.5,172.833 483.5,176.167 483.5,179.5C 477.484,180.658 475.651,183.991 478,189.5C 479.271,190.883 480.771,191.883 482.5,192.5C 481.454,195.728 480.788,199.061 480.5,202.5C 477.03,201.875 474.196,202.875 472,205.5C 468.45,216.949 462.616,226.949 454.5,235.5C 438.613,228.386 422.447,227.719 406,233.5C 403.026,229.185 400.026,224.852 397,220.5C 375.249,201.147 351.749,198.647 326.5,213C 321.655,217.18 316.822,221.347 312,225.5C 308.5,223.667 305,221.833 301.5,220C 316.336,213.491 324.67,202.157 326.5,186C 333.671,184.08 340.338,181.08 346.5,177C 368.249,159.675 375.916,137.508 369.5,110.5C 370.333,110.167 371.167,109.833 372,109.5C 384.103,107.489 395.937,108.322 407.5,112C 418.273,119.271 427.606,128.105 435.5,138.5C 438.903,140.187 441.736,139.52 444,136.5C 445.632,127.845 445.965,119.178 445,110.5C 452.246,112.779 458.246,116.779 463,122.5C 470.993,136.145 475.993,150.812 478,166.5C 479.719,167.869 481.552,168.869 483.5,169.5 Z"/></g>
<g><path style="opacity:1" fill="#00ae83" d="M 201.5,166.5 C 206.305,171.069 211.638,174.902 217.5,178C 214.378,193.945 210.878,209.778 207,225.5C 202.321,209.115 197.487,192.782 192.5,176.5C 195.522,173.147 198.522,169.813 201.5,166.5 Z"/></g>
<g><path style="opacity:1" fill="#8fca00" d="M 238.5,174.5 C 239.675,174.281 240.675,174.614 241.5,175.5C 243.947,181.566 247.281,187.066 251.5,192C 247.389,206.671 243.889,221.504 241,236.5C 230.798,248.953 225.965,263.286 226.5,279.5C 217.319,282.092 209.319,286.759 202.5,293.5C 191.21,279.59 183.043,263.924 178,246.5C 176.468,244.438 174.468,243.104 172,242.5C 166.528,224.585 161.362,206.585 156.5,188.5C 165.477,187.755 174.143,185.755 182.5,182.5C 188.072,204.317 194.238,225.984 201,247.5C 201.456,253.591 201.122,259.591 200,265.5C 202.172,269.738 205.338,270.572 209.5,268C 216.756,238.393 223.256,208.56 229,178.5C 232.291,177.243 235.458,175.91 238.5,174.5 Z"/></g>
<g><path style="opacity:0.894" fill="#0c0403" d="M 483.5,179.5 C 489.063,180.961 490.563,184.295 488,189.5C 486.512,191.16 484.679,192.16 482.5,192.5C 480.771,191.883 479.271,190.883 478,189.5C 475.651,183.991 477.484,180.658 483.5,179.5 Z"/></g>
<g><path style="opacity:1" fill="#00ae83" d="M 123.5,180.5 C 129.974,183.74 136.641,186.407 143.5,188.5C 148.332,204.494 153.166,220.494 158,236.5C 158.944,239.347 158.444,241.847 156.5,244C 143.96,238.862 131.627,233.028 119.5,226.5C 125.705,212.788 126.038,198.955 120.5,185C 121.555,183.493 122.555,181.993 123.5,180.5 Z"/></g>
<g><path style="opacity:1" fill="#00ac82" d="M 312.5,190.5 C 310.562,201.268 303.896,207.768 292.5,210C 290.438,211.532 289.104,213.532 288.5,216C 277.141,215.011 266.641,217.511 257,223.5C 257.345,215.442 258.845,207.608 261.5,200C 265.183,200.555 268.85,201.555 272.5,203C 284.261,205.071 295.261,203.071 305.5,197C 308.288,195.281 310.621,193.115 312.5,190.5 Z"/></g>
<g><path style="opacity:1" fill="#42cb85" d="M 349.5,215.5 C 364.824,214.329 377.99,218.995 389,229.5C 392.535,235.068 395.368,240.901 397.5,247C 399.5,247.667 401.5,247.667 403.5,247C 415.755,241.601 428.422,240.268 441.5,243C 454.692,246.858 464.192,255.024 470,267.5C 478.077,281.141 481.077,295.807 479,311.5C 478.434,315.965 476.767,319.965 474,323.5C 473.218,326.257 473.718,328.757 475.5,331C 484.43,332.423 488.764,337.589 488.5,346.5C 480.087,345.591 472.087,346.924 464.5,350.5C 463.234,346.956 461.234,343.956 458.5,341.5C 457.578,325.709 453.078,311.043 445,297.5C 438.509,289.17 430.009,284.337 419.5,283C 407.024,267.751 391.024,258.084 371.5,254C 360.564,251.693 349.564,251.026 338.5,252C 333.727,245.391 328.394,239.224 322.5,233.5C 329.766,224.714 338.766,218.714 349.5,215.5 Z"/></g>
<g><path style="opacity:1" fill="#42cb85" d="M 273.5,228.5 C 287.759,227.199 300.426,231.032 311.5,240C 316.349,244.681 321.015,249.515 325.5,254.5C 309.698,259.647 295.865,267.981 284,279.5C 274.397,275.932 265.563,277.432 257.5,284C 236.535,301.448 228.702,323.614 234,350.5C 227.419,353.574 223.252,358.574 221.5,365.5C 218.786,365.75 216.119,365.917 213.5,366C 207.195,359.442 203.362,351.609 202,342.5C 198.544,325.136 203.044,310.303 215.5,298C 222.822,293.424 230.322,289.258 238,285.5C 236.2,257.727 248.033,238.727 273.5,228.5 Z"/></g>
<g><path style="opacity:1" fill="#8fc900" d="M 111.5,236.5 C 122.903,241.701 134.236,247.201 145.5,253C 139.614,257.887 133.447,262.387 127,266.5C 118.957,258.953 110.79,251.62 102.5,244.5C 106.137,242.52 109.137,239.854 111.5,236.5 Z"/></g>
<g><path style="opacity:1" fill="#00ae83" d="M 62.5,246.5 C 71.6015,249.059 80.9348,250.226 90.5,250C 98.7295,256.942 106.729,264.109 114.5,271.5C 111.555,273.556 108.388,275.223 105,276.5C 102.233,273.733 99.3997,270.9 96.5,268C 81.8105,270.402 70.9771,265.235 64,252.5C 63.187,250.564 62.687,248.564 62.5,246.5 Z"/></g>
<g><path style="opacity:1" fill="#fccba1" d="M 163.5,260.5 C 164.167,264.5 164.833,268.5 165.5,272.5C 168.53,295.912 170.863,319.412 172.5,343C 172.442,351.627 171.442,360.127 169.5,368.5C 154.913,367.874 144.08,373.874 137,386.5C 133.984,392.531 130.984,398.531 128,404.5C 125.512,402.257 122.846,400.257 120,398.5C 123.477,384.128 119.143,372.795 107,364.5C 107.965,351.27 111.965,338.937 119,327.5C 130.22,309.616 142.22,292.282 155,275.5C 157.845,270.473 160.679,265.473 163.5,260.5 Z"/></g>
<g><path style="opacity:1" fill="#987b61" d="M 165.5,272.5 C 164.833,268.5 164.167,264.5 163.5,260.5C 163.987,259.527 164.487,258.527 165,257.5C 165.499,262.489 165.666,267.489 165.5,272.5 Z"/></g>
<g><path style="opacity:1" fill="#d5f289" d="M 340.5,263.5 C 359.831,262.218 377.831,266.384 394.5,276C 399.102,278.803 403.102,282.303 406.5,286.5C 405.019,287.48 403.685,288.647 402.5,290C 368.823,290.452 352.656,307.618 354,341.5C 352.333,342.5 350.667,343.5 349,344.5C 342.013,320 325.846,308 300.5,308.5C 300.663,300.489 298.329,293.322 293.5,287C 306.813,274.343 322.48,266.51 340.5,263.5 Z"/></g>
<g><path style="opacity:1" fill="#facaa0" d="M 142.5,269.5 C 143.239,269.369 143.906,269.536 144.5,270C 134.211,284.078 124.044,298.245 114,312.5C 108.382,321.403 103.548,330.736 99.5,340.5C 94.0549,332.266 86.3882,327.266 76.5,325.5C 75.3691,323.926 75.2025,322.259 76,320.5C 82.7812,307.385 92.6145,297.219 105.5,290C 115.531,284.984 125.531,279.984 135.5,275C 138.266,273.629 140.599,271.796 142.5,269.5 Z"/></g>
<g><path style="opacity:1" fill="#f4c59c" d="M 177.5,278.5 C 183.106,287.527 189.106,296.361 195.5,305C 189.876,316.177 188.043,328.01 190,340.5C 191.126,353.077 195.793,364.077 204,373.5C 204.783,375.319 204.283,376.652 202.5,377.5C 196.26,375.365 189.927,373.531 183.5,372C 182.484,371.481 181.818,370.647 181.5,369.5C 183.437,360.941 184.437,352.275 184.5,343.5C 182.905,321.744 180.572,300.077 177.5,278.5 Z"/></g>
<g><path style="opacity:1" fill="#91cc00" d="M 271.5,289.5 C 280.482,288.642 285.982,292.642 288,301.5C 289.026,306.785 289.693,312.118 290,317.5C 290.833,318.333 291.667,319.167 292.5,320C 317.782,316.804 333.116,327.638 338.5,352.5C 330.872,363.214 326.705,375.214 326,388.5C 315.26,361.797 295.926,351.797 268,358.5C 262.093,352.713 255.093,349.047 247,347.5C 240.876,322.019 249.043,302.686 271.5,289.5 Z"/></g>
<g><path style="opacity:1" fill="#91cd00" d="M 415.5,295.5 C 420.618,294.889 425.285,296.056 429.5,299C 437.275,305.787 442.108,314.287 444,324.5C 445.491,331.762 446.324,339.095 446.5,346.5C 430.353,346.74 418.353,353.906 410.5,368C 393.74,367.765 381.907,375.265 375,390.5C 372.188,397.559 370.521,404.892 370,412.5C 365.296,415.692 360.962,419.358 357,423.5C 352.375,416.541 346.708,410.541 340,405.5C 336.192,389.783 338.525,375.116 347,361.5C 348.833,359.667 350.667,357.833 352.5,356C 357.146,353.681 361.646,351.181 366,348.5C 366.333,340.5 366.667,332.5 367,324.5C 368.983,314.36 374.816,307.527 384.5,304C 391.437,302.827 398.437,302.16 405.5,302C 408.728,299.56 412.061,297.394 415.5,295.5 Z"/></g>
<g><path style="opacity:1" fill="#90cc00" d="M 66.5,336.5 C 87.3065,336.821 95.1398,347.155 90,367.5C 93.8127,369.969 97.646,372.469 101.5,375C 109.899,381.18 111.399,388.68 106,397.5C 105.333,399.5 105.333,401.5 106,403.5C 112.236,407.067 117.903,411.4 123,416.5C 124.405,420.534 124.072,424.534 122,428.5C 103.127,421.815 85.6275,412.648 69.5,401C 54.5576,389.845 48.3909,375.011 51,356.5C 52.7113,346.977 57.8779,340.31 66.5,336.5 Z"/></g>
<g><path style="opacity:1" fill="#42ca85" d="M 438.5,358.5 C 442.514,358.334 446.514,358.501 450.5,359C 455.013,360.504 459.513,362.004 464,363.5C 467.877,362.146 471.71,360.646 475.5,359C 487.218,356.545 492.552,361.378 491.5,373.5C 479.859,373.972 471.526,379.472 466.5,390C 456.903,391.6 449.403,396.433 444,404.5C 434.213,400.73 424.046,399.063 413.5,399.5C 403.265,398.809 393.598,400.809 384.5,405.5C 384.392,393.905 389.725,385.739 400.5,381C 406.218,380.789 411.885,380.289 417.5,379.5C 421.576,369.424 428.576,362.424 438.5,358.5 Z"/></g>
<g><path style="opacity:1" fill="#41ca84" d="M 239.5,360.5 C 249.689,358.596 257.355,362.096 262.5,371C 264.833,371.667 267.167,371.667 269.5,371C 284.263,364.731 297.097,367.564 308,379.5C 311.321,384.474 313.821,389.807 315.5,395.5C 301.858,394.428 289.191,397.428 277.5,404.5C 256.902,396.301 236.236,388.301 215.5,380.5C 216.5,379.667 217.5,378.833 218.5,378C 228.164,379.331 233.331,375.164 234,365.5C 235.812,363.7 237.645,362.033 239.5,360.5 Z"/></g>
<g><path style="opacity:1" fill="#fca100" d="M 156.5,461.5 C 155.507,470.318 155.173,479.318 155.5,488.5C 154.167,488.5 152.833,488.5 151.5,488.5C 140.023,486.187 133.523,479.187 132,467.5C 130.078,441.11 135.078,416.11 147,392.5C 151.245,384.378 157.911,380.712 167,381.5C 171.556,381.532 176.056,382.032 180.5,383C 189.086,385.807 197.753,388.307 206.5,390.5C 202.579,401.093 198.746,411.76 195,422.5C 193.605,426.5 193.438,430.5 194.5,434.5C 197.703,437.122 200.87,437.122 204,434.5C 207.814,421.225 212.314,408.225 217.5,395.5C 240.851,402.394 263.517,411.061 285.5,421.5C 281.774,429.68 278.44,438.013 275.5,446.5C 277.431,452.554 281.098,453.888 286.5,450.5C 289.299,442.24 292.632,434.24 296.5,426.5C 309.612,433.773 321.445,442.773 332,453.5C 334.516,456.534 336.516,459.868 338,463.5C 339.118,470.43 336.618,475.597 330.5,479C 313.223,487.801 294.89,492.801 275.5,494C 263.505,494.5 251.505,494.667 239.5,494.5C 239.667,483.162 239.5,471.828 239,460.5C 235.021,456.356 231.355,456.69 228,461.5C 227.5,472.495 227.333,483.495 227.5,494.5C 207.782,494.355 188.115,493.355 168.5,491.5C 168.44,476.803 168.606,462.136 169,447.5C 168.242,445.09 166.575,444.09 164,444.5C 161.333,444.167 159.333,445.167 158,447.5C 156.878,452.102 156.378,456.768 156.5,461.5 Z"/></g>
<g><path style="opacity:1" fill="#00b185" d="M 486.5,385.5 C 487.833,385.5 489.167,385.5 490.5,385.5C 486.809,430.746 464.809,463.579 424.5,484C 402.539,492.886 379.706,496.386 356,494.5C 346.5,494.333 337,494.167 327.5,494C 339.026,490.474 346.526,482.974 350,471.5C 351.265,463.292 349.265,455.958 344,449.5C 329.424,433.265 312.258,420.432 292.5,411C 312.431,403.531 329.264,408.031 343,424.5C 345.333,428.167 347.667,431.833 350,435.5C 352.21,438.29 355.044,439.123 358.5,438C 375.769,418.464 397.436,409.464 423.5,411C 430.357,412.381 437.023,414.381 443.5,417C 445.833,417.667 448.167,417.667 450.5,417C 452.77,412.463 455.77,408.463 459.5,405C 464.358,403.163 469.358,401.83 474.5,401C 476.9,394.452 480.9,389.286 486.5,385.5 Z"/></g>
<g><path style="opacity:1" fill="#00b085" d="M 83.5,426.5 C 85.5273,426.338 87.5273,426.505 89.5,427C 96.5954,430.881 103.929,434.215 111.5,437C 107.297,439.782 102.63,441.116 97.5,441C 94.1501,444.43 93.4834,448.43 95.5,453C 94.4786,459.694 90.8119,464.361 84.5,467C 79.5636,468.609 74.5636,469.942 69.5,471C 67.9701,475.357 66.8034,479.857 66,484.5C 60.2842,494.763 51.7842,497.93 40.5,494C 32.7963,489.431 29.1296,482.597 29.5,473.5C 30.4406,454.043 40.1073,440.876 58.5,434C 66.8188,431.01 75.1521,428.51 83.5,426.5 Z"/></g>
<g><path style="opacity:1" fill="#986100" d="M 156.5,461.5 C 156.5,470.833 156.5,480.167 156.5,489.5C 154.585,489.784 152.919,489.451 151.5,488.5C 152.833,488.5 154.167,488.5 155.5,488.5C 155.173,479.318 155.507,470.318 156.5,461.5 Z"/></g>
</svg>
